{
.appVersion = "1038";
copyright = "Copyright (c) 2010, Sebastian Kosch (sebastian@aldusleaf.org),\012with Reserved Font Name \"Crimson\".\012This Font Software is licensed under the SIL Open Font License, Version 1.1.\012This license is available with a FAQ at: http://scripts.sil.org/OFL";
customParameters = (
{
name = note;
value = "2010-5-14: Created.";
},
{
name = openTypeNameLicense;

glyphs = (
{
glyphname = A;
lastChange = "2017-07-12 19:24:33 +0000";
layers = (
{
layerId = "C3DEC2A7-F599-40A3-AE95-7DABCECAEB0F";
paths = (
{
closed = 1;
nodes = (
"94 134 CURVE SMOOTH",
"307 624 LINE SMOOTH",
"313 637 OFFCURVE",
"333 662 OFFCURVE",
"344 662 CURVE SMOOTH",
"353 662 OFFCURVE",
"363 658 OFFCURVE",
"365 655 CURVE",
"570 148 LINE SMOOTH",
"583 117 OFFCURVE",
"589 97 OFFCURVE",
"598 76 CURVE SMOOTH",
"615 35 OFFCURVE",
"669 33 OFFCURVE",
"677 33 CURVE",
"682 24 OFFCURVE",
"683 0 OFFCURVE",
"679 -4 CURVE",
"639 -2 OFFCURVE",
"589 4 OFFCURVE",
"545 4 CURVE SMOOTH",
"499 4 OFFCURVE",
"430 -2 OFFCURVE",
"394 -4 CURVE",
"389 1 OFFCURVE",
"389 33 OFFCURVE",
"394 33 CURVE",
"411 33 OFFCURVE",
"439 39 OFFCURVE",
"453 51 CURVE SMOOTH",
"459 56 OFFCURVE",
"462 61 OFFCURVE",
"462 68 CURVE SMOOTH",
"462 77 OFFCURVE",
"402 220 OFFCURVE",
"402 220 CURVE",
"402 220 OFFCURVE",
"398 224 OFFCURVE",
"395 224 CURVE SMOOTH",
"357 226 OFFCURVE",
"324 225 OFFCURVE",
"299 225 CURVE SMOOTH",
"258 225 OFFCURVE",
"230 225 OFFCURVE",
"195 224 CURVE SMOOTH",
"192 224 OFFCURVE",
"189 221 OFFCURVE",
"188 219 CURVE",
"188 219 OFFCURVE",
"163 163 OFFCURVE",
"152 135 CURVE SMOOTH",
"142 110 OFFCURVE",
"130 74 OFFCURVE",
"130 67 CURVE SMOOTH",
"130 41 OFFCURVE",
"199 33 OFFCURVE",
"207 33 CURVE",
"213 26 OFFCURVE",
"211 0 OFFCURVE",
"208 -4 CURVE",
"173 0 OFFCURVE",
"144 4 OFFCURVE",
"100 4 CURVE SMOOTH",
"54 4 OFFCURVE",
"26 0 OFFCURVE",
"-9 -4 CURVE",
"-13 0 OFFCURVE",
"-15 21 OFFCURVE",
"-11 32 CURVE",
"1 32 OFFCURVE",
"49 48 OFFCURVE",
"59 64 CURVE SMOOTH",
"76 92 OFFCURVE",
"82 106 OFFCURVE"
);
},
{
closed = 1;
nodes = (
"295 476 LINE",
"210 280 LINE",
"210 280 OFFCURVE",
"210 276 OFFCURVE",
"212 276 CURVE SMOOTH",
"232 274 OFFCURVE",
"272 273 OFFCURVE",
"295 273 CURVE SMOOTH",
"326 273 OFFCURVE",
"344 273 OFFCURVE",
"375 275 CURVE SMOOTH",
"377 275 OFFCURVE",
"378 280 OFFCURVE",
"378 280 CURVE"
);
}
);
width = 675;
}
);
unicode = 0041;
userData = {
com.fontlab.hintData = {
hhints = (
{
position = -4;
width = 37;
},
{
position = 4;
width = 29;
},
{
position = 225;
width = 48;
},
{
position = 642;
width = 20;
}
);
};
};
},
{
glyphname = Aogonek;
lastChange = "2017-07-12 19:24:33 +0000";
layers = (
{
layerId = "C3DEC2A7-F599-40A3-AE95-7DABCECAEB0F";
paths = (
{
closed = 1;
nodes = (
"299 225 CURVE SMOOTH",
"258 225 OFFCURVE",
"230 225 OFFCURVE",
"195 224 CURVE SMOOTH",
"192 224 OFFCURVE",
"189 221 OFFCURVE",
"188 219 CURVE SMOOTH",
"188 219 OFFCURVE",
"163 163 OFFCURVE",
"152 135 CURVE SMOOTH",
"142 110 OFFCURVE",
"130 76 OFFCURVE",
"130 69 CURVE SMOOTH",
"130 43 OFFCURVE",
"199 33 OFFCURVE",
"207 33 CURVE",
"213 26 OFFCURVE",
"211 0 OFFCURVE",
"208 -4 CURVE",
"173 0 OFFCURVE",
"144 4 OFFCURVE",
"100 4 CURVE SMOOTH",
"54 4 OFFCURVE",
"26 0 OFFCURVE",
"-9 -4 CURVE",
"-13 0 OFFCURVE",
"-15 21 OFFCURVE",
"-11 32 CURVE",
"1 32 OFFCURVE",
"49 48 OFFCURVE",
"59 64 CURVE SMOOTH",
"76 92 OFFCURVE",
"82 106 OFFCURVE",
"94 134 CURVE SMOOTH",
"307 624 LINE SMOOTH",
"313 637 OFFCURVE",
"333 662 OFFCURVE",
"344 662 CURVE SMOOTH",
"353 662 OFFCURVE",
"359 658 OFFCURVE",
"361 655 CURVE SMOOTH",
"566 148 LINE SMOOTH",
"579 117 OFFCURVE",
"585 97 OFFCURVE",
"594 76 CURVE SMOOTH",
"611 35 OFFCURVE",
"665 33 OFFCURVE",
"673 33 CURVE",
"678 24 OFFCURVE",
"679 0 OFFCURVE",
"675 -4 CURVE",
"649 -3 OFFCURVE",
"622 0 OFFCURVE",
"593 2 CURVE",
"549 -24 OFFCURVE",
"491 -57 OFFCURVE",
"491 -101 CURVE SMOOTH",
"491 -122 OFFCURVE",
"503 -148 OFFCURVE",
"540 -148 CURVE SMOOTH",
"568 -148 OFFCURVE",
"605 -117 OFFCURVE",
"615 -109 CURVE",
"618 -109 OFFCURVE",
"621 -112 OFFCURVE",
"621 -120 CURVE SMOOTH",
"621 -125 OFFCURVE",
"617 -141 OFFCURVE",
"614 -145 CURVE SMOOTH",
"599 -164 OFFCURVE",
"547 -218 OFFCURVE",
"491 -218 CURVE SMOOTH",
"458 -218 OFFCURVE",
"417 -192 OFFCURVE",
"417 -140 CURVE SMOOTH",
"417 -84 OFFCURVE",
"490 -14 OFFCURVE",
"550 4 CURVE",
"548 4 OFFCURVE",
"547 4 OFFCURVE",
"545 4 CURVE SMOOTH",
"499 4 OFFCURVE",
"430 -2 OFFCURVE",
"394 -4 CURVE",
"389 1 OFFCURVE",
"389 33 OFFCURVE",
"394 33 CURVE SMOOTH",
"411 33 OFFCURVE",
"439 39 OFFCURVE",
"453 51 CURVE SMOOTH",
"459 56 OFFCURVE",
"462 61 OFFCURVE",
"462 68 CURVE SMOOTH",
"462 77 OFFCURVE",
"402 220 OFFCURVE",
"402 220 CURVE",
"402 220 OFFCURVE",
"398 224 OFFCURVE",
"395 224 CURVE SMOOTH",
"357 226 OFFCURVE",
"324 225 OFFCURVE"
);
},
{
closed = 1;
nodes = (
"295 273 CURVE SMOOTH",
"326 273 OFFCURVE",
"344 273 OFFCURVE",
"375 275 CURVE SMOOTH",
"377 275 OFFCURVE",
"378 280 OFFCURVE",
"378 280 CURVE",
"295 476 LINE",
"210 280 LINE",
"210 280 OFFCURVE",
"210 276 OFFCURVE",
"212 276 CURVE SMOOTH",
"232 274 OFFCURVE",
"272 273 OFFCURVE"
);
}
);
width = 671;
}
);
unicode = 0104;
userData = {
com.fontlab.hintData = {
hhints = (
{
position = -218;
width = 70;
},
{
position = -4;
width = 37;
},
{
position = 4;
width = 29;
},
{
position = 225;
width = 48;
},
{
position = 642;
width = 20;
}
);
vhints = (
{
position = 417;
width = 74;
}
);
};
};
},
{
glyphname = AE;
lastChange = "2017-07-12 19:24:33 +0000";
layers = (
{
layerId = "C3DEC2A7-F599-40A3-AE95-7DABCECAEB0F";
paths = (
{
closed = 1;
nodes = (
"409 275 CURVE",
"409 520 LINE",
"258 280 LINE",
"258 280 OFFCURVE",
"257 276 OFFCURVE",
"259 276 CURVE SMOOTH",
"279 274 OFFCURVE",
"312 273 OFFCURVE",
"335 273 CURVE SMOOTH",
"364 273 OFFCURVE",
"382 273 OFFCURVE"
);
},
{
closed = 1;
nodes = (
"480 657 CURVE SMOOTH",
"522 657 OFFCURVE",
"746 663 OFFCURVE",
"805 664 CURVE",
"812 614 OFFCURVE",
"825 561 OFFCURVE",
"834 516 CURVE",
"831 513 OFFCURVE",
"818 511 OFFCURVE",
"811 511 CURVE SMOOTH",
"804 511 OFFCURVE",
"797 514 OFFCURVE",
"795 519 CURVE SMOOTH",
"774 574 OFFCURVE",
"748 620 OFFCURVE",
"687 620 CURVE SMOOTH",
"604 620 LINE SMOOTH",
"581 620 OFFCURVE",
"559 619 OFFCURVE",
"554 608 CURVE SMOOTH",
"549 596 OFFCURVE",
"549 576 OFFCURVE",
"549 547 CURVE SMOOTH",
"549 368 LINE SMOOTH",
"549 362 OFFCURVE",
"570 357 OFFCURVE",
"592 357 CURVE SMOOTH",
"645 357 LINE SMOOTH",
"704 357 OFFCURVE",
"717 369 OFFCURVE",
"733 427 CURVE SMOOTH",
"734 432 OFFCURVE",
"738 435 OFFCURVE",
"745 435 CURVE SMOOTH",
"752 435 OFFCURVE",
"761 433 OFFCURVE",
"764 430 CURVE",
"764 238 LINE",
"762 236 OFFCURVE",
"753 234 OFFCURVE",
"746 234 CURVE SMOOTH",
"739 234 OFFCURVE",
"733 237 OFFCURVE",
"732 242 CURVE SMOOTH",
"720 290 OFFCURVE",
"706 299 OFFCURVE",
"697 303 CURVE SMOOTH",
"685 308 OFFCURVE",
"659 310 OFFCURVE",
"621 310 CURVE SMOOTH",
"593 310 OFFCURVE",
"549 308 OFFCURVE",
"549 296 CURVE SMOOTH",
"549 141 LINE SMOOTH",
"549 135 OFFCURVE",
"549 82 OFFCURVE",
"557 62 CURVE SMOOTH",
"563 48 OFFCURVE",
"596 42 OFFCURVE",
"622 42 CURVE SMOOTH",
"688 42 LINE SMOOTH",
"726 42 OFFCURVE",
"758 52 OFFCURVE",
"781 75 CURVE SMOOTH",
"802 96 OFFCURVE",
"818 125 OFFCURVE",
"835 170 CURVE SMOOTH",
"836 174 OFFCURVE",
"842 176 OFFCURVE",
"849 176 CURVE SMOOTH",
"859 176 OFFCURVE",
"876 173 OFFCURVE",
"879 170 CURVE",
"860 116 OFFCURVE",
"832 42 OFFCURVE",
"825 -2 CURVE",
"798 -2 OFFCURVE",
"619 -2 OFFCURVE",
"485 -2 CURVE SMOOTH",
"411 -2 OFFCURVE",
"351 -3 OFFCURVE",
"337 -3 CURVE",
"333 3 OFFCURVE",
"332 27 OFFCURVE",
"337 34 CURVE",
"350 35 OFFCURVE",
"396 38 OFFCURVE",
"401 51 CURVE SMOOTH",
"409 71 OFFCURVE",
"409 102 OFFCURVE",
"409 145 CURVE SMOOTH",
"409 225 LINE",
"378 226 OFFCURVE",
"351 225 OFFCURVE",
"330 225 CURVE SMOOTH",
"289 225 OFFCURVE",
"267 225 OFFCURVE",
"232 224 CURVE SMOOTH",
"229 224 OFFCURVE",
"225 221 OFFCURVE",
"224 219 CURVE SMOOTH",
"224 219 OFFCURVE",
"185 160 OFFCURVE",
"169 132 CURVE SMOOTH",
"154 107 OFFCURVE",
"136 73 OFFCURVE",
"135 66 CURVE SMOOTH",
"130 40 OFFCURVE",
"191 33 OFFCURVE",
"199 33 CURVE",
"204 26 OFFCURVE",
"204 0 OFFCURVE",
"200 -4 CURVE",
"166 0 OFFCURVE",
"133 4 OFFCURVE",
"89 4 CURVE SMOOTH",
"43 4 OFFCURVE",
"16 0 OFFCURVE",
"-20 -4 CURVE",
"-23 0 OFFCURVE",
"-25 21 OFFCURVE",
"-19 32 CURVE",
"-7 32 OFFCURVE",
"46 48 OFFCURVE",
"59 64 CURVE SMOOTH",
"82 92 OFFCURVE",
"91 106 OFFCURVE",
"108 134 CURVE SMOOTH",
"402 604 LINE SMOOTH",
"402 605 OFFCURVE",
"402 606 OFFCURVE",
"401 607 CURVE SMOOTH",
"394 621 OFFCURVE",
"350 622 OFFCURVE",
"337 623 CURVE",
"332 630 OFFCURVE",
"333 654 OFFCURVE",
"337 660 CURVE",
"382 657 OFFCURVE",
"438 657 OFFCURVE"
);
}
);
width = 901;
}
);
unicode = 00C6;
userData = {
com.fontlab.hintData = {
hhints = (
{
position = -4;
width = 37;
},
{
position = -2;
width = 44;
},
{
position = 4;
width = 28;
},
{
position = 225;
width = 48;
},
{
position = 310;
width = 47;
},
{
position = 620;
width = 37;
}
);
vhints = (
{
position = 409;
width = 140;
},
{
position = 733;
width = 31;
}
);
};
};
},
{
glyphname = B;
lastChange = "2017-07-12 19:24:33 +0000";
layers = (
{
layerId = "C3DEC2A7-F599-40A3-AE95-7DABCECAEB0F";
paths = (
{
closed = 1;
nodes = (
"250 332 LINE",
"250 109 LINE SMOOTH",
"250 103 OFFCURVE",
"250 63 OFFCURVE",
"258 51 CURVE SMOOTH",
"266 40 OFFCURVE",
"295 39 OFFCURVE",
"321 39 CURVE SMOOTH",
"367 39 OFFCURVE",
"427 73 OFFCURVE",
"427 176 CURVE SMOOTH",
"427 251 OFFCURVE",
"397 332 OFFCURVE",
"302 332 CURVE SMOOTH"
);
},
{
closed = 1;
nodes = (
"250 371 LINE",
"302 371 LINE SMOOTH",
"352 371 OFFCURVE",
"388 412 OFFCURVE",
"388 487 CURVE SMOOTH",
"388 582 OFFCURVE",
"356 620 OFFCURVE",
"305 620 CURVE SMOOTH",
"282 620 OFFCURVE",
"260 619 OFFCURVE",
"255 608 CURVE SMOOTH",
"250 596 OFFCURVE",
"250 576 OFFCURVE",
"250 547 CURVE SMOOTH"
);
},
{
closed = 1;
nodes = (
"334 660 CURVE SMOOTH",
"427 660 OFFCURVE",
"536 618 OFFCURVE",
"536 502 CURVE SMOOTH",
"536 422 OFFCURVE",
"455 376 OFFCURVE",
"428 366 CURVE SMOOTH",
"420 363 OFFCURVE",
"422 360 OFFCURVE",
"423 360 CURVE SMOOTH",
"473 354 OFFCURVE",
"584 296 OFFCURVE",
"584 192 CURVE SMOOTH",
"584 126 OFFCURVE",
"541 67 OFFCURVE",
"479 30 CURVE SMOOTH",
"420 -5 OFFCURVE",
"345 -4 OFFCURVE",
"271 -3 CURVE SMOOTH",
"229 -3 OFFCURVE",
"77 -2 OFFCURVE",
"38 -3 CURVE",
"34 3 OFFCURVE",
"33 27 OFFCURVE",
"38 34 CURVE",
"51 35 OFFCURVE",
"97 38 OFFCURVE",
"102 51 CURVE SMOOTH",
"110 71 OFFCURVE",
"110 102 OFFCURVE",
"110 145 CURVE SMOOTH",
"110 513 LINE SMOOTH",
"110 556 OFFCURVE",
"110 587 OFFCURVE",
"102 607 CURVE SMOOTH",
"97 620 OFFCURVE",
"51 622 OFFCURVE",
"38 623 CURVE",
"33 630 OFFCURVE",
"34 654 OFFCURVE",
"38 660 CURVE",
"83 657 OFFCURVE",
"139 657 OFFCURVE",
"181 657 CURVE SMOOTH",
"223 657 OFFCURVE",
"276 660 OFFCURVE"
);
}
);
width = 619;
}
);
unicode = 0042;
userData = {
com.fontlab.hintData = {
hhints = (
{
position = -3;
width = 42;
},
{
position = 332;
width = 39;
},
{
position = 620;
width = 40;
}
);
vhints = (
{
position = 110;
width = 140;
},
{
position = 388;
width = 148;
},
{
position = 427;
width = 157;
}
);
};
};
},
{
glyphname = C;
lastChange = "2017-07-12 19:24:33 +0000";
layers = (
{
layerId = "C3DEC2A7-F599-40A3-AE95-7DABCECAEB0F";
paths = (
{
closed = 1;
nodes = (
"386 667 CURVE SMOOTH",
"452 667 OFFCURVE",
"535 660 OFFCURVE",
"594 648 CURVE",
"596 637 OFFCURVE",
"628 509 OFFCURVE",
"628 497 CURVE SMOOTH",
"628 491 OFFCURVE",
"614 482 OFFCURVE",
"602 482 CURVE SMOOTH",
"597 482 OFFCURVE",
"592 482 OFFCURVE",
"588 486 CURVE",
"578 525 OFFCURVE",
"536 624 OFFCURVE",
"395 624 CURVE SMOOTH",
"254 624 OFFCURVE",
"200 492 OFFCURVE",
"200 352 CURVE SMOOTH",
"200 196 OFFCURVE",
"264 37 OFFCURVE",
"415 37 CURVE SMOOTH",
"475 37 OFFCURVE",
"512 55 OFFCURVE",
"539 80 CURVE SMOOTH",
"581 118 OFFCURVE",
"607 196 OFFCURVE",
"609 204 CURVE",
"624 204 OFFCURVE",
"636 199 OFFCURVE",
"644 192 CURVE",
"644 181 OFFCURVE",
"618 46 OFFCURVE",
"603 40 CURVE SMOOTH",
"540 17 OFFCURVE",
"476 -7 OFFCURVE",
"384 -7 CURVE SMOOTH",
"196 -7 OFFCURVE",
"40 133 OFFCURVE",
"40 322 CURVE SMOOTH",
"40 515 OFFCURVE",
"196 667 OFFCURVE"
);
}
);
width = 674;
}
);
unicode = 0043;
userData = {
com.fontlab.hintData = {
hhints = (
{
position = -7;
width = 44;
},
{
position = 624;
width = 43;
}
);
vhints = (
{
position = 40;
width = 160;
},
{
position = 609;
width = 35;
}
);
};
};
},
{
glyphname = D;
lastChange = "2017-07-12 19:24:33 +0000";
layers = (
{
layerId = "C3DEC2A7-F599-40A3-AE95-7DABCECAEB0F";
paths = (
{
closed = 1;
nodes = (
"250 547 CURVE SMOOTH",
"250 141 LINE SMOOTH",
"250 135 OFFCURVE",
"250 82 OFFCURVE",
"258 62 CURVE SMOOTH",
"264 48 OFFCURVE",
"295 39 OFFCURVE",
"321 39 CURVE SMOOTH",
"484 39 OFFCURVE",
"559 130 OFFCURVE",
"559 325 CURVE SMOOTH",
"559 521 OFFCURVE",
"453 620 OFFCURVE",
"305 620 CURVE SMOOTH",
"282 620 OFFCURVE",
"260 619 OFFCURVE",
"255 608 CURVE SMOOTH",
"250 596 OFFCURVE",
"250 576 OFFCURVE"
);
},
{
closed = 1;
nodes = (
"334 660 CURVE SMOOTH",
"565 660 OFFCURVE",
"718 541 OFFCURVE",
"718 336 CURVE SMOOTH",
"718 102 OFFCURVE",
"543 -3 OFFCURVE",
"327 -3 CURVE SMOOTH",
"285 -3 OFFCURVE",
"77 -2 OFFCURVE",
"38 -3 CURVE",
"34 3 OFFCURVE",
"33 27 OFFCURVE",
"38 34 CURVE",
"51 35 OFFCURVE",
"97 38 OFFCURVE",
"102 51 CURVE SMOOTH",
"110 71 OFFCURVE",
"110 102 OFFCURVE",
"110 145 CURVE SMOOTH",
"110 513 LINE SMOOTH",
"110 556 OFFCURVE",
"110 587 OFFCURVE",
"102 607 CURVE SMOOTH",
"97 620 OFFCURVE",
"51 622 OFFCURVE",
"38 623 CURVE",
"33 630 OFFCURVE",
"34 654 OFFCURVE",
"38 660 CURVE",
"83 657 OFFCURVE",
"139 657 OFFCURVE",
"181 657 CURVE SMOOTH",
"223 657 OFFCURVE",
"275 659 OFFCURVE"
);
}
);
width = 761;
}
);
unicode = 0044;
userData = {
com.fontlab.hintData = {
hhints = (
{
position = -3;
width = 42;
},
{
position = 620;
width = 40;
}
);
vhints = (
{
position = 110;
width = 140;
},
{
position = 559;
width = 159;
}
);
};
};
},
{
glyphname = Eth;
lastChange = "2017-07-12 19:24:33 +0000";
layers = (
{
components = (
{
name = D;
transform = "{1, 0, 0, 1, 4, 0}";
}
);
layerId = "C3DEC2A7-F599-40A3-AE95-7DABCECAEB0F";
paths = (
{
closed = 1;
nodes = (
"383 308 CURVE",
"354 308 OFFCURVE",
"47 308 OFFCURVE",
"33 308 CURVE",
"29 308 OFFCURVE",
"28 339 OFFCURVE",
"34 348 CURVE",
"63 348 OFFCURVE",
"369 348 OFFCURVE",
"383 348 CURVE",
"387 348 OFFCURVE",
"387 317 OFFCURVE"
);
}
);
width = 765;
}
);
unicode = 00D0;
userData = {
com.fontlab.hintData = {
hhints = (
{
position = -3;
width = 42;
},
{
position = 308;
width = 40;
},
{
position = 620;
width = 40;
}
);
vhints = (
{
position = 114;
width = 140;
},
{
position = 563;
width = 159;
}
);
};
};
},
{
glyphname = E;
lastChange = "2017-07-12 19:24:33 +0000";
layers = (
{
layerId = "C3DEC2A7-F599-40A3-AE95-7DABCECAEB0F";
paths = (
{
closed = 1;
nodes = (
"181 657 CURVE SMOOTH",
"223 657 OFFCURVE",
"447 663 OFFCURVE",
"506 664 CURVE",
"513 614 OFFCURVE",
"526 561 OFFCURVE",
"535 516 CURVE",
"532 513 OFFCURVE",
"519 511 OFFCURVE",
"512 511 CURVE SMOOTH",
"505 511 OFFCURVE",
"498 514 OFFCURVE",
"496 519 CURVE SMOOTH",
"475 574 OFFCURVE",
"449 620 OFFCURVE",
"388 620 CURVE SMOOTH",
"305 620 LINE SMOOTH",
"282 620 OFFCURVE",
"260 619 OFFCURVE",
"255 608 CURVE SMOOTH",
"250 596 OFFCURVE",
"250 576 OFFCURVE",
"250 547 CURVE SMOOTH",
"250 368 LINE SMOOTH",
"250 362 OFFCURVE",
"271 357 OFFCURVE",
"293 357 CURVE SMOOTH",
"346 357 LINE SMOOTH",
"405 357 OFFCURVE",
"418 369 OFFCURVE",
"434 427 CURVE SMOOTH",
"435 432 OFFCURVE",
"439 435 OFFCURVE",
"446 435 CURVE SMOOTH",
"453 435 OFFCURVE",
"462 433 OFFCURVE",
"465 430 CURVE",
"465 238 LINE",
"463 236 OFFCURVE",
"454 234 OFFCURVE",
"447 234 CURVE SMOOTH",
"440 234 OFFCURVE",
"434 237 OFFCURVE",
"433 242 CURVE SMOOTH",
"421 290 OFFCURVE",
"407 299 OFFCURVE",
"398 303 CURVE SMOOTH",
"386 308 OFFCURVE",
"360 310 OFFCURVE",
"322 310 CURVE SMOOTH",
"294 310 OFFCURVE",
"250 308 OFFCURVE",
"250 296 CURVE SMOOTH",
"250 141 LINE SMOOTH",
"250 135 OFFCURVE",
"250 82 OFFCURVE",
"258 62 CURVE SMOOTH",
"264 48 OFFCURVE",
"297 42 OFFCURVE",
"323 42 CURVE SMOOTH",
"389 42 LINE SMOOTH",
"427 42 OFFCURVE",
"459 52 OFFCURVE",
"482 75 CURVE SMOOTH",
"503 96 OFFCURVE",
"519 125 OFFCURVE",
"536 170 CURVE SMOOTH",
"537 174 OFFCURVE",
"543 176 OFFCURVE",
"550 176 CURVE SMOOTH",
"560 176 OFFCURVE",
"577 173 OFFCURVE",
"580 170 CURVE",
"561 116 OFFCURVE",
"533 42 OFFCURVE",
"526 -2 CURVE",
"484 -2 OFFCURVE",
"77 -2 OFFCURVE",
"38 -3 CURVE",
"34 3 OFFCURVE",
"33 27 OFFCURVE",
"38 34 CURVE",
"51 35 OFFCURVE",
"97 38 OFFCURVE",
"102 51 CURVE SMOOTH",
"110 71 OFFCURVE",
"110 102 OFFCURVE",
"110 145 CURVE SMOOTH",
"110 513 LINE SMOOTH",
"110 556 OFFCURVE",
"110 587 OFFCURVE",
"102 607 CURVE SMOOTH",
"97 620 OFFCURVE",
"51 622 OFFCURVE",
"38 623 CURVE",
"33 630 OFFCURVE",
"34 654 OFFCURVE",
"38 660 CURVE",
"83 657 OFFCURVE",
"139 657 OFFCURVE"
);
}
);
width = 602;
}
);
unicode = 0045;
userData = {
com.fontlab.hintData = {
hhints = (
{
position = -3;
width = 37;
},
{
position = -2;
width = 44;
},
{
position = 310;
width = 47;
},
{
position = 620;
width = 37;
}
);
vhints = (
{
position = 110;
width = 140;
},
{
position = 434;
width = 31;
}
);
};
};
},
{
glyphname = Eogonek;
lastChange = "2017-07-12 19:24:33 +0000";
layers = (
{
layerId = "C3DEC2A7-F599-40A3-AE95-7DABCECAEB0F";
paths = (
{
closed = 1;
nodes = (
"181 657 CURVE SMOOTH",
"223 657 OFFCURVE",
"447 663 OFFCURVE",
"506 664 CURVE",
"513 614 OFFCURVE",
"526 561 OFFCURVE",
"535 516 CURVE",
"532 513 OFFCURVE",
"519 511 OFFCURVE",
"512 511 CURVE SMOOTH",
"505 511 OFFCURVE",
"498 514 OFFCURVE",
"496 519 CURVE SMOOTH",
"475 574 OFFCURVE",
"449 620 OFFCURVE",
"388 620 CURVE SMOOTH",
"305 620 LINE SMOOTH",
"282 620 OFFCURVE",
"260 619 OFFCURVE",
"255 608 CURVE SMOOTH",
"250 596 OFFCURVE",
"250 576 OFFCURVE",
"250 547 CURVE SMOOTH",
"250 368 LINE SMOOTH",
"250 362 OFFCURVE",
"271 357 OFFCURVE",
"293 357 CURVE SMOOTH",
"346 357 LINE SMOOTH",
"405 357 OFFCURVE",
"418 369 OFFCURVE",
"434 427 CURVE SMOOTH",
"435 432 OFFCURVE",
"439 435 OFFCURVE",
"446 435 CURVE SMOOTH",
"453 435 OFFCURVE",
"462 433 OFFCURVE",
"465 430 CURVE",
"465 238 LINE",
"463 236 OFFCURVE",
"454 234 OFFCURVE",
"447 234 CURVE SMOOTH",
"440 234 OFFCURVE",
"434 237 OFFCURVE",
"433 242 CURVE SMOOTH",
"421 290 OFFCURVE",
"407 299 OFFCURVE",
"398 303 CURVE SMOOTH",
"386 308 OFFCURVE",
"360 310 OFFCURVE",
"322 310 CURVE SMOOTH",
"294 310 OFFCURVE",
"250 308 OFFCURVE",
"250 296 CURVE SMOOTH",
"250 141 LINE SMOOTH",
"250 135 OFFCURVE",
"250 82 OFFCURVE",
"258 62 CURVE SMOOTH",
"264 48 OFFCURVE",
"297 42 OFFCURVE",
"323 42 CURVE SMOOTH",
"389 42 LINE SMOOTH",
"427 42 OFFCURVE",
"459 52 OFFCURVE",
"482 75 CURVE SMOOTH",
"503 96 OFFCURVE",
"519 125 OFFCURVE",
"536 170 CURVE SMOOTH",
"537 174 OFFCURVE",
"543 176 OFFCURVE",
"550 176 CURVE SMOOTH",
"560 176 OFFCURVE",
"577 173 OFFCURVE",
"580 170 CURVE",
"561 116 OFFCURVE",
"533 42 OFFCURVE",
"526 -2 CURVE",
"478 -15 OFFCURVE",
"403 -57 OFFCURVE",
"403 -101 CURVE SMOOTH",
"403 -122 OFFCURVE",
"415 -148 OFFCURVE",
"452 -148 CURVE SMOOTH",
"480 -148 OFFCURVE",
"517 -117 OFFCURVE",
"527 -109 CURVE",
"530 -109 OFFCURVE",
"533 -112 OFFCURVE",
"533 -120 CURVE SMOOTH",
"533 -125 OFFCURVE",
"529 -141 OFFCURVE",
"526 -145 CURVE SMOOTH",
"511 -164 OFFCURVE",
"459 -218 OFFCURVE",
"403 -218 CURVE SMOOTH",
"370 -218 OFFCURVE",
"329 -192 OFFCURVE",
"329 -140 CURVE SMOOTH",
"329 -86 OFFCURVE",
"397 -23 OFFCURVE",
"456 -2 CURVE",
"380 -2 OFFCURVE",
"260 -2 OFFCURVE",
"167 -2 CURVE SMOOTH",
"102 -2 OFFCURVE",
"51 -3 OFFCURVE",
"38 -3 CURVE",
"34 3 OFFCURVE",
"33 27 OFFCURVE",
"38 34 CURVE",
"51 35 OFFCURVE",
"97 38 OFFCURVE",
"102 51 CURVE SMOOTH",
"110 71 OFFCURVE",
"110 102 OFFCURVE",
"110 145 CURVE SMOOTH",
"110 513 LINE SMOOTH",
"110 556 OFFCURVE",
"110 587 OFFCURVE",
"102 607 CURVE SMOOTH",
"97 620 OFFCURVE",
"51 622 OFFCURVE",
"38 623 CURVE",
"33 630 OFFCURVE",
"34 654 OFFCURVE",
"38 660 CURVE",
"83 657 OFFCURVE",
"139 657 OFFCURVE"
);
}
);
width = 602;
}
);
unicode = 0118;
userData = {
com.fontlab.hintData = {
hhints = (
{
position = -218;
width = 70;
},
{
position = -3;
width = 37;
},
{
position = -2;
width = 44;
},
{
position = 310;
width = 47;
},
{
position = 620;
width = 37;
}
);
vhints = (
{
position = 110;
width = 140;
},
{
position = 329;
width = 74;
},
{
position = 434;
width = 31;
}
);
};
};
},
{
glyphname = F;
lastChange = "2017-07-12 19:24:33 +0000";
layers = (
{
layerId = "C3DEC2A7-F599-40A3-AE95-7DABCECAEB0F";
paths = (
{
closed = 1;
nodes = (
"181 657 CURVE SMOOTH",
"223 657 OFFCURVE",
"447 663 OFFCURVE",
"506 664 CURVE",
"513 614 OFFCURVE",
"526 561 OFFCURVE",
"535 516 CURVE",
"532 513 OFFCURVE",
"519 511 OFFCURVE",
"512 511 CURVE SMOOTH",
"505 511 OFFCURVE",
"498 514 OFFCURVE",
"496 519 CURVE SMOOTH",
"475 574 OFFCURVE",
"449 620 OFFCURVE",
"388 620 CURVE SMOOTH",
"305 620 LINE SMOOTH",
"282 620 OFFCURVE",
"260 619 OFFCURVE",
"255 608 CURVE SMOOTH",
"250 596 OFFCURVE",
"250 576 OFFCURVE",
"250 547 CURVE SMOOTH",
"250 364 LINE SMOOTH",
"250 358 OFFCURVE",
"271 353 OFFCURVE",
"293 353 CURVE SMOOTH",
"346 353 LINE SMOOTH",
"405 353 OFFCURVE",
"418 365 OFFCURVE",
"434 423 CURVE SMOOTH",
"435 428 OFFCURVE",
"439 431 OFFCURVE",
"446 431 CURVE SMOOTH",
"453 431 OFFCURVE",
"462 429 OFFCURVE",
"465 426 CURVE",
"465 234 LINE",
"463 232 OFFCURVE",
"454 230 OFFCURVE",
"447 230 CURVE SMOOTH",
"440 230 OFFCURVE",
"434 233 OFFCURVE",
"433 238 CURVE SMOOTH",
"421 286 OFFCURVE",
"407 295 OFFCURVE",
"398 299 CURVE SMOOTH",
"386 304 OFFCURVE",
"360 306 OFFCURVE",
"322 306 CURVE SMOOTH",
"294 306 OFFCURVE",
"250 304 OFFCURVE",
"250 292 CURVE SMOOTH",
"250 145 LINE SMOOTH",
"250 102 OFFCURVE",
"250 71 OFFCURVE",
"258 51 CURVE SMOOTH",
"263 38 OFFCURVE",
"318 34 OFFCURVE",
"331 33 CURVE",
"336 26 OFFCURVE",
"335 2 OFFCURVE",
"331 -4 CURVE",
"292 0 OFFCURVE",
"221 3 OFFCURVE",
"179 3 CURVE SMOOTH",
"137 3 OFFCURVE",
"77 0 OFFCURVE",
"38 -4 CURVE",
"34 2 OFFCURVE",
"33 26 OFFCURVE",
"38 33 CURVE",
"51 34 OFFCURVE",
"97 38 OFFCURVE",
"102 51 CURVE SMOOTH",
"110 71 OFFCURVE",
"110 102 OFFCURVE",
"110 145 CURVE SMOOTH",
"110 513 LINE SMOOTH",
"110 556 OFFCURVE",
"110 587 OFFCURVE",
"102 607 CURVE SMOOTH",
"97 620 OFFCURVE",
"51 622 OFFCURVE",
"38 623 CURVE",
"33 630 OFFCURVE",
"34 654 OFFCURVE",
"38 660 CURVE",
"83 657 OFFCURVE",
"139 657 OFFCURVE"
);
}
);
width = 549;
}
);
unicode = 0046;
userData = {
com.fontlab.hintData = {
hhints = (
{
position = -4;
width = 37;
},
{
position = 306;
width = 47;
},
{
position = 620;
width = 37;
}
);
vhints = (
{
position = 110;
width = 140;
},
{
position = 434;
width = 31;
}
);
};
};
},
{
glyphname = G;
lastChange = "2017-07-12 19:24:33 +0000";
layers = (
{
layerId = "C3DEC2A7-F599-40A3-AE95-7DABCECAEB0F";
paths = (
{
closed = 1;
nodes = (
"499 183 CURVE SMOOTH",
"499 203 OFFCURVE",
"500 212 OFFCURVE",
"494 234 CURVE SMOOTH",
"487 259 OFFCURVE",
"440 261 OFFCURVE",
"428 261 CURVE SMOOTH",
"423 261 OFFCURVE",
"422 293 OFFCURVE",
"427 298 CURVE",
"478 296 OFFCURVE",
"529 292 OFFCURVE",
"580 292 CURVE SMOOTH",
"622 292 OFFCURVE",
"663 296 OFFCURVE",
"703 298 CURVE",
"707 285 OFFCURVE",
"705 261 OFFCURVE",
"702 261 CURVE",
"694 261 OFFCURVE",
"660 255 OFFCURVE",
"649 248 CURVE SMOOTH",
"643 244 OFFCURVE",
"637 224 OFFCURVE",
"637 205 CURVE SMOOTH",
"637 168 OFFCURVE",
"637 132 OFFCURVE",
"637 98 CURVE SMOOTH",
"637 89 OFFCURVE",
"643 74 OFFCURVE",
"643 69 CURVE SMOOTH",
"643 58 OFFCURVE",
"621 48 OFFCURVE",
"608 43 CURVE SMOOTH",
"545 19 OFFCURVE",
"476 -7 OFFCURVE",
"384 -7 CURVE SMOOTH",
"195 -7 OFFCURVE",
"40 133 OFFCURVE",
"40 322 CURVE SMOOTH",
"40 509 OFFCURVE",
"196 667 OFFCURVE",
"386 667 CURVE SMOOTH",
"452 667 OFFCURVE",
"535 660 OFFCURVE",
"594 648 CURVE",
"596 637 OFFCURVE",
"628 509 OFFCURVE",
"628 497 CURVE SMOOTH",
"628 491 OFFCURVE",
"614 482 OFFCURVE",
"602 482 CURVE SMOOTH",
"597 482 OFFCURVE",
"592 482 OFFCURVE",
"588 486 CURVE",
"578 525 OFFCURVE",
"538 624 OFFCURVE",
"397 624 CURVE SMOOTH",
"249 624 OFFCURVE",
"200 487 OFFCURVE",
"200 347 CURVE SMOOTH",
"200 191 OFFCURVE",
"271 36 OFFCURVE",
"412 36 CURVE SMOOTH",
"450 36 OFFCURVE",
"472 44 OFFCURVE",
"490 52 CURVE SMOOTH",
"494 54 OFFCURVE",
"499 58 OFFCURVE",
"499 67 CURVE SMOOTH",
"499 82 OFFCURVE",
"499 135 OFFCURVE"
);
}
);
width = 722;
}
);
unicode = 0047;
userData = {
com.fontlab.hintData = {
hhints = (
{
position = -7;
width = 43;
},
{
position = 261;
width = 37;
},
{
position = 624;
width = 43;
}
);
vhints = (
{
position = 40;
width = 160;
},
{
position = 499;
width = 138;
}
);
};
};
},
{
glyphname = H;
lastChange = "2017-07-12 19:24:33 +0000";
layers = (
{
layerId = "C3DEC2A7-F599-40A3-AE95-7DABCECAEB0F";
paths = (
{
closed = 1;
nodes = (
"181 655 CURVE SMOOTH",
"223 655 OFFCURVE",
"283 658 OFFCURVE",
"322 662 CURVE",
"326 656 OFFCURVE",
"327 632 OFFCURVE",
"322 625 CURVE",
"309 624 OFFCURVE",
"263 620 OFFCURVE",
"258 607 CURVE SMOOTH",
"250 587 OFFCURVE",
"250 556 OFFCURVE",
"250 513 CURVE SMOOTH",
"250 371 LINE",
"250 369 OFFCURVE",
"252 368 OFFCURVE",
"252 368 CURVE",
"291 367 OFFCURVE",
"328 365 OFFCURVE",
"373 365 CURVE SMOOTH",
"410 365 OFFCURVE",
"454 367 OFFCURVE",
"490 368 CURVE",
"490 368 OFFCURVE",
"492 370 OFFCURVE",
"492 372 CURVE SMOOTH",
"491 513 LINE SMOOTH",
"491 556 OFFCURVE",
"491 587 OFFCURVE",
"483 607 CURVE SMOOTH",
"478 620 OFFCURVE",
"432 624 OFFCURVE",
"419 625 CURVE",
"414 632 OFFCURVE",
"415 656 OFFCURVE",
"419 662 CURVE",
"458 658 OFFCURVE",
"520 655 OFFCURVE",
"562 655 CURVE SMOOTH",
"604 655 OFFCURVE",
"664 658 OFFCURVE",
"703 662 CURVE",
"707 656 OFFCURVE",
"708 632 OFFCURVE",
"703 625 CURVE",
"690 624 OFFCURVE",
"644 620 OFFCURVE",
"639 607 CURVE SMOOTH",
"631 587 OFFCURVE",
"631 556 OFFCURVE",
"631 513 CURVE SMOOTH",
"631 145 LINE SMOOTH",
"631 102 OFFCURVE",
"631 71 OFFCURVE",
"639 51 CURVE SMOOTH",
"644 38 OFFCURVE",
"690 34 OFFCURVE",
"703 33 CURVE",
"708 26 OFFCURVE",
"707 2 OFFCURVE",
"703 -4 CURVE",
"664 0 OFFCURVE",
"602 3 OFFCURVE",
"560 3 CURVE SMOOTH",
"518 3 OFFCURVE",
"458 0 OFFCURVE",
"419 -4 CURVE",
"415 2 OFFCURVE",
"414 26 OFFCURVE",
"419 33 CURVE",
"432 34 OFFCURVE",
"478 38 OFFCURVE",
"483 51 CURVE SMOOTH",
"491 71 OFFCURVE",
"491 102 OFFCURVE",
"491 145 CURVE SMOOTH",
"491 310 LINE SMOOTH",
"491 312 OFFCURVE",
"489 315 OFFCURVE",
"489 315 CURVE",
"452 316 OFFCURVE",
"414 317 OFFCURVE",
"373 317 CURVE SMOOTH",
"262 317 OFFCURVE",
"254 315 OFFCURVE",
"251 313 CURVE",
"250 312 OFFCURVE",
"250 309 OFFCURVE",
"250 309 CURVE",
"250 145 LINE SMOOTH",
"250 102 OFFCURVE",
"250 71 OFFCURVE",
"258 51 CURVE SMOOTH",
"263 38 OFFCURVE",
"309 34 OFFCURVE",
"322 33 CURVE",
"327 26 OFFCURVE",
"326 2 OFFCURVE",
"322 -4 CURVE",
"283 0 OFFCURVE",
"221 3 OFFCURVE",
"179 3 CURVE SMOOTH",
"137 3 OFFCURVE",
"77 0 OFFCURVE",
"38 -4 CURVE",
"34 2 OFFCURVE",
"33 26 OFFCURVE",
"38 33 CURVE",
"51 34 OFFCURVE",
"97 38 OFFCURVE",
"102 51 CURVE SMOOTH",
"110 71 OFFCURVE",
"110 102 OFFCURVE",
"110 145 CURVE SMOOTH",
"110 513 LINE SMOOTH",
"110 556 OFFCURVE",
"110 587 OFFCURVE",
"102 607 CURVE SMOOTH",
"97 620 OFFCURVE",
"51 624 OFFCURVE",
"38 625 CURVE",
"33 632 OFFCURVE",
"34 656 OFFCURVE",
"38 662 CURVE",
"77 658 OFFCURVE",
"139 655 OFFCURVE"
);
}
);
width = 741;
}
);
unicode = 0048;
userData = {
com.fontlab.hintData = {
hhints = (
{
position = -4;
width = 37;
},
{
position = 317;
width = 51;
},
{
position = 625;
width = 37;
}
);
vhints = (
{
position = 110;
width = 140;
},
{
position = 491;
width = 140;
}
);
};
};
},
{
glyphname = Hbar;
lastChange = "2017-07-12 19:24:33 +0000";
layers = (
{
components = (
{
name = H;
}
);
layerId = "C3DEC2A7-F599-40A3-AE95-7DABCECAEB0F";
paths = (
{
closed = 1;
nodes = (
"685 535 LINE SMOOTH",
"689 535 OFFCURVE",
"691 526 OFFCURVE",
"691 521 CURVE SMOOTH",
"691 515 OFFCURVE",
"689 498 OFFCURVE",
"685 489 CURVE",
"42 489 LINE SMOOTH",
"38 489 OFFCURVE",
"37 499 OFFCURVE",
"37 504 CURVE SMOOTH",
"37 510 OFFCURVE",
"37 526 OFFCURVE",
"43 535 CURVE"
);
}
);
width = 741;
}
);
unicode = 0126;
userData = {
com.fontlab.hintData = {
hhints = (
{
position = -4;
width = 37;
},
{
position = 317;
width = 51;
},
{
position = 489;
width = 46;
},
{
position = 625;
width = 37;
}
);
vhints = (
{
position = 110;
width = 140;
},
{
position = 491;
width = 140;
}
);
};
};
},
{
glyphname = I;
lastChange = "2017-07-12 19:24:33 +0000";
layers = (
{
layerId = "C3DEC2A7-F599-40A3-AE95-7DABCECAEB0F";
paths = (
{
closed = 1;
nodes = (
"181 655 CURVE SMOOTH",
"223 655 OFFCURVE",
"283 658 OFFCURVE",
"322 662 CURVE",
"326 656 OFFCURVE",
"327 632 OFFCURVE",
"322 625 CURVE",
"309 624 OFFCURVE",
"263 620 OFFCURVE",
"258 607 CURVE SMOOTH",
"250 587 OFFCURVE",
"250 556 OFFCURVE",
"250 513 CURVE SMOOTH",
"250 145 LINE SMOOTH",
"250 102 OFFCURVE",
"250 71 OFFCURVE",
"258 51 CURVE SMOOTH",
"263 38 OFFCURVE",
"309 34 OFFCURVE",
"322 33 CURVE",
"327 26 OFFCURVE",
"326 2 OFFCURVE",
"322 -4 CURVE",
"283 0 OFFCURVE",
"221 3 OFFCURVE",
"179 3 CURVE SMOOTH",
"137 3 OFFCURVE",
"77 0 OFFCURVE",
"38 -4 CURVE",
"34 2 OFFCURVE",
"33 26 OFFCURVE",
"38 33 CURVE",
"51 34 OFFCURVE",
"97 38 OFFCURVE",
"102 51 CURVE SMOOTH",
"110 71 OFFCURVE",
"110 102 OFFCURVE",
"110 145 CURVE SMOOTH",
"110 513 LINE SMOOTH",
"110 556 OFFCURVE",
"110 587 OFFCURVE",
"102 607 CURVE SMOOTH",
"97 620 OFFCURVE",
"51 624 OFFCURVE",
"38 625 CURVE",
"33 632 OFFCURVE",
"34 656 OFFCURVE",
"38 662 CURVE",
"77 658 OFFCURVE",
"139 655 OFFCURVE"
);
}
);
width = 360;
}
);
unicode = 0049;
userData = {
com.fontlab.hintData = {
hhints = (
{
position = -4;
width = 37;
},
{
position = 625;
width = 37;
}
);
vhints = (
{
position = 110;
width = 140;
}
);
};
};
},
{
glyphname = Iogonek;
lastChange = "2017-07-12 19:24:33 +0000";
layers = (
{
layerId = "C3DEC2A7-F599-40A3-AE95-7DABCECAEB0F";
paths = (
{
closed = 1;
nodes = (
"181 655 CURVE SMOOTH",
"223 655 OFFCURVE",
"283 658 OFFCURVE",
"322 662 CURVE",
"326 656 OFFCURVE",
"327 632 OFFCURVE",
"322 625 CURVE",
"309 624 OFFCURVE",
"263 620 OFFCURVE",
"258 607 CURVE SMOOTH",
"250 587 OFFCURVE",
"250 556 OFFCURVE",
"250 513 CURVE SMOOTH",
"250 145 LINE SMOOTH",
"250 102 OFFCURVE",
"250 71 OFFCURVE",
"258 51 CURVE SMOOTH",
"263 38 OFFCURVE",
"309 34 OFFCURVE",
"322 33 CURVE",
"327 26 OFFCURVE",
"326 2 OFFCURVE",
"322 -4 CURVE",
"301 -2 OFFCURVE",
"274 0 OFFCURVE",
"246 1 CURVE",
"203 -25 OFFCURVE",
"146 -58 OFFCURVE",
"146 -101 CURVE SMOOTH",
"146 -122 OFFCURVE",
"158 -148 OFFCURVE",
"195 -148 CURVE SMOOTH",
"223 -148 OFFCURVE",
"260 -117 OFFCURVE",
"270 -109 CURVE",
"273 -109 OFFCURVE",
"276 -112 OFFCURVE",
"276 -120 CURVE SMOOTH",
"276 -125 OFFCURVE",
"272 -141 OFFCURVE",
"269 -145 CURVE SMOOTH",
"254 -164 OFFCURVE",
"202 -218 OFFCURVE",
"146 -218 CURVE SMOOTH",
"113 -218 OFFCURVE",
"72 -192 OFFCURVE",
"72 -140 CURVE SMOOTH",
"72 -85 OFFCURVE",
"142 -17 OFFCURVE",
"201 3 CURVE",
"193 3 OFFCURVE",
"186 3 OFFCURVE",
"179 3 CURVE SMOOTH",
"137 3 OFFCURVE",
"77 0 OFFCURVE",
"38 -4 CURVE",
"34 2 OFFCURVE",
"33 26 OFFCURVE",
"38 33 CURVE",
"51 34 OFFCURVE",
"97 38 OFFCURVE",
"102 51 CURVE SMOOTH",
"110 71 OFFCURVE",
"110 102 OFFCURVE",
"110 145 CURVE SMOOTH",
"110 513 LINE SMOOTH",
"110 556 OFFCURVE",
"110 587 OFFCURVE",
"102 607 CURVE SMOOTH",
"97 620 OFFCURVE",
"51 624 OFFCURVE",
"38 625 CURVE",
"33 632 OFFCURVE",
"34 656 OFFCURVE",
"38 662 CURVE",
"77 658 OFFCURVE",
"139 655 OFFCURVE"
);
}
);
width = 360;
}
);
unicode = 012E;
userData = {
com.fontlab.hintData = {
hhints = (
{
position = -218;
width = 70;
},
{
position = -4;
width = 37;
},
{
position = 625;
width = 37;
}
);
vhints = (
{
position = 72;
width = 74;
},
{
position = 110;
width = 140;
}
);
};
};
},
{
glyphname = J;
lastChange = "2017-07-12 19:24:33 +0000";
layers = (
{
layerId = "C3DEC2A7-F599-40A3-AE95-7DABCECAEB0F";
paths = (
{
closed = 1;
nodes = (
"175 655 CURVE SMOOTH",
"217 655 OFFCURVE",
"277 658 OFFCURVE",
"316 662 CURVE",
"320 656 OFFCURVE",
"321 632 OFFCURVE",
"316 625 CURVE",
"303 624 OFFCURVE",
"257 620 OFFCURVE",
"252 607 CURVE SMOOTH",
"244 587 OFFCURVE",
"244 556 OFFCURVE",
"244 513 CURVE SMOOTH",
"244 143 LINE SMOOTH",
"244 -85 OFFCURVE",
"130 -218 OFFCURVE",
"-52 -218 CURVE SMOOTH",
"-71 -218 OFFCURVE",
"-100 -207 OFFCURVE",
"-109 -200 CURVE",
"-116 -189 OFFCURVE",
"-125 -178 OFFCURVE",
"-125 -157 CURVE SMOOTH",
"-125 -123 OFFCURVE",
"-97 -90 OFFCURVE",
"-65 -90 CURVE SMOOTH",
"-43 -90 OFFCURVE",
"-24 -106 OFFCURVE",
"-8 -123 CURVE SMOOTH",
"9 -140 OFFCURVE",
"23 -157 OFFCURVE",
"39 -157 CURVE SMOOTH",
"102 -157 OFFCURVE",
"104 -31 OFFCURVE",
"104 135 CURVE SMOOTH",
"104 513 LINE SMOOTH",
"104 556 OFFCURVE",
"104 587 OFFCURVE",
"96 607 CURVE SMOOTH",
"91 620 OFFCURVE",
"45 624 OFFCURVE",
"32 625 CURVE",
"27 632 OFFCURVE",
"28 656 OFFCURVE",
"32 662 CURVE",
"71 658 OFFCURVE",
"133 655 OFFCURVE"
);
}
);
width = 345;
}
);
unicode = 004A;
userData = {
com.fontlab.hintData = {
hhints = (
{
position = -218;
width = 61;
},
{
position = 625;
width = 37;
}
);
vhints = (
{
position = 104;
width = 140;
}
);
};
};
},
{
glyphname = K;
lastChange = "2017-07-12 19:24:33 +0000";
layers = (
{
layerId = "C3DEC2A7-F599-40A3-AE95-7DABCECAEB0F";
paths = (
{
closed = 1;
nodes = (
"181 655 CURVE SMOOTH",
"223 655 OFFCURVE",
"283 658 OFFCURVE",
"322 662 CURVE",
"326 656 OFFCURVE",
"327 632 OFFCURVE",
"322 625 CURVE",
"309 624 OFFCURVE",
"263 620 OFFCURVE",
"258 607 CURVE SMOOTH",
"250 587 OFFCURVE",
"250 556 OFFCURVE",
"250 513 CURVE SMOOTH",
"250 337 LINE",
"294 372 OFFCURVE",
"330 403 OFFCURVE",
"354 428 CURVE SMOOTH",
"414 489 OFFCURVE",
"442 514 OFFCURVE",
"484 570 CURVE SMOOTH",
"494 583 OFFCURVE",
"494 596 OFFCURVE",
"494 603 CURVE SMOOTH",
"494 624 OFFCURVE",
"452 626 OFFCURVE",
"438 626 CURVE",
"433 634 OFFCURVE",
"433 653 OFFCURVE",
"436 662 CURVE",
"473 660 OFFCURVE",
"529 655 OFFCURVE",
"566 655 CURVE SMOOTH",
"610 655 OFFCURVE",
"653 658 OFFCURVE",
"690 662 CURVE",
"693 655 OFFCURVE",
"693 633 OFFCURVE",
"688 627 CURVE",
"679 626 OFFCURVE",
"611 619 OFFCURVE",
"575 583 CURVE SMOOTH",
"575 583 OFFCURVE",
"462 468 OFFCURVE",
"387 389 CURVE SMOOTH",
"381 382 OFFCURVE",
"381 378 OFFCURVE",
"384 373 CURVE SMOOTH",
"457 275 OFFCURVE",
"564 130 OFFCURVE",
"564 130 CURVE",
"638 36 OFFCURVE",
"722 33 OFFCURVE",
"730 33 CURVE",
"735 26 OFFCURVE",
"731 -2 OFFCURVE",
"730 -4 CURVE",
"701 -6 OFFCURVE",
"640 -8 OFFCURVE",
"599 -8 CURVE SMOOTH",
"522 -8 OFFCURVE",
"471 33 OFFCURVE",
"446 67 CURVE SMOOTH",
"420 103 OFFCURVE",
"314 243 OFFCURVE",
"270 302 CURVE SMOOTH",
"267 305 OFFCURVE",
"262 306 OFFCURVE",
"260 306 CURVE SMOOTH",
"256 306 OFFCURVE",
"252 304 OFFCURVE",
"250 300 CURVE",
"250 145 LINE SMOOTH",
"250 102 OFFCURVE",
"250 71 OFFCURVE",
"258 51 CURVE SMOOTH",
"263 38 OFFCURVE",
"309 34 OFFCURVE",
"322 33 CURVE",
"327 26 OFFCURVE",
"326 2 OFFCURVE",
"322 -4 CURVE",
"283 0 OFFCURVE",
"221 3 OFFCURVE",
"179 3 CURVE SMOOTH",
"137 3 OFFCURVE",
"77 0 OFFCURVE",
"38 -4 CURVE",
"34 2 OFFCURVE",
"33 26 OFFCURVE",
"38 33 CURVE",
"51 34 OFFCURVE",
"97 38 OFFCURVE",
"102 51 CURVE SMOOTH",
"110 71 OFFCURVE",
"110 102 OFFCURVE",
"110 145 CURVE SMOOTH",
"110 513 LINE SMOOTH",
"110 556 OFFCURVE",
"110 587 OFFCURVE",
"102 607 CURVE SMOOTH",
"97 620 OFFCURVE",
"51 624 OFFCURVE",
"38 625 CURVE",
"33 632 OFFCURVE",
"34 656 OFFCURVE",
"38 662 CURVE",
"77 658 OFFCURVE",
"139 655 OFFCURVE"
);
}
);
width = 719;
}
);
unicode = 004B;
userData = {
com.fontlab.hintData = {
hhints = (
{
position = -4;
width = 37;
},
{
position = 583;
width = 72;
},
{
position = 625;
width = 37;
}
);
vhints = (
{
position = 110;
width = 140;
}
);
};
};
},
{
glyphname = L;
lastChange = "2017-07-12 19:24:33 +0000";
layers = (
{
layerId = "C3DEC2A7-F599-40A3-AE95-7DABCECAEB0F";
paths = (
{
closed = 1;
nodes = (
"250 141 LINE SMOOTH",
"250 135 OFFCURVE",
"250 82 OFFCURVE",
"258 62 CURVE SMOOTH",
"264 48 OFFCURVE",
"297 42 OFFCURVE",
"323 42 CURVE SMOOTH",
"389 42 LINE SMOOTH",
"427 42 OFFCURVE",
"459 52 OFFCURVE",
"482 75 CURVE SMOOTH",
"503 96 OFFCURVE",
"519 125 OFFCURVE",
"536 170 CURVE SMOOTH",
"537 174 OFFCURVE",
"543 176 OFFCURVE",
"550 176 CURVE SMOOTH",
"560 176 OFFCURVE",
"577 173 OFFCURVE",
"580 170 CURVE",
"561 116 OFFCURVE",
"533 42 OFFCURVE",
"526 -2 CURVE",
"499 -2 OFFCURVE",
"316 -2 OFFCURVE",
"181 -2 CURVE SMOOTH",
"110 -2 OFFCURVE",
"52 -3 OFFCURVE",
"38 -3 CURVE",
"34 3 OFFCURVE",
"33 27 OFFCURVE",
"38 34 CURVE",
"51 35 OFFCURVE",
"97 38 OFFCURVE",
"102 51 CURVE SMOOTH",
"110 71 OFFCURVE",
"110 102 OFFCURVE",
"110 145 CURVE SMOOTH",
"110 513 LINE SMOOTH",
"110 556 OFFCURVE",
"110 587 OFFCURVE",
"102 607 CURVE SMOOTH",
"97 620 OFFCURVE",
"51 624 OFFCURVE",
"38 625 CURVE",
"33 632 OFFCURVE",
"34 656 OFFCURVE",
"38 662 CURVE",
"77 658 OFFCURVE",
"139 655 OFFCURVE",
"181 655 CURVE SMOOTH",
"223 655 OFFCURVE",
"283 658 OFFCURVE",
"322 662 CURVE",
"326 656 OFFCURVE",
"327 632 OFFCURVE",
"322 625 CURVE",
"309 624 OFFCURVE",
"263 620 OFFCURVE",
"258 607 CURVE SMOOTH",
"250 587 OFFCURVE",
"250 556 OFFCURVE",
"250 513 CURVE SMOOTH"
);
}
);
width = 579;
}
);
unicode = 004C;
userData = {
com.fontlab.hintData = {
hhints = (
{
position = -3;
width = 37;
},
{
position = -2;
width = 44;
},
{
position = 625;
width = 37;
}
);
vhints = (
{
position = 110;
width = 140;
}
);
};
};
},
{
glyphname = Lslash;
lastChange = "2017-07-12 19:24:33 +0000";
layers = (
{
components = (
{
name = L;
transform = "{1, 0, 0, 1, 5, 0}";
}
);
layerId = "C3DEC2A7-F599-40A3-AE95-7DABCECAEB0F";
paths = (
{
closed = 1;
nodes = (
"15 187 LINE SMOOTH",
"10 183 OFFCURVE",
"10 237 OFFCURVE",
"15 242 CURVE SMOOTH",
"148 329.544 LINE",
"191 346.848 LINE",
"410 491 LINE SMOOTH",
"416 495 OFFCURVE",
"415 440 OFFCURVE",
"410 436 CURVE SMOOTH",
"202 296.089 LINE",
"164 283.076 LINE"
);
}
);
width = 584;
}
);
unicode = 0141;
userData = {
com.fontlab.hintData = {
hhints = (
{
position = 210;
width = 69;
}
);
vhints = (
{
position = 56;
width = 263;
}
);
};
};
},
{
glyphname = M;
lastChange = "2017-07-12 19:24:33 +0000";
layers = (
{
layerId = "C3DEC2A7-F599-40A3-AE95-7DABCECAEB0F";
paths = (
{
closed = 1;
nodes = (
"171 656 CURVE SMOOTH",
"205 656 OFFCURVE",
"236 660 OFFCURVE",
"276 662 CURVE",
"305 598 OFFCURVE",
"390 408 OFFCURVE",
"465 238 CURVE",
"465 238 OFFCURVE",
"468 236 OFFCURVE",
"469 236 CURVE SMOOTH",
"470 236 OFFCURVE",
"473 241 OFFCURVE",
"473 242 CURVE SMOOTH",
"473 242 OFFCURVE",
"548 426 OFFCURVE",
"591 546 CURVE SMOOTH",
"607 589 OFFCURVE",
"624 658 OFFCURVE",
"624 658 CURVE",
"633 657 OFFCURVE",
"713 655 OFFCURVE",
"732 655 CURVE SMOOTH",
"766 655 OFFCURVE",
"809 660 OFFCURVE",
"849 662 CURVE",
"853 658 OFFCURVE",
"858 632 OFFCURVE",
"853 624 CURVE",
"845 624 OFFCURVE",
"811 620 OFFCURVE",
"801 613 CURVE SMOOTH",
"791 606 OFFCURVE",
"786 599 OFFCURVE",
"787 572 CURVE SMOOTH",
"790 502 OFFCURVE",
"796 280 OFFCURVE",
"802 152 CURVE SMOOTH",
"804 113 OFFCURVE",
"805 77 OFFCURVE",
"815 51 CURVE SMOOTH",
"821 37 OFFCURVE",
"870 33 OFFCURVE",
"878 33 CURVE",
"882 24 OFFCURVE",
"883 6 OFFCURVE",
"880 -4 CURVE",
"840 -2 OFFCURVE",
"788 4 OFFCURVE",
"744 4 CURVE SMOOTH",
"698 4 OFFCURVE",
"633 -2 OFFCURVE",
"587 -4 CURVE",
"583 0 OFFCURVE",
"582 25 OFFCURVE",
"585 33 CURVE",
"597 33 OFFCURVE",
"646 38 OFFCURVE",
"655 52 CURVE SMOOTH",
"660 60 OFFCURVE",
"663 77 OFFCURVE",
"663 87 CURVE SMOOTH",
"663 97 OFFCURVE",
"663 130 OFFCURVE",
"662 148 CURVE SMOOTH",
"652 497 LINE SMOOTH",
"652 500 OFFCURVE",
"652 523 OFFCURVE",
"645 523 CURVE SMOOTH",
"643 523 OFFCURVE",
"642 521 OFFCURVE",
"640 516 CURVE SMOOTH",
"464 40 LINE SMOOTH",
"461 31 OFFCURVE",
"439 -2 OFFCURVE",
"421 -2 CURVE SMOOTH",
"418 -2 OFFCURVE",
"415 -1 OFFCURVE",
"412 0 CURVE",
"189 523 LINE",
"182 315 OFFCURVE",
"182 291 OFFCURVE",
"176 134 CURVE SMOOTH",
"175 112 OFFCURVE",
"178 72 OFFCURVE",
"180 65 CURVE SMOOTH",
"186 44 OFFCURVE",
"259 33 OFFCURVE",
"267 33 CURVE",
"270 26 OFFCURVE",
"272 6 OFFCURVE",
"269 -4 CURVE",
"229 -2 OFFCURVE",
"189 4 OFFCURVE",
"145 4 CURVE SMOOTH",
"99 4 OFFCURVE",
"66 -2 OFFCURVE",
"20 -4 CURVE",
"16 3 OFFCURVE",
"16 22 OFFCURVE",
"19 32 CURVE",
"31 32 OFFCURVE",
"93 42 OFFCURVE",
"104 68 CURVE SMOOTH",
"108 78 OFFCURVE",
"115 140 OFFCURVE",
"116 156 CURVE SMOOTH",
"122 273 OFFCURVE",
"131 534 OFFCURVE",
"133 581 CURVE SMOOTH",
"133 588 OFFCURVE",
"133 596 OFFCURVE",
"128 603 CURVE SMOOTH",
"120 614 OFFCURVE",
"80 625 OFFCURVE",
"63 625 CURVE",
"57 633 OFFCURVE",
"61 660 OFFCURVE",
"63 662 CURVE",
"109 660 OFFCURVE",
"125 656 OFFCURVE"
);
}
);
width = 907;
}
);
unicode = 004D;
userData = {
com.fontlab.hintData = {
hhints = (
{
position = -4;
width = 37;
},
{
position = 625;
width = 37;
}
);
};
};
},
{
glyphname = N;
lastChange = "2017-07-12 19:24:33 +0000";
layers = (
{
layerId = "C3DEC2A7-F599-40A3-AE95-7DABCECAEB0F";
paths = (
{
closed = 1;
nodes = (
"151 655 CURVE SMOOTH",
"186 655 OFFCURVE",
"228 658 OFFCURVE",
"260 662 CURVE",
"298 584 OFFCURVE",
"458 401 OFFCURVE",
"581 248 CURVE",
"583 255 OFFCURVE",
"583 275 OFFCURVE",
"583 289 CURVE SMOOTH",
"583 476 LINE SMOOTH",
"583 514 OFFCURVE",
"579 589 OFFCURVE",
"572 604 CURVE SMOOTH",
"564 622 OFFCURVE",
"503 626 OFFCURVE",
"491 626 CURVE",
"489 626 OFFCURVE",
"486 654 OFFCURVE",
"491 663 CURVE",
"537 661 OFFCURVE",
"567 655 OFFCURVE",
"613 655 CURVE SMOOTH",
"657 655 OFFCURVE",
"699 661 OFFCURVE",
"739 663 CURVE",
"741 657 OFFCURVE",
"743 635 OFFCURVE",
"737 625 CURVE",
"729 625 OFFCURVE",
"662 623 OFFCURVE",
"654 602 CURVE SMOOTH",
"649 588 OFFCURVE",
"644 515 OFFCURVE",
"644 479 CURVE SMOOTH",
"644 139 LINE SMOOTH",
"644 81 OFFCURVE",
"646 51 OFFCURVE",
"648 -1 CURVE",
"645 -4 OFFCURVE",
"626 -5 OFFCURVE",
"623 -5 CURVE SMOOTH",
"614 -5 OFFCURVE",
"602 5 OFFCURVE",
"592 18 CURVE SMOOTH",
"185 519 LINE",
"185 157 LINE SMOOTH",
"185 121 OFFCURVE",
"191 74 OFFCURVE",
"196 60 CURVE SMOOTH",
"203 41 OFFCURVE",
"270 34 OFFCURVE",
"278 34 CURVE",
"284 24 OFFCURVE",
"282 2 OFFCURVE",
"280 -4 CURVE",
"240 -2 OFFCURVE",
"198 4 OFFCURVE",
"154 4 CURVE SMOOTH",
"108 4 OFFCURVE",
"78 -2 OFFCURVE",
"32 -4 CURVE",
"27 5 OFFCURVE",
"30 33 OFFCURVE",
"32 33 CURVE",
"44 33 OFFCURVE",
"104 41 OFFCURVE",
"112 59 CURVE SMOOTH",
"119 74 OFFCURVE",
"124 122 OFFCURVE",
"124 160 CURVE SMOOTH",
"124 291 OFFCURVE",
"124 383 OFFCURVE",
"124 514 CURVE SMOOTH",
"124 542 OFFCURVE",
"119 585 OFFCURVE",
"106 604 CURVE SMOOTH",
"97 617 OFFCURVE",
"52 625 OFFCURVE",
"40 625 CURVE SMOOTH",
"35 625 OFFCURVE",
"33 657 OFFCURVE",
"38 662 CURVE",
"69 660 OFFCURVE",
"105 655 OFFCURVE"
);
}
);
width = 760;
}
);
unicode = 004E;
userData = {
com.fontlab.hintData = {
hhints = (
{
position = -4;
width = 37;
},
{
position = 625;
width = 38;
},
{
position = 625;
width = 30;
}
);
vhints = (
{
position = 124;
width = 61;
},
{
position = 583;
width = 61;
}
);
};
};
},
{
glyphname = Eng;
lastChange = "2017-07-12 19:24:33 +0000";
layers = (
{
layerId = "C3DEC2A7-F599-40A3-AE95-7DABCECAEB0F";
paths = (
{
closed = 1;
nodes = (
"644 139 LINE SMOOTH",
"644 -89 OFFCURVE",
"528 -218 OFFCURVE",
"346 -218 CURVE SMOOTH",
"327 -218 OFFCURVE",
"298 -207 OFFCURVE",
"289 -200 CURVE",
"282 -189 OFFCURVE",
"273 -178 OFFCURVE",
"273 -157 CURVE SMOOTH",
"273 -123 OFFCURVE",
"301 -90 OFFCURVE",
"333 -90 CURVE SMOOTH",
"378 -90 OFFCURVE",
"406 -157 OFFCURVE",
"437 -157 CURVE SMOOTH",
"500 -157 OFFCURVE",
"552 -69 OFFCURVE",
"552 68 CURVE",
"185 524 LINE",
"185 141 LINE SMOOTH",
"185 105 OFFCURVE",
"185 74 OFFCURVE",
"190 60 CURVE SMOOTH",
"197 41 OFFCURVE",
"270 34 OFFCURVE",
"278 34 CURVE",
"284 24 OFFCURVE",
"282 2 OFFCURVE",
"280 -4 CURVE",
"240 -2 OFFCURVE",
"198 4 OFFCURVE",
"154 4 CURVE SMOOTH",
"108 4 OFFCURVE",
"78 -2 OFFCURVE",
"32 -4 CURVE",
"27 5 OFFCURVE",
"30 33 OFFCURVE",
"32 33 CURVE",
"44 33 OFFCURVE",
"109 41 OFFCURVE",
"117 59 CURVE SMOOTH",
"124 74 OFFCURVE",
"124 106 OFFCURVE",
"124 144 CURVE SMOOTH",
"124 275 OFFCURVE",
"124 406 OFFCURVE",
"124 537 CURVE SMOOTH",
"124 565 OFFCURVE",
"122 589 OFFCURVE",
"109 608 CURVE SMOOTH",
"102 619 OFFCURVE",
"52 625 OFFCURVE",
"40 625 CURVE SMOOTH",
"35 625 OFFCURVE",
"33 657 OFFCURVE",
"38 662 CURVE",
"69 660 OFFCURVE",
"105 655 OFFCURVE",
"151 655 CURVE SMOOTH",
"186 655 OFFCURVE",
"228 658 OFFCURVE",
"260 662 CURVE",
"298 584 OFFCURVE",
"456 404 OFFCURVE",
"581 243 CURVE",
"583 250 OFFCURVE",
"583 270 OFFCURVE",
"583 284 CURVE SMOOTH",
"583 522 LINE SMOOTH",
"583 560 OFFCURVE",
"583 592 OFFCURVE",
"576 607 CURVE SMOOTH",
"568 625 OFFCURVE",
"503 633 OFFCURVE",
"491 633 CURVE",
"489 633 OFFCURVE",
"486 661 OFFCURVE",
"491 670 CURVE",
"537 668 OFFCURVE",
"567 662 OFFCURVE",
"613 662 CURVE SMOOTH",
"657 662 OFFCURVE",
"699 668 OFFCURVE",
"739 670 CURVE",
"741 664 OFFCURVE",
"743 642 OFFCURVE",
"737 632 CURVE",
"729 632 OFFCURVE",
"656 625 OFFCURVE",
"649 606 CURVE SMOOTH",
"644 592 OFFCURVE",
"644 561 OFFCURVE",
"644 525 CURVE SMOOTH"
);
}
);
width = 759;
}
);
unicode = 014A;
userData = {
com.fontlab.hintData = {
hhints = (
{
position = -218;
width = 61;
},
{
position = -4;
width = 37;
},
{
position = 632;
width = 30;
},
{
position = 633;
width = 37;
}
);
vhints = (
{
position = 124;
width = 61;
},
{
position = 583;
width = 61;
}
);
};
};
},
{
glyphname = O;
lastChange = "2017-07-12 19:24:33 +0000";
layers = (
{
layerId = "C3DEC2A7-F599-40A3-AE95-7DABCECAEB0F";
paths = (
{
closed = 1;
nodes = (
"356 624 CURVE SMOOTH",
"238 624 OFFCURVE",
"200 484 OFFCURVE",
"200 363 CURVE SMOOTH",
"200 210 OFFCURVE",
"252 33 OFFCURVE",
"401 33 CURVE SMOOTH",
"520 33 OFFCURVE",
"560 171 OFFCURVE",
"560 292 CURVE SMOOTH",
"560 445 OFFCURVE",
"505 624 OFFCURVE"
);
},
{
closed = 1;
nodes = (
"380 667 CURVE SMOOTH",
"556 667 OFFCURVE",
"720 515 OFFCURVE",
"720 328 CURVE SMOOTH",
"720 141 OFFCURVE",
"556 -10 OFFCURVE",
"380 -10 CURVE SMOOTH",
"204 -10 OFFCURVE",
"40 141 OFFCURVE",
"40 328 CURVE SMOOTH",
"40 515 OFFCURVE",
"204 667 OFFCURVE"
);
}
);
width = 760;
}
);
unicode = 004F;
userData = {
com.fontlab.hintData = {
hhints = (
{
position = -10;
width = 43;
},
{
position = 624;
width = 43;
}
);
vhints = (
{
position = 40;
width = 160;
},
{
position = 560;
width = 160;
}
);
};
};
},
{
glyphname = Ohorn;
lastChange = "2017-07-12 19:24:33 +0000";
layers = (
{
layerId = "C3DEC2A7-F599-40A3-AE95-7DABCECAEB0F";
paths = (
{
closed = 1;
nodes = (
"347 611 CURVE SMOOTH",
"235 611 OFFCURVE",
"197 484 OFFCURVE",
"197 350 CURVE SMOOTH",
"197 226 OFFCURVE",
"240 46 OFFCURVE",
"378 46 CURVE SMOOTH",
"485 46 OFFCURVE",
"528 174 OFFCURVE",
"528 309 CURVE SMOOTH",
"528 443 OFFCURVE",
"492 611 OFFCURVE"
);
},
{
closed = 1;
nodes = (
"362 667 CURVE SMOOTH",
"424 667 OFFCURVE",
"474 646 OFFCURVE",
"480 643 CURVE SMOOTH",
"524 626 OFFCURVE",
"582 603 OFFCURVE",
"614 603 CURVE SMOOTH",
"637 603 OFFCURVE",
"650 610 OFFCURVE",
"650 622 CURVE SMOOTH",
"650 636 OFFCURVE",
"628 650 OFFCURVE",
"628 674 CURVE SMOOTH",
"628 714 OFFCURVE",
"690 720 OFFCURVE",
"722 720 CURVE",
"731 711 OFFCURVE",
"741 679 OFFCURVE",
"741 652 CURVE SMOOTH",
"741 595 OFFCURVE",
"673 556 OFFCURVE",
"620 556 CURVE SMOOTH",
"609 556 OFFCURVE",
"597 560 OFFCURVE",
"595 561 CURVE",
"650 500 OFFCURVE",
"684 418 OFFCURVE",
"684 328 CURVE SMOOTH",
"684 141 OFFCURVE",
"538 -10 OFFCURVE",
"362 -10 CURVE SMOOTH",
"186 -10 OFFCURVE",
"41 141 OFFCURVE",
"41 328 CURVE SMOOTH",
"41 515 OFFCURVE",
"180 667 OFFCURVE"
);
}
);
width = 760;
}
);
unicode = 01A0;
userData = {
com.fontlab.hintData = {
hhints = (
{
position = -10;
width = 56;
},
{
position = 556;
width = 47;
},
{
position = 611;
width = 56;
}
);
vhints = (
{
position = 41;
width = 156;
},
{
position = 528;
width = 156;
},
{
position = 650;
width = 91;
}
);
};
};
},
{
glyphname = Oslash;
lastChange = "2017-07-12 19:24:33 +0000";
layers = (
{
components = (
{
name = O;
}
);
layerId = "C3DEC2A7-F599-40A3-AE95-7DABCECAEB0F";
paths = (
{
closed = 1;
nodes = (
"541 676 LINE",
"549 673 OFFCURVE",
"581 662 OFFCURVE",
"579 655 CURVE",
"202 -18 LINE",
"194 -15 OFFCURVE",
"162 -3 OFFCURVE",
"164 4 CURVE"
);
}
);
width = 759;
}
);
unicode = 00D8;
userData = {
com.fontlab.hintData = {
hhints = (
{
position = -10;
width = 43;
},
{
position = 624;
width = 43;
}
);
vhints = (
{
position = 40;
width = 160;
},
{
position = 560;
width = 160;
}
);
};
};
},
{
glyphname = OE;
lastChange = "2017-07-12 19:24:33 +0000";
layers = (
{
layerId = "C3DEC2A7-F599-40A3-AE95-7DABCECAEB0F";
paths = (
{
closed = 1;
nodes = (
"594 657 CURVE SMOOTH",
"636 657 OFFCURVE",
"860 663 OFFCURVE",
"919 664 CURVE",
"926 614 OFFCURVE",
"939 561 OFFCURVE",
"948 516 CURVE",
"945 513 OFFCURVE",
"932 511 OFFCURVE",
"925 511 CURVE SMOOTH",
"918 511 OFFCURVE",
"911 514 OFFCURVE",
"909 519 CURVE SMOOTH",
"888 574 OFFCURVE",
"862 620 OFFCURVE",
"801 620 CURVE SMOOTH",
"718 620 LINE SMOOTH",
"695 620 OFFCURVE",
"673 619 OFFCURVE",
"668 608 CURVE SMOOTH",
"663 596 OFFCURVE",
"663 576 OFFCURVE",
"663 547 CURVE SMOOTH",
"663 368 LINE SMOOTH",
"663 362 OFFCURVE",
"684 357 OFFCURVE",
"706 357 CURVE SMOOTH",
"759 357 LINE SMOOTH",
"818 357 OFFCURVE",
"831 369 OFFCURVE",
"847 427 CURVE SMOOTH",
"848 432 OFFCURVE",
"852 435 OFFCURVE",
"859 435 CURVE SMOOTH",
"866 435 OFFCURVE",
"875 433 OFFCURVE",
"878 430 CURVE",
"878 238 LINE",
"876 236 OFFCURVE",
"867 234 OFFCURVE",
"860 234 CURVE SMOOTH",
"853 234 OFFCURVE",
"847 237 OFFCURVE",
"846 242 CURVE SMOOTH",
"834 290 OFFCURVE",
"820 299 OFFCURVE",
"811 303 CURVE SMOOTH",
"799 308 OFFCURVE",
"773 310 OFFCURVE",
"735 310 CURVE SMOOTH",
"707 310 OFFCURVE",
"663 308 OFFCURVE",
"663 296 CURVE SMOOTH",
"663 141 LINE SMOOTH",
"663 135 OFFCURVE",
"663 82 OFFCURVE",
"671 62 CURVE SMOOTH",
"677 48 OFFCURVE",
"710 42 OFFCURVE",
"736 42 CURVE SMOOTH",
"802 42 LINE SMOOTH",
"840 42 OFFCURVE",
"872 52 OFFCURVE",
"895 75 CURVE SMOOTH",
"916 96 OFFCURVE",
"932 125 OFFCURVE",
"949 170 CURVE SMOOTH",
"950 174 OFFCURVE",
"956 176 OFFCURVE",
"963 176 CURVE SMOOTH",
"973 176 OFFCURVE",
"990 173 OFFCURVE",
"993 170 CURVE",
"974 116 OFFCURVE",
"946 42 OFFCURVE",
"939 -2 CURVE",
"911 -2 OFFCURVE",
"723 -3 OFFCURVE",
"588 -3 CURVE SMOOTH",
"519 -3 OFFCURVE",
"464 -3 OFFCURVE",
"451 -3 CURVE",
"429 -3 OFFCURVE",
"555 -3 OFFCURVE",
"379 -3 CURVE SMOOTH",
"203 -3 OFFCURVE",
"40 141 OFFCURVE",
"40 328 CURVE SMOOTH",
"40 515 OFFCURVE",
"201 663 OFFCURVE",
"377 663 CURVE SMOOTH",
"476 663 OFFCURVE",
"552 657 OFFCURVE"
);
},
{
closed = 1;
nodes = (
"353 622 CURVE SMOOTH",
"235 622 OFFCURVE",
"191 484 OFFCURVE",
"191 363 CURVE SMOOTH",
"191 210 OFFCURVE",
"249 37 OFFCURVE",
"398 37 CURVE",
"431 37 OFFCURVE",
"483 46 OFFCURVE",
"502 69 CURVE SMOOTH",
"516 86 OFFCURVE",
"523 106 OFFCURVE",
"523 149 CURVE SMOOTH",
"523 481 LINE SMOOTH",
"523 524 OFFCURVE",
"510 561 OFFCURVE",
"490 582 CURVE SMOOTH",
"472 601 OFFCURVE",
"431 622 OFFCURVE"
);
}
);
width = 1015;
}
);
unicode = 0152;
userData = {
com.fontlab.hintData = {
hhints = (
{
position = -3;
width = 45;
},
{
position = 310;
width = 47;
},
{
position = 622;
width = 41;
}
);
vhints = (
{
position = 40;
width = 151;
},
{
position = 523;
width = 140;
},
{
position = 847;
width = 31;
}
);
};
};
},
{
glyphname = P;
lastChange = "2017-07-12 19:24:33 +0000";
layers = (
{
layerId = "C3DEC2A7-F599-40A3-AE95-7DABCECAEB0F";
paths = (
{
closed = 1;
nodes = (
"565 482 CURVE SMOOTH",
"565 362 OFFCURVE",
"465 287 OFFCURVE",
"364 287 CURVE SMOOTH",
"328 287 OFFCURVE",
"302 303 OFFCURVE",
"295 310 CURVE SMOOTH",
"291 314 OFFCURVE",
"288 327 OFFCURVE",
"288 335 CURVE SMOOTH",
"288 339 OFFCURVE",
"289 342 OFFCURVE",
"291 342 CURVE",
"301 339 OFFCURVE",
"317 338 OFFCURVE",
"332 338 CURVE SMOOTH",
"381 338 OFFCURVE",
"416 391 OFFCURVE",
"416 468 CURVE SMOOTH",
"416 547 OFFCURVE",
"372 620 OFFCURVE",
"305 620 CURVE SMOOTH",
"282 620 OFFCURVE",
"260 619 OFFCURVE",
"255 608 CURVE SMOOTH",
"250 596 OFFCURVE",
"250 576 OFFCURVE",
"250 547 CURVE SMOOTH",
"250 145 LINE SMOOTH",
"250 102 OFFCURVE",
"250 71 OFFCURVE",
"258 51 CURVE SMOOTH",
"263 38 OFFCURVE",
"309 34 OFFCURVE",
"322 33 CURVE",
"327 26 OFFCURVE",
"326 2 OFFCURVE",
"322 -4 CURVE",
"283 0 OFFCURVE",
"221 3 OFFCURVE",
"179 3 CURVE SMOOTH",
"137 3 OFFCURVE",
"77 0 OFFCURVE",
"38 -4 CURVE",
"34 2 OFFCURVE",
"33 26 OFFCURVE",
"38 33 CURVE",
"51 34 OFFCURVE",
"97 38 OFFCURVE",
"102 51 CURVE SMOOTH",
"110 71 OFFCURVE",
"110 102 OFFCURVE",
"110 145 CURVE SMOOTH",
"110 513 LINE SMOOTH",
"110 556 OFFCURVE",
"110 587 OFFCURVE",
"102 607 CURVE SMOOTH",
"97 620 OFFCURVE",
"51 622 OFFCURVE",
"38 623 CURVE",
"33 630 OFFCURVE",
"34 654 OFFCURVE",
"38 660 CURVE",
"83 657 OFFCURVE",
"139 657 OFFCURVE",
"181 657 CURVE SMOOTH",
"223 657 OFFCURVE",
"276 660 OFFCURVE",
"335 660 CURVE SMOOTH",
"460 660 OFFCURVE",
"565 596 OFFCURVE"
);
}
);
width = 585;
}
);
unicode = 0050;
userData = {
com.fontlab.hintData = {
hhints = (
{
position = -4;
width = 37;
},
{
position = 287;
width = 51;
},
{
position = 620;
width = 40;
}
);
vhints = (
{
position = 110;
width = 140;
},
{
position = 416;
width = 149;
}
);
};
};
},
{
glyphname = Thorn;
lastChange = "2017-07-12 19:24:33 +0000";
layers = (
{
layerId = "C3DEC2A7-F599-40A3-AE95-7DABCECAEB0F";
paths = (
{
closed = 1;
nodes = (
"181 655 CURVE SMOOTH",
"223 655 OFFCURVE",
"283 658 OFFCURVE",
"322 662 CURVE",
"326 656 OFFCURVE",
"327 632 OFFCURVE",
"322 625 CURVE",
"309 624 OFFCURVE",
"263 620 OFFCURVE",
"258 607 CURVE SMOOTH",
"252 592 OFFCURVE",
"250 569 OFFCURVE",
"250 539 CURVE SMOOTH",
"250 532 OFFCURVE",
"250 525 OFFCURVE",
"250 517 CURVE",
"276 518 OFFCURVE",
"305 519 OFFCURVE",
"335 519 CURVE SMOOTH",
"460 519 OFFCURVE",
"561 455 OFFCURVE",
"561 341 CURVE SMOOTH",
"561 221 OFFCURVE",
"465 146 OFFCURVE",
"364 146 CURVE SMOOTH",
"328 146 OFFCURVE",
"302 162 OFFCURVE",
"295 169 CURVE SMOOTH",
"291 173 OFFCURVE",
"288 186 OFFCURVE",
"288 194 CURVE SMOOTH",
"288 198 OFFCURVE",
"289 201 OFFCURVE",
"291 201 CURVE",
"301 198 OFFCURVE",
"317 197 OFFCURVE",
"332 197 CURVE SMOOTH",
"381 197 OFFCURVE",
"419 250 OFFCURVE",
"419 327 CURVE SMOOTH",
"419 406 OFFCURVE",
"372 479 OFFCURVE",
"305 479 CURVE SMOOTH",
"282 479 OFFCURVE",
"260 478 OFFCURVE",
"255 467 CURVE SMOOTH",
"250 455 OFFCURVE",
"250 406 OFFCURVE",
"250 406 CURVE",
"250 145 LINE SMOOTH",
"250 102 OFFCURVE",
"250 71 OFFCURVE",
"258 51 CURVE SMOOTH",
"263 38 OFFCURVE",
"309 34 OFFCURVE",
"322 33 CURVE",
"327 26 OFFCURVE",
"326 2 OFFCURVE",
"322 -4 CURVE",
"283 0 OFFCURVE",
"221 3 OFFCURVE",
"179 3 CURVE SMOOTH",
"137 3 OFFCURVE",
"77 0 OFFCURVE",
"38 -4 CURVE",
"34 2 OFFCURVE",
"33 26 OFFCURVE",
"38 33 CURVE",
"51 34 OFFCURVE",
"97 38 OFFCURVE",
"102 51 CURVE SMOOTH",
"110 71 OFFCURVE",
"110 102 OFFCURVE",
"110 145 CURVE SMOOTH",
"110 513 LINE SMOOTH",
"110 556 OFFCURVE",
"110 587 OFFCURVE",
"102 607 CURVE SMOOTH",
"97 620 OFFCURVE",
"51 624 OFFCURVE",
"38 625 CURVE",
"33 632 OFFCURVE",
"34 656 OFFCURVE",
"38 662 CURVE",
"77 658 OFFCURVE",
"139 655 OFFCURVE"
);
}
);
width = 583;
}
);
unicode = 00DE;
userData = {
com.fontlab.hintData = {
hhints = (
{
position = -4;
width = 37;
},
{
position = 3;
width = 198;
},
{
position = 146;
width = 51;
},
{
position = 479;
width = 40;
},
{
position = 625;
width = 37;
}
);
vhints = (
{
position = 110;
width = 140;
},
{
position = 419;
width = 142;
}
);
};
};
},
{
glyphname = Q;
lastChange = "2017-07-12 19:24:33 +0000";
layers = (
{
layerId = "C3DEC2A7-F599-40A3-AE95-7DABCECAEB0F";
paths = (
{
closed = 1;
nodes = (
"380 667 CURVE SMOOTH",
"556 667 OFFCURVE",
"720 515 OFFCURVE",
"720 328 CURVE SMOOTH",
"720 178 OFFCURVE",
"614 51 OFFCURVE",
"482 7 CURVE",
"574 -38 OFFCURVE",
"603 -74 OFFCURVE",
"705 -74 CURVE SMOOTH",
"745 -74 OFFCURVE",
"769 -66 OFFCURVE",
"776 -66 CURVE",
"782 -66 OFFCURVE",
"794 -71 OFFCURVE",
"799 -79 CURVE SMOOTH",
"801 -82 OFFCURVE",
"801 -84 OFFCURVE",
"801 -84 CURVE",
"746 -113 OFFCURVE",
"657 -143 OFFCURVE",
"596 -143 CURVE SMOOTH",
"486 -143 OFFCURVE",
"409 -33 OFFCURVE",
"301 0 CURVE SMOOTH",
"157 38 OFFCURVE",
"40 170 OFFCURVE",
"40 328 CURVE SMOOTH",
"40 515 OFFCURVE",
"204 667 OFFCURVE"
);
},
{
closed = 1;
nodes = (
"356 624 CURVE SMOOTH",
"238 624 OFFCURVE",
"200 484 OFFCURVE",
"200 363 CURVE SMOOTH",
"200 210 OFFCURVE",
"252 33 OFFCURVE",
"401 33 CURVE SMOOTH",
"520 33 OFFCURVE",
"560 171 OFFCURVE",
"560 292 CURVE SMOOTH",
"560 445 OFFCURVE",
"505 624 OFFCURVE"
);
}
);
width = 760;
}
);
unicode = 0051;
userData = {
com.fontlab.hintData = {
hhints = (
{
position = -143;
width = 69;
},
{
position = 624;
width = 43;
}
);
vhints = (
{
position = 40;
width = 160;
},
{
position = 560;
width = 160;
}
);
};
};
},
{
glyphname = R;
lastChange = "2017-07-12 19:24:33 +0000";
layers = (
{
layerId = "C3DEC2A7-F599-40A3-AE95-7DABCECAEB0F";
paths = (
{
closed = 1;
nodes = (
"335 660 CURVE SMOOTH",
"460 660 OFFCURVE",
"554 598 OFFCURVE",
"554 478 CURVE SMOOTH",
"554 396 OFFCURVE",
"466 328 OFFCURVE",
"418 316 CURVE",
"491 218 OFFCURVE",
"563 130 OFFCURVE",
"563 130 CURVE",
"637 36 OFFCURVE",
"721 33 OFFCURVE",
"729 33 CURVE",
"734 26 OFFCURVE",
"730 -2 OFFCURVE",
"729 -4 CURVE",
"700 -6 OFFCURVE",
"639 -8 OFFCURVE",
"598 -8 CURVE SMOOTH",
"521 -8 OFFCURVE",
"470 33 OFFCURVE",
"445 67 CURVE SMOOTH",
"283 284 LINE SMOOTH",
"283 284 OFFCURVE",
"273 299 OFFCURVE",
"265 299 CURVE SMOOTH",
"250 299 LINE",
"250 145 LINE SMOOTH",
"250 102 OFFCURVE",
"250 71 OFFCURVE",
"258 51 CURVE SMOOTH",
"263 38 OFFCURVE",
"309 34 OFFCURVE",
"322 33 CURVE",
"327 26 OFFCURVE",
"326 2 OFFCURVE",
"322 -4 CURVE",
"283 0 OFFCURVE",
"221 3 OFFCURVE",
"179 3 CURVE SMOOTH",
"137 3 OFFCURVE",
"77 0 OFFCURVE",
"38 -4 CURVE",
"34 2 OFFCURVE",
"33 26 OFFCURVE",
"38 33 CURVE",
"51 34 OFFCURVE",
"97 38 OFFCURVE",
"102 51 CURVE SMOOTH",
"110 71 OFFCURVE",
"110 102 OFFCURVE",
"110 145 CURVE SMOOTH",
"110 513 LINE SMOOTH",
"110 556 OFFCURVE",
"110 587 OFFCURVE",
"102 607 CURVE SMOOTH",
"97 620 OFFCURVE",
"51 622 OFFCURVE",
"38 623 CURVE",
"33 630 OFFCURVE",
"34 654 OFFCURVE",
"38 660 CURVE",
"83 657 OFFCURVE",
"139 657 OFFCURVE",
"181 657 CURVE SMOOTH",
"223 657 OFFCURVE",
"276 660 OFFCURVE"
);
},
{
closed = 1;
nodes = (
"405 468 CURVE SMOOTH",
"405 547 OFFCURVE",
"387 620 OFFCURVE",
"305 620 CURVE SMOOTH",
"282 620 OFFCURVE",
"260 619 OFFCURVE",
"255 608 CURVE SMOOTH",
"250 596 OFFCURVE",
"250 576 OFFCURVE",
"250 547 CURVE SMOOTH",
"250 338 LINE",
"296 338 LINE SMOOTH",
"353 338 OFFCURVE",
"405 391 OFFCURVE"
);
}
);
width = 693;
}
);
unicode = 0052;
userData = {
com.fontlab.hintData = {
hhints = (
{
position = -4;
width = 37;
},
{
position = 299;
width = 39;
},
{
position = 620;
width = 40;
}
);
vhints = (
{
position = 110;
width = 140;
},
{
position = 405;
width = 149;
}
);
};
};
},
{
glyphname = S;
lastChange = "2017-07-12 19:24:33 +0000";
layers = (
{
layerId = "C3DEC2A7-F599-40A3-AE95-7DABCECAEB0F";
paths = (
{
closed = 1;
nodes = (
"267 670 CURVE SMOOTH",
"326 670 OFFCURVE",
"374 655 OFFCURVE",
"435 642 CURVE",
"440 589 OFFCURVE",
"443 537 OFFCURVE",
"446 476 CURVE",
"443 472 OFFCURVE",
"439 470 OFFCURVE",
"435 470 CURVE SMOOTH",
"432 470 OFFCURVE",
"407 469 OFFCURVE",
"405 477 CURVE SMOOTH",
"397 533 OFFCURVE",
"349 628 OFFCURVE",
"272 628 CURVE SMOOTH",
"233 628 OFFCURVE",
"187 608 OFFCURVE",
"187 541 CURVE SMOOTH",
"187 479 OFFCURVE",
"271 422 OFFCURVE",
"332 381 CURVE SMOOTH",
"398 337 OFFCURVE",
"479 294 OFFCURVE",
"479 175 CURVE SMOOTH",
"479 65 OFFCURVE",
"371 -10 OFFCURVE",
"261 -10 CURVE SMOOTH",
"202 -10 OFFCURVE",
"131 2 OFFCURVE",
"71 16 CURVE",
"61 60 OFFCURVE",
"49 158 OFFCURVE",
"47 186 CURVE",
"51 192 OFFCURVE",
"71 200 OFFCURVE",
"76 200 CURVE SMOOTH",
"83 200 OFFCURVE",
"88 198 OFFCURVE",
"89 192 CURVE SMOOTH",
"98 138 OFFCURVE",
"161 32 OFFCURVE",
"251 32 CURVE SMOOTH",
"302 32 OFFCURVE",
"348 58 OFFCURVE",
"348 129 CURVE SMOOTH",
"348 200 OFFCURVE",
"250 258 OFFCURVE",
"200 292 CURVE SMOOTH",
"127 341 OFFCURVE",
"54 385 OFFCURVE",
"54 489 CURVE SMOOTH",
"54 592 OFFCURVE",
"164 670 OFFCURVE"
);
}
);
width = 521;
}
);
unicode = 0053;
userData = {
com.fontlab.hintData = {
hhints = (
{
position = -10;
width = 42;
},
{
position = 628;
width = 42;
}
);
vhints = (
{
position = 47;
width = 42;
},
{
position = 54;
width = 133;
},
{
position = 348;
width = 131;
},
{
position = 405;
width = 41;
}
);
};
};
},
{
glyphname = T;
lastChange = "2017-07-12 19:24:33 +0000";
layers = (
{
layerId = "C3DEC2A7-F599-40A3-AE95-7DABCECAEB0F";
paths = (
{
closed = 1;
nodes = (
"483 657 CURVE SMOOTH",
"555 657 OFFCURVE",
"569 676 OFFCURVE",
"587 676 CURVE SMOOTH",
"595 676 OFFCURVE",
"595 675 OFFCURVE",
"599 673 CURVE",
"626 489 LINE",
"623 486 OFFCURVE",
"606 482 OFFCURVE",
"597 482 CURVE SMOOTH",
"592 482 OFFCURVE",
"588 483 OFFCURVE",
"587 487 CURVE SMOOTH",
"577 552 OFFCURVE",
"531 613 OFFCURVE",
"480 613 CURVE SMOOTH",
"387 613 LINE",
"387 145 LINE SMOOTH",
"387 102 OFFCURVE",
"387 71 OFFCURVE",
"395 51 CURVE SMOOTH",
"400 38 OFFCURVE",
"446 34 OFFCURVE",
"459 33 CURVE",
"464 26 OFFCURVE",
"463 2 OFFCURVE",
"459 -4 CURVE",
"420 0 OFFCURVE",
"358 3 OFFCURVE",
"316 3 CURVE SMOOTH",
"274 3 OFFCURVE",
"214 0 OFFCURVE",
"175 -4 CURVE",
"171 2 OFFCURVE",
"170 26 OFFCURVE",
"175 33 CURVE",
"188 34 OFFCURVE",
"234 38 OFFCURVE",
"239 51 CURVE SMOOTH",
"247 71 OFFCURVE",
"247 102 OFFCURVE",
"247 145 CURVE SMOOTH",
"247 613 LINE",
"154 613 LINE SMOOTH",
"103 613 OFFCURVE",
"57 552 OFFCURVE",
"47 487 CURVE SMOOTH",
"46 483 OFFCURVE",
"42 482 OFFCURVE",
"37 482 CURVE SMOOTH",
"28 482 OFFCURVE",
"11 486 OFFCURVE",
"8 489 CURVE",
"35 673 LINE",
"39 675 OFFCURVE",
"39 676 OFFCURVE",
"47 676 CURVE SMOOTH",
"65 676 OFFCURVE",
"79 657 OFFCURVE",
"151 657 CURVE SMOOTH",
"240 657 OFFCURVE",
"394 657 OFFCURVE"
);
}
);
width = 634;
}
);
unicode = 0054;
userData = {
com.fontlab.hintData = {
hhints = (
{
position = -4;
width = 37;
},
{
position = 613;
width = 44;
}
);
vhints = (
{
position = 8;
width = 39;
},
{
position = 247;
width = 140;
},
{
position = 587;
width = 39;
}
);
};
};
},
{
glyphname = Tbar;
lastChange = "2017-07-12 19:24:33 +0000";
layers = (
{
components = (
{
name = T;
}
);
layerId = "C3DEC2A7-F599-40A3-AE95-7DABCECAEB0F";
paths = (
{
closed = 1;
nodes = (
"513 308 CURVE",
"484 308 OFFCURVE",
"177 308 OFFCURVE",
"163 308 CURVE",
"159 308 OFFCURVE",
"158 339 OFFCURVE",
"164 348 CURVE",
"193 348 OFFCURVE",
"499 348 OFFCURVE",
"513 348 CURVE",
"517 348 OFFCURVE",
"517 317 OFFCURVE"
);
}
);
width = 634;
}
);
unicode = 0166;
userData = {
com.fontlab.hintData = {
hhints = (
{
position = -4;
width = 37;
},
{
position = 308;
width = 40;
},
{
position = 613;
width = 44;
}
);
vhints = (
{
position = 8;
width = 39;
},
{
position = 247;
width = 140;
},
{
position = 587;
width = 39;
}
);
};
};
},
{
glyphname = U;
lastChange = "2017-07-12 19:24:33 +0000";
layers = (
{
layerId = "C3DEC2A7-F599-40A3-AE95-7DABCECAEB0F";
paths = (
{
closed = 1;
nodes = (
"165 655 CURVE SMOOTH",
"207 655 OFFCURVE",
"267 658 OFFCURVE",
"306 662 CURVE",
"310 656 OFFCURVE",
"311 632 OFFCURVE",
"306 625 CURVE",
"293 624 OFFCURVE",
"247 620 OFFCURVE",
"242 607 CURVE SMOOTH",
"234 587 OFFCURVE",
"234 556 OFFCURVE",
"234 513 CURVE SMOOTH",
"234 330 LINE SMOOTH",
"234 262 OFFCURVE",
"236 212 OFFCURVE",
"259 159 CURVE SMOOTH",
"297 71 OFFCURVE",
"372 63 OFFCURVE",
"411 63 CURVE SMOOTH",
"491 63 OFFCURVE",
"573 134 OFFCURVE",
"573 309 CURVE SMOOTH",
"573 479 LINE SMOOTH",
"573 522 OFFCURVE",
"567 581 OFFCURVE",
"559 601 CURVE SMOOTH",
"551 620 OFFCURVE",
"497 624 OFFCURVE",
"484 625 CURVE",
"479 632 OFFCURVE",
"480 656 OFFCURVE",
"484 662 CURVE",
"531 658 OFFCURVE",
"563 655 OFFCURVE",
"609 655 CURVE SMOOTH",
"653 655 OFFCURVE",
"685 660 OFFCURVE",
"726 662 CURVE",
"730 656 OFFCURVE",
"731 632 OFFCURVE",
"726 625 CURVE",
"713 624 OFFCURVE",
"657 622 OFFCURVE",
"649 601 CURVE SMOOTH",
"641 581 OFFCURVE",
"635 523 OFFCURVE",
"635 480 CURVE SMOOTH",
"635 286 LINE SMOOTH",
"635 82 OFFCURVE",
"505 -9 OFFCURVE",
"361 -9 CURVE SMOOTH",
"277 -9 OFFCURVE",
"198 19 OFFCURVE",
"150 79 CURVE SMOOTH",
"111 128 OFFCURVE",
"94 197 OFFCURVE",
"94 301 CURVE SMOOTH",
"94 513 LINE SMOOTH",
"94 556 OFFCURVE",
"94 587 OFFCURVE",
"86 607 CURVE SMOOTH",
"81 620 OFFCURVE",
"35 624 OFFCURVE",
"22 625 CURVE",
"17 632 OFFCURVE",
"18 656 OFFCURVE",
"22 662 CURVE",
"61 658 OFFCURVE",
"123 655 OFFCURVE"
);
}
);
width = 730;
}
);
unicode = 0055;
userData = {
com.fontlab.hintData = {
hhints = (
{
position = -9;
width = 72;
},
{
position = 625;
width = 37;
}
);
vhints = (
{
position = 94;
width = 140;
},
{
position = 573;
width = 62;
}
);
};
};
},
{
glyphname = Uhorn;
lastChange = "2017-07-12 19:24:33 +0000";
layers = (
{
layerId = "C3DEC2A7-F599-40A3-AE95-7DABCECAEB0F";
paths = (
{
closed = 1;
nodes = (
"732 692 CURVE SMOOTH",
"732 706 OFFCURVE",
"710 720 OFFCURVE",
"710 744 CURVE SMOOTH",
"710 784 OFFCURVE",
"772 790 OFFCURVE",
"804 790 CURVE",
"813 781 OFFCURVE",
"823 749 OFFCURVE",
"823 722 CURVE SMOOTH",
"823 665 OFFCURVE",
"734 632 OFFCURVE",
"688 621 CURVE SMOOTH",
"670 617 OFFCURVE",
"648 608 OFFCURVE",
"635 592 CURVE SMOOTH",
"625 580 OFFCURVE",
"621 555 OFFCURVE",
"621 519 CURVE SMOOTH",
"621 291 LINE SMOOTH",
"621 88 OFFCURVE",
"508 -5 OFFCURVE",
"364 -5 CURVE SMOOTH",
"213 -5 OFFCURVE",
"94 80 OFFCURVE",
"94 311 CURVE SMOOTH",
"94 522 LINE SMOOTH",
"94 540 OFFCURVE",
"93 588 OFFCURVE",
"86 600 CURVE SMOOTH",
"79 612 OFFCURVE",
"36 625 OFFCURVE",
"24 625 CURVE SMOOTH",
"22 625 OFFCURVE",
"20 636 OFFCURVE",
"20 642 CURVE SMOOTH",
"20 648 OFFCURVE",
"20 660 OFFCURVE",
"22 662 CURVE",
"68 660 OFFCURVE",
"121 656 OFFCURVE",
"167 656 CURVE SMOOTH",
"211 656 OFFCURVE",
"267 660 OFFCURVE",
"307 662 CURVE",
"308 659 OFFCURVE",
"310 649 OFFCURVE",
"310 644 CURVE SMOOTH",
"310 638 OFFCURVE",
"309 625 OFFCURVE",
"306 625 CURVE SMOOTH",
"298 625 OFFCURVE",
"244 612 OFFCURVE",
"241 601 CURVE SMOOTH",
"234 574 OFFCURVE",
"234 549 OFFCURVE",
"234 516 CURVE SMOOTH",
"234 279 LINE SMOOTH",
"234 158 OFFCURVE",
"292 75 OFFCURVE",
"388 75 CURVE SMOOTH",
"474 75 OFFCURVE",
"557 122 OFFCURVE",
"557 286 CURVE SMOOTH",
"557 524 LINE SMOOTH",
"557 541 OFFCURVE",
"559 579 OFFCURVE",
"544 596 CURVE SMOOTH",
"530 612 OFFCURVE",
"478 625 OFFCURVE",
"466 625 CURVE SMOOTH",
"461 625 OFFCURVE",
"459 657 OFFCURVE",
"463 662 CURVE",
"509 658 OFFCURVE",
"549 654 OFFCURVE",
"595 654 CURVE SMOOTH",
"706 654 OFFCURVE",
"732 680 OFFCURVE"
);
}
);
width = 757;
}
);
unicode = 01AF;
userData = {
com.fontlab.hintData = {
hhints = (
{
position = -5;
width = 80;
},
{
position = 625;
width = 37;
}
);
vhints = (
{
position = 94;
width = 140;
},
{
position = 557;
width = 64;
},
{
position = 732;
width = 91;
}
);
};
};
},
{
glyphname = Uogonek;
lastChange = "2017-07-12 19:24:33 +0000";
layers = (
{
layerId = "C3DEC2A7-F599-40A3-AE95-7DABCECAEB0F";
paths = (
{
closed = 1;
nodes = (
"466 4 CURVE",
"435 -4 OFFCURVE",
"408 -5 OFFCURVE",
"374 -5 CURVE SMOOTH",
"223 -5 OFFCURVE",
"95 68 OFFCURVE",
"95 301 CURVE SMOOTH",
"95 513 LINE SMOOTH",
"95 556 OFFCURVE",
"95 587 OFFCURVE",
"87 607 CURVE SMOOTH",
"82 620 OFFCURVE",
"36 624 OFFCURVE",
"23 625 CURVE",
"18 632 OFFCURVE",
"19 656 OFFCURVE",
"23 662 CURVE",
"62 658 OFFCURVE",
"124 655 OFFCURVE",
"166 655 CURVE SMOOTH",
"208 655 OFFCURVE",
"268 658 OFFCURVE",
"307 662 CURVE",
"311 656 OFFCURVE",
"312 632 OFFCURVE",
"307 625 CURVE",
"294 624 OFFCURVE",
"248 620 OFFCURVE",
"243 607 CURVE SMOOTH",
"235 587 OFFCURVE",
"235 556 OFFCURVE",
"235 513 CURVE SMOOTH",
"235 330 LINE SMOOTH",
"235 262 OFFCURVE",
"237 212 OFFCURVE",
"260 159 CURVE SMOOTH",
"298 71 OFFCURVE",
"391 69 OFFCURVE",
"430 69 CURVE SMOOTH",
"524 69 OFFCURVE",
"593 122 OFFCURVE",
"593 286 CURVE SMOOTH",
"593 513 LINE SMOOTH",
"593 556 OFFCURVE",
"593 587 OFFCURVE",
"585 607 CURVE SMOOTH",
"580 620 OFFCURVE",
"523 624 OFFCURVE",
"510 625 CURVE",
"505 632 OFFCURVE",
"506 656 OFFCURVE",
"510 662 CURVE",
"557 658 OFFCURVE",
"583 655 OFFCURVE",
"629 655 CURVE SMOOTH",
"673 655 OFFCURVE",
"699 660 OFFCURVE",
"740 662 CURVE",
"744 656 OFFCURVE",
"745 632 OFFCURVE",
"740 625 CURVE",
"727 624 OFFCURVE",
"668 620 OFFCURVE",
"663 607 CURVE SMOOTH",
"655 587 OFFCURVE",
"655 562 OFFCURVE",
"655 519 CURVE SMOOTH",
"655 318 LINE SMOOTH",
"655 163 OFFCURVE",
"612 80 OFFCURVE",
"548 37 CURVE SMOOTH",
"491 -1 OFFCURVE",
"437 -57 OFFCURVE",
"437 -101 CURVE SMOOTH",
"437 -122 OFFCURVE",
"449 -148 OFFCURVE",
"486 -148 CURVE SMOOTH",
"514 -148 OFFCURVE",
"551 -117 OFFCURVE",
"561 -109 CURVE",
"564 -109 OFFCURVE",
"567 -112 OFFCURVE",
"567 -120 CURVE SMOOTH",
"567 -125 OFFCURVE",
"563 -141 OFFCURVE",
"560 -145 CURVE SMOOTH",
"545 -164 OFFCURVE",
"493 -218 OFFCURVE",
"437 -218 CURVE SMOOTH",
"404 -218 OFFCURVE",
"363 -192 OFFCURVE",
"363 -140 CURVE SMOOTH",
"363 -84 OFFCURVE",
"407 -30 OFFCURVE"
);
}
);
width = 751;
}
);
unicode = 0172;
userData = {
com.fontlab.hintData = {
hhints = (
{
position = -218;
width = 70;
},
{
position = -5;
width = 74;
},
{
position = 625;
width = 37;
}
);
vhints = (
{
position = 95;
width = 140;
},
{
position = 363;
width = 74;
},
{
position = 593;
width = 62;
}
);
};
};
},
{
glyphname = V;
lastChange = "2017-07-12 19:24:33 +0000";
layers = (
{
layerId = "C3DEC2A7-F599-40A3-AE95-7DABCECAEB0F";
paths = (
{
closed = 1;
nodes = (
"140 655 CURVE SMOOTH",
"182 655 OFFCURVE",
"242 658 OFFCURVE",
"281 662 CURVE",
"285 656 OFFCURVE",
"286 632 OFFCURVE",
"281 625 CURVE",
"268 624 OFFCURVE",
"220 623 OFFCURVE",
"220 598 CURVE SMOOTH",
"220 582 OFFCURVE",
"232 551 OFFCURVE",
"244 523 CURVE SMOOTH",
"302 390 OFFCURVE",
"393 186 OFFCURVE",
"393 186 CURVE",
"393 186 OFFCURVE",
"515 493 OFFCURVE",
"525 521 CURVE SMOOTH",
"534 547 OFFCURVE",
"547 580 OFFCURVE",
"547 601 CURVE SMOOTH",
"547 619 OFFCURVE",
"480 624 OFFCURVE",
"467 625 CURVE",
"462 632 OFFCURVE",
"463 656 OFFCURVE",
"467 662 CURVE",
"514 658 OFFCURVE",
"540 655 OFFCURVE",
"586 655 CURVE SMOOTH",
"630 655 OFFCURVE",
"657 660 OFFCURVE",
"698 662 CURVE",
"702 656 OFFCURVE",
"703 632 OFFCURVE",
"698 625 CURVE",
"685 624 OFFCURVE",
"640 623 OFFCURVE",
"628 607 CURVE SMOOTH",
"613 587 OFFCURVE",
"601 557 OFFCURVE",
"587 524 CURVE SMOOTH",
"505 323 OFFCURVE",
"457 215 OFFCURVE",
"380 30 CURVE SMOOTH",
"372 12 OFFCURVE",
"344 -11 OFFCURVE",
"332 -11 CURVE SMOOTH",
"323 -11 OFFCURVE",
"323 -4 OFFCURVE",
"318 3 CURVE",
"100 510 LINE SMOOTH",
"88 539 OFFCURVE",
"74 572 OFFCURVE",
"65 592 CURVE SMOOTH",
"53 618 OFFCURVE",
"10 624 OFFCURVE",
"-3 625 CURVE",
"-8 632 OFFCURVE",
"-7 656 OFFCURVE",
"-3 662 CURVE",
"36 658 OFFCURVE",
"98 655 OFFCURVE"
);
}
);
width = 684;
}
);
unicode = 0056;
userData = {
com.fontlab.hintData = {
hhints = (
{
position = -11;
width = 21;
},
{
position = 625;
width = 37;
}
);
};
};
},
{
glyphname = W;
lastChange = "2017-07-12 19:24:33 +0000";
layers = (
{
layerId = "C3DEC2A7-F599-40A3-AE95-7DABCECAEB0F";
paths = (
{
closed = 1;
nodes = (
"141 655 CURVE SMOOTH",
"183 655 OFFCURVE",
"243 658 OFFCURVE",
"282 662 CURVE",
"286 656 OFFCURVE",
"287 632 OFFCURVE",
"282 625 CURVE",
"269 624 OFFCURVE",
"221 623 OFFCURVE",
"221 598 CURVE SMOOTH",
"221 582 OFFCURVE",
"234 552 OFFCURVE",
"245 523 CURVE SMOOTH",
"289 401 OFFCURVE",
"343 251 OFFCURVE",
"343 251 CURVE",
"343 251 OFFCURVE",
"452 560 OFFCURVE",
"476 625 CURVE SMOOTH",
"483 644 OFFCURVE",
"496 662 OFFCURVE",
"507 662 CURVE SMOOTH",
"511 662 OFFCURVE",
"515 657 OFFCURVE",
"519 646 CURVE SMOOTH",
"585 478 OFFCURVE",
"690 214 OFFCURVE",
"690 214 CURVE",
"690 214 OFFCURVE",
"778 489 OFFCURVE",
"788 521 CURVE SMOOTH",
"796 547 OFFCURVE",
"808 580 OFFCURVE",
"808 601 CURVE SMOOTH",
"808 619 OFFCURVE",
"743 624 OFFCURVE",
"730 625 CURVE",
"725 632 OFFCURVE",
"726 656 OFFCURVE",
"730 662 CURVE",
"777 658 OFFCURVE",
"803 655 OFFCURVE",
"849 655 CURVE SMOOTH",
"893 655 OFFCURVE",
"920 660 OFFCURVE",
"961 662 CURVE",
"965 656 OFFCURVE",
"966 632 OFFCURVE",
"961 625 CURVE",
"948 624 OFFCURVE",
"903 623 OFFCURVE",
"891 607 CURVE SMOOTH",
"876 587 OFFCURVE",
"861 559 OFFCURVE",
"850 524 CURVE SMOOTH",
"788 335 OFFCURVE",
"749 225 OFFCURVE",
"686 40 CURVE SMOOTH",
"677 15 OFFCURVE",
"658 -11 OFFCURVE",
"646 -11 CURVE SMOOTH",
"637 -11 OFFCURVE",
"632 -4 OFFCURVE",
"627 3 CURVE",
"462 418 LINE",
"462 418 OFFCURVE",
"384 188 OFFCURVE",
"335 44 CURVE SMOOTH",
"331 33 OFFCURVE",
"312 -11 OFFCURVE",
"300 -11 CURVE SMOOTH",
"291 -11 OFFCURVE",
"286 -4 OFFCURVE",
"281 3 CURVE",
"101 510 LINE SMOOTH",
"91 540 OFFCURVE",
"75 572 OFFCURVE",
"66 592 CURVE SMOOTH",
"54 618 OFFCURVE",
"11 624 OFFCURVE",
"-2 625 CURVE",
"-8 632 OFFCURVE",
"-6 656 OFFCURVE",
"-2 662 CURVE",
"37 658 OFFCURVE",
"99 655 OFFCURVE"
);
}
);
width = 951;
}
);
unicode = 0057;
userData = {
com.fontlab.hintData = {
hhints = (
{
position = -11;
width = 21;
},
{
position = 625;
width = 37;
}
);
};
};
},
{
glyphname = X;
lastChange = "2017-07-12 19:24:33 +0000";
layers = (
{
layerId = "C3DEC2A7-F599-40A3-AE95-7DABCECAEB0F";
paths = (
{
closed = 1;
nodes = (
"176 656 CURVE SMOOTH",
"225 656 OFFCURVE",
"280 660 OFFCURVE",
"320 662 CURVE",
"322 656 OFFCURVE",
"323 625 OFFCURVE",
"318 625 CURVE",
"304 625 OFFCURVE",
"266 619 OFFCURVE",
"265 604 CURVE SMOOTH",
"265 598 OFFCURVE",
"269 588 OFFCURVE",
"273 582 CURVE SMOOTH",
"384 414 LINE",
"428 471 OFFCURVE",
"499 551 OFFCURVE",
"514 584 CURVE SMOOTH",
"516 588 OFFCURVE",
"517 591 OFFCURVE",
"517 594 CURVE SMOOTH",
"517 611 OFFCURVE",
"477 625 OFFCURVE",
"443 625 CURVE",
"438 625 OFFCURVE",
"437 657 OFFCURVE",
"442 662 CURVE",
"477 658 OFFCURVE",
"538 655 OFFCURVE",
"575 655 CURVE SMOOTH",
"627 655 OFFCURVE",
"666 658 OFFCURVE",
"695 662 CURVE",
"698 656 OFFCURVE",
"699 625 OFFCURVE",
"694 625 CURVE",
"686 625 OFFCURVE",
"625 623 OFFCURVE",
"582 572 CURVE SMOOTH",
"411 369 LINE",
"495 242 OFFCURVE",
"597 93 OFFCURVE",
"612 76 CURVE SMOOTH",
"641 41 OFFCURVE",
"697 33 OFFCURVE",
"711 33 CURVE",
"715 24 OFFCURVE",
"716 4 OFFCURVE",
"711 -4 CURVE",
"671 -2 OFFCURVE",
"592 2 OFFCURVE",
"551 2 CURVE SMOOTH",
"495 2 OFFCURVE",
"449 -2 OFFCURVE",
"393 -4 CURVE",
"388 1 OFFCURVE",
"390 33 OFFCURVE",
"395 33 CURVE SMOOTH",
"406 33 OFFCURVE",
"451 43 OFFCURVE",
"451 61 CURVE SMOOTH",
"451 64 OFFCURVE",
"450 69 OFFCURVE",
"448 72 CURVE SMOOTH",
"315 273 LINE",
"300 253 OFFCURVE",
"205 130 OFFCURVE",
"177 83 CURVE SMOOTH",
"172 75 OFFCURVE",
"169 69 OFFCURVE",
"169 66 CURVE SMOOTH",
"169 42 OFFCURVE",
"222 33 OFFCURVE",
"252 33 CURVE",
"257 26 OFFCURVE",
"258 7 OFFCURVE",
"255 -4 CURVE",
"222 -2 OFFCURVE",
"160 2 OFFCURVE",
"123 2 CURVE SMOOTH",
"71 2 OFFCURVE",
"35 -2 OFFCURVE",
"-5 -4 CURVE",
"-10 2 OFFCURVE",
"-10 26 OFFCURVE",
"-5 33 CURVE",
"3 33 OFFCURVE",
"72 35 OFFCURVE",
"104 79 CURVE SMOOTH",
"282 322 LINE",
"142 537 LINE SMOOTH",
"124 564 OFFCURVE",
"102 600 OFFCURVE",
"88 610 CURVE SMOOTH",
"74 620 OFFCURVE",
"32 625 OFFCURVE",
"20 625 CURVE",
"15 625 OFFCURVE",
"15 657 OFFCURVE",
"20 662 CURVE",
"69 660 OFFCURVE",
"127 656 OFFCURVE"
);
}
);
width = 710;
}
);
unicode = 0058;
userData = {
com.fontlab.hintData = {
hhints = (
{
position = -4;
width = 37;
},
{
position = 625;
width = 37;
}
);
};
};
},
{
glyphname = Y;
lastChange = "2017-07-12 19:24:33 +0000";
layers = (
{
layerId = "C3DEC2A7-F599-40A3-AE95-7DABCECAEB0F";
paths = (
{
closed = 1;
nodes = (
"233 145 CURVE SMOOTH",
"233 284 LINE SMOOTH",
"233 291 OFFCURVE",
"232 296 OFFCURVE",
"228 304 CURVE SMOOTH",
"203 359 OFFCURVE",
"102 537 OFFCURVE",
"102 537 CURVE SMOOTH",
"87 565 OFFCURVE",
"83 572 OFFCURVE",
"71 592 CURVE SMOOTH",
"56 617 OFFCURVE",
"16 624 OFFCURVE",
"3 625 CURVE",
"-2 632 OFFCURVE",
"-1 656 OFFCURVE",
"3 662 CURVE",
"42 658 OFFCURVE",
"104 655 OFFCURVE",
"146 655 CURVE SMOOTH",
"188 655 OFFCURVE",
"248 658 OFFCURVE",
"287 662 CURVE",
"291 656 OFFCURVE",
"292 632 OFFCURVE",
"287 625 CURVE",
"274 624 OFFCURVE",
"226 623 OFFCURVE",
"226 598 CURVE SMOOTH",
"226 594 OFFCURVE",
"229 589 OFFCURVE",
"233 582 CURVE SMOOTH",
"353 361 LINE",
"358 356 OFFCURVE",
"436 498 OFFCURVE",
"479 578 CURVE SMOOTH",
"483 586 OFFCURVE",
"484 594 OFFCURVE",
"484 601 CURVE SMOOTH",
"484 619 OFFCURVE",
"423 624 OFFCURVE",
"410 625 CURVE",
"405 632 OFFCURVE",
"406 656 OFFCURVE",
"410 662 CURVE",
"457 658 OFFCURVE",
"477 655 OFFCURVE",
"523 655 CURVE SMOOTH",
"567 655 OFFCURVE",
"594 660 OFFCURVE",
"635 662 CURVE",
"639 656 OFFCURVE",
"640 632 OFFCURVE",
"635 625 CURVE",
"622 624 OFFCURVE",
"576 623 OFFCURVE",
"561 600 CURVE SMOOTH",
"541 571 OFFCURVE",
"408 357 OFFCURVE",
"379 298 CURVE SMOOTH",
"376 291 OFFCURVE",
"373 285 OFFCURVE",
"373 279 CURVE SMOOTH",
"373 145 LINE SMOOTH",
"373 102 OFFCURVE",
"373 71 OFFCURVE",
"381 51 CURVE SMOOTH",
"386 38 OFFCURVE",
"432 34 OFFCURVE",
"445 33 CURVE",
"450 26 OFFCURVE",
"449 2 OFFCURVE",
"445 -4 CURVE",
"406 0 OFFCURVE",
"344 3 OFFCURVE",
"302 3 CURVE SMOOTH",
"260 3 OFFCURVE",
"200 0 OFFCURVE",
"161 -4 CURVE",
"157 2 OFFCURVE",
"156 26 OFFCURVE",
"161 33 CURVE",
"174 34 OFFCURVE",
"220 38 OFFCURVE",
"225 51 CURVE SMOOTH",
"233 71 OFFCURVE",
"233 102 OFFCURVE"
);
}
);
width = 624;
}
);
unicode = 0059;
userData = {
com.fontlab.hintData = {
hhints = (
{
position = -4;
width = 37;
},
{
position = 625;
width = 37;
}
);
vhints = (
{
position = 233;
width = 140;
}
);
};
};
},
{
glyphname = Z;
lastChange = "2017-07-12 19:24:33 +0000";
layers = (
{
layerId = "C3DEC2A7-F599-40A3-AE95-7DABCECAEB0F";
paths = (
{
closed = 1;
nodes = (
"233 610 LINE SMOOTH",
"127 610 OFFCURVE",
"111 536 OFFCURVE",
"88 474 CURVE SMOOTH",
"87 471 OFFCURVE",
"85 468 OFFCURVE",
"75 468 CURVE SMOOTH",
"64 468 OFFCURVE",
"49 470 OFFCURVE",
"46 473 CURVE",
"57 531 OFFCURVE",
"72 598 OFFCURVE",
"82 662 CURVE",
"98 658 OFFCURVE",
"199 655 OFFCURVE",
"213 655 CURVE SMOOTH",
"353 656 LINE SMOOTH",
"437 657 OFFCURVE",
"501 660 OFFCURVE",
"585 666 CURVE",
"589 665 OFFCURVE",
"595 643 OFFCURVE",
"595 633 CURVE",
"593 625 OFFCURVE",
"206 47 OFFCURVE",
"206 47 CURVE",
"422 47 LINE SMOOTH",
"460 47 OFFCURVE",
"494 59 OFFCURVE",
"517 82 CURVE SMOOTH",
"538 103 OFFCURVE",
"553 125 OFFCURVE",
"570 170 CURVE SMOOTH",
"571 174 OFFCURVE",
"577 176 OFFCURVE",
"584 176 CURVE SMOOTH",
"594 176 OFFCURVE",
"611 173 OFFCURVE",
"614 170 CURVE",
"598 117 OFFCURVE",
"569 44 OFFCURVE",
"560 1 CURVE",
"518 1 OFFCURVE",
"46 0 OFFCURVE",
"46 0 CURVE",
"33 0 OFFCURVE",
"17 18 OFFCURVE",
"20 22 CURVE SMOOTH",
"416 610 LINE"
);
}
);
width = 640;
}
);
unicode = 005A;
userData = {
com.fontlab.hintData = {
hhints = (
{
position = 1;
width = 46;
},
{
position = 610;
width = 45;
},
{
position = 642;
width = 20;
}
);
};
};
},
{
glyphname = uni01EA;
lastChange = "2017-07-12 19:24:33 +0000";
layers = (
{
layerId = "C3DEC2A7-F599-40A3-AE95-7DABCECAEB0F";
paths = (
{
closed = 1;
nodes = (
"349 611 CURVE SMOOTH",
"237 611 OFFCURVE",
"199 484 OFFCURVE",
"199 350 CURVE SMOOTH",
"199 226 OFFCURVE",
"242 46 OFFCURVE",
"380 46 CURVE SMOOTH",
"487 46 OFFCURVE",
"530 174 OFFCURVE",
"530 309 CURVE SMOOTH",
"530 443 OFFCURVE",
"494 611 OFFCURVE"
);
},
{
closed = 1;
nodes = (
"364 667 CURVE SMOOTH",
"540 667 OFFCURVE",
"686 515 OFFCURVE",
"686 328 CURVE SMOOTH",
"686 208 OFFCURVE",
"630 111 OFFCURVE",
"544 48 CURVE SMOOTH",
"489 8 OFFCURVE",
"440 -55 OFFCURVE",
"440 -110 CURVE SMOOTH",
"440 -131 OFFCURVE",
"460 -142 OFFCURVE",
"481 -142 CURVE SMOOTH",
"509 -142 OFFCURVE",
"548 -120 OFFCURVE",
"561 -109 CURVE SMOOTH",
"562 -109 OFFCURVE",
"566 -119 OFFCURVE",
"566 -127 CURVE SMOOTH",
"566 -132 OFFCURVE",
"563 -145 OFFCURVE",
"560 -149 CURVE SMOOTH",
"545 -168 OFFCURVE",
"493 -218 OFFCURVE",
"437 -218 CURVE SMOOTH",
"404 -218 OFFCURVE",
"356 -193 OFFCURVE",
"356 -140 CURVE SMOOTH",
"356 -96 OFFCURVE",
"396 -32 OFFCURVE",
"443 1 CURVE",
"421 -7 OFFCURVE",
"389 -10 OFFCURVE",
"364 -10 CURVE SMOOTH",
"188 -10 OFFCURVE",
"43 141 OFFCURVE",
"43 328 CURVE SMOOTH",
"43 515 OFFCURVE",
"188 667 OFFCURVE"
);
}
);
width = 727;
}
);
unicode = 01EA;
userData = {
com.fontlab.hintData = {
hhints = (
{
position = -218;
width = 76;
},
{
position = -10;
width = 56;
},
{
position = 611;
width = 56;
}
);
vhints = (
{
position = 43;
width = 156;
},
{
position = 356;
width = 84;
},
{
position = 530;
width = 156;
}
);
};
};
},
{
glyphname = uni1EC4;
lastChange = "2017-07-12 19:24:33 +0000";
layers = (
{
components = (
{
name = E;
transform = "{1, 0, 0, 1, -3, 0}";
}
);
layerId = "C3DEC2A7-F599-40A3-AE95-7DABCECAEB0F";
paths = (
{
closed = 1;
nodes = (
"345 865 CURVE SMOOTH",
"366 865 OFFCURVE",
"385 883 OFFCURVE",
"394 902 CURVE",
"396 903 OFFCURVE",
"399 903 OFFCURVE",
"400 903 CURVE SMOOTH",
"405 903 OFFCURVE",
"409 895 OFFCURVE",
"409 888 CURVE SMOOTH",
"409 849 OFFCURVE",
"358 821 OFFCURVE",
"333 821 CURVE SMOOTH",
"278 821 OFFCURVE",
"250 862 OFFCURVE",
"198 862 CURVE SMOOTH",
"179 862 OFFCURVE",
"160 848 OFFCURVE",
"151 829 CURVE",
"149 828 OFFCURVE",
"146 828 OFFCURVE",
"145 828 CURVE SMOOTH",
"140 828 OFFCURVE",
"136 836 OFFCURVE",
"136 843 CURVE SMOOTH",
"136 882 OFFCURVE",
"187 906 OFFCURVE",
"212 906 CURVE SMOOTH",
"266 906 OFFCURVE",
"291 865 OFFCURVE"
);
},
{
closed = 1;
nodes = (
"377 693 CURVE SMOOTH",
"365 693 OFFCURVE",
"303 725 OFFCURVE",
"272 744 CURVE",
"241 723 OFFCURVE",
"181 693 OFFCURVE",
"169 693 CURVE SMOOTH",
"162 693 OFFCURVE",
"159 707 OFFCURVE",
"159 711 CURVE",
"167 719 OFFCURVE",
"193 738 OFFCURVE",
"220 762 CURVE SMOOTH",
"235 775 OFFCURVE",
"250 789 OFFCURVE",
"262 804 CURVE SMOOTH",
"267 809 OFFCURVE",
"268 811 OFFCURVE",
"272 811 CURVE SMOOTH",
"277 811 OFFCURVE",
"280 809 OFFCURVE",
"283 804 CURVE SMOOTH",
"295 789 OFFCURVE",
"309 774 OFFCURVE",
"324 760 CURVE SMOOTH",
"354 734 OFFCURVE",
"385 714 OFFCURVE",
"386 711 CURVE",
"386 704 OFFCURVE",
"383 693 OFFCURVE"
);
}
);
width = 605;
}
);
unicode = 1EC4;
userData = {
com.fontlab.hintData = {
hhints = (
{
position = -3;
width = 37;
},
{
position = -2;
width = 44;
},
{
position = 310;
width = 47;
},
{
position = 620;
width = 37;
},
{
position = 821;
width = 44;
},
{
position = 862;
width = 44;
}
);
vhints = (
{
position = 107;
width = 140;
},
{
position = 431;
width = 31;
}
);
};
};
},
{
glyphname = a;
lastChange = "2017-07-12 19:24:33 +0000";
layers = (
{
layerId = "C3DEC2A7-F599-40A3-AE95-7DABCECAEB0F";
paths = (
{
closed = 1;
nodes = (
"227 62 CURVE SMOOTH",
"252 62 OFFCURVE",
"268 77 OFFCURVE",
"268 83 CURVE SMOOTH",
"268 223 LINE",
"248 213 OFFCURVE",
"222 204 OFFCURVE",
"202 191 CURVE SMOOTH",
"174 173 OFFCURVE",
"165 146 OFFCURVE",
"166 124 CURVE SMOOTH",
"167 81 OFFCURVE",
"201 62 OFFCURVE"
);
},
{
closed = 1;
nodes = (
"248 449 CURVE SMOOTH",
"331 449 OFFCURVE",
"398 386 OFFCURVE",
"398 296 CURVE SMOOTH",
"398 109 LINE SMOOTH",
"398 82 OFFCURVE",
"409 68 OFFCURVE",
"422 68 CURVE SMOOTH",
"436 68 OFFCURVE",
"447 76 OFFCURVE",
"451 78 CURVE",
"455 76 OFFCURVE",
"458 67 OFFCURVE",
"458 61 CURVE SMOOTH",
"458 54 OFFCURVE",
"457 51 OFFCURVE",
"454 46 CURVE",
"440 33 OFFCURVE",
"393 -6 OFFCURVE",
"351 -6 CURVE SMOOTH",
"318 -6 OFFCURVE",
"284 20 OFFCURVE",
"275 44 CURVE",
"266 36 OFFCURVE",
"198 -8 OFFCURVE",
"162 -8 CURVE SMOOTH",
"86 -8 OFFCURVE",
"31 55 OFFCURVE",
"31 114 CURVE SMOOTH",
"31 153 OFFCURVE",
"57 186 OFFCURVE",
"83 194 CURVE SMOOTH",
"121 206 OFFCURVE",
"217 245 OFFCURVE",
"268 264 CURVE",
"268 271 OFFCURVE",
"268 278 OFFCURVE",
"268 285 CURVE SMOOTH",
"268 311 LINE SMOOTH",
"268 361 OFFCURVE",
"244 411 OFFCURVE",
"209 411 CURVE SMOOTH",
"171 411 OFFCURVE",
"161 372 OFFCURVE",
"151 327 CURVE SMOOTH",
"146 304 OFFCURVE",
"130 283 OFFCURVE",
"95 283 CURVE SMOOTH",
"68 283 OFFCURVE",
"43 303 OFFCURVE",
"43 331 CURVE SMOOTH",
"43 344 OFFCURVE",
"49 358 OFFCURVE",
"57 372 CURVE",
"70 385 OFFCURVE",
"160 449 OFFCURVE"
);
}
);
width = 472;
}
);
unicode = 0061;
userData = {
com.fontlab.hintData = {
hhints = (
{
position = -8;
width = 70;
},
{
position = 411;
width = 38;
}
);
vhints = (
{
position = 31;
width = 135;
},
{
position = 43;
width = 108;
},
{
position = 268;
width = 130;
}
);
};
};
},
{
glyphname = aogonek;
lastChange = "2017-07-12 19:24:33 +0000";
layers = (
{
layerId = "C3DEC2A7-F599-40A3-AE95-7DABCECAEB0F";
paths = (
{
closed = 1;
nodes = (
"454 46 CURVE",
"448 41 OFFCURVE",
"428 24 OFFCURVE",
"406 11 CURVE SMOOTH",
"371 -10 OFFCURVE",
"284 -57 OFFCURVE",
"284 -101 CURVE SMOOTH",
"284 -122 OFFCURVE",
"296 -148 OFFCURVE",
"333 -148 CURVE SMOOTH",
"361 -148 OFFCURVE",
"398 -117 OFFCURVE",
"408 -109 CURVE",
"411 -109 OFFCURVE",
"414 -112 OFFCURVE",
"414 -120 CURVE SMOOTH",
"414 -125 OFFCURVE",
"410 -141 OFFCURVE",
"407 -145 CURVE SMOOTH",
"392 -164 OFFCURVE",
"340 -218 OFFCURVE",
"284 -218 CURVE SMOOTH",
"251 -218 OFFCURVE",
"210 -192 OFFCURVE",
"210 -140 CURVE SMOOTH",
"210 -84 OFFCURVE",
"280 -26 OFFCURVE",
"326 0 CURVE",
"308 4 OFFCURVE",
"281 28 OFFCURVE",
"275 44 CURVE",
"266 36 OFFCURVE",
"198 -8 OFFCURVE",
"162 -8 CURVE SMOOTH",
"86 -8 OFFCURVE",
"31 55 OFFCURVE",
"31 114 CURVE SMOOTH",
"31 153 OFFCURVE",
"57 186 OFFCURVE",
"83 194 CURVE SMOOTH",
"121 206 OFFCURVE",
"217 245 OFFCURVE",
"268 264 CURVE",
"268 271 OFFCURVE",
"268 278 OFFCURVE",
"268 285 CURVE SMOOTH",
"268 311 LINE SMOOTH",
"268 361 OFFCURVE",
"244 411 OFFCURVE",
"209 411 CURVE SMOOTH",
"171 411 OFFCURVE",
"161 372 OFFCURVE",
"151 327 CURVE SMOOTH",
"146 304 OFFCURVE",
"130 283 OFFCURVE",
"95 283 CURVE SMOOTH",
"68 283 OFFCURVE",
"43 303 OFFCURVE",
"43 331 CURVE SMOOTH",
"43 344 OFFCURVE",
"49 358 OFFCURVE",
"57 372 CURVE",
"70 385 OFFCURVE",
"160 449 OFFCURVE",
"248 449 CURVE SMOOTH",
"331 449 OFFCURVE",
"398 386 OFFCURVE",
"398 296 CURVE SMOOTH",
"398 109 LINE SMOOTH",
"398 82 OFFCURVE",
"409 68 OFFCURVE",
"422 68 CURVE SMOOTH",
"436 68 OFFCURVE",
"447 76 OFFCURVE",
"451 78 CURVE",
"455 76 OFFCURVE",
"458 67 OFFCURVE",
"458 61 CURVE SMOOTH",
"458 54 OFFCURVE",
"457 51 OFFCURVE"
);
},
{
closed = 1;
nodes = (
"227 62 CURVE SMOOTH",
"252 62 OFFCURVE",
"268 77 OFFCURVE",
"268 83 CURVE SMOOTH",
"268 223 LINE",
"248 213 OFFCURVE",
"222 204 OFFCURVE",
"202 191 CURVE SMOOTH",
"174 173 OFFCURVE",
"165 146 OFFCURVE",
"166 124 CURVE SMOOTH",
"167 81 OFFCURVE",
"201 62 OFFCURVE"
);
}
);
width = 472;
}
);
unicode = 0105;
userData = {
com.fontlab.hintData = {
hhints = (
{
position = -218;
width = 70;
},
{
position = -8;
width = 70;
},
{
position = 411;
width = 38;
}
);
vhints = (
{
position = 31;
width = 135;
},
{
position = 43;
width = 108;
},
{
position = 210;
width = 74;
},
{
position = 268;
width = 130;
}
);
};
};
},
{
glyphname = ae;
lastChange = "2017-07-12 19:24:33 +0000";
layers = (
{
layerId = "C3DEC2A7-F599-40A3-AE95-7DABCECAEB0F";
paths = (
{
closed = 1;
nodes = (
"202 191 CURVE SMOOTH",
"174 173 OFFCURVE",
"165 146 OFFCURVE",
"166 124 CURVE SMOOTH",
"167 81 OFFCURVE",
"201 62 OFFCURVE",
"227 62 CURVE SMOOTH",
"252 62 OFFCURVE",
"296 85 OFFCURVE",
"296 102 CURVE",
"289 124 OFFCURVE",
"281 161 OFFCURVE",
"281 194 CURVE SMOOTH",
"281 206 OFFCURVE",
"281 208 OFFCURVE",
"282 223 CURVE",
"263 216 OFFCURVE",
"222 204 OFFCURVE"
);
},
{
closed = 1;
nodes = (
"480 406 CURVE SMOOTH",
"421 406 OFFCURVE",
"399 316 OFFCURVE",
"399 282 CURVE",
"408 281 OFFCURVE",
"504 287 OFFCURVE",
"528 290 CURVE SMOOTH",
"540 291 OFFCURVE",
"541 300 OFFCURVE",
"541 306 CURVE SMOOTH",
"541 352 OFFCURVE",
"525 406 OFFCURVE"
);
},
{
closed = 1;
nodes = (
"490 447 CURVE SMOOTH",
"621 447 OFFCURVE",
"665 354 OFFCURVE",
"665 296 CURVE SMOOTH",
"665 274 OFFCURVE",
"653 255 OFFCURVE",
"638 254 CURVE SMOOTH",
"570 248 OFFCURVE",
"472 244 OFFCURVE",
"398 242 CURVE",
"398 102 OFFCURVE",
"493 75 OFFCURVE",
"538 75 CURVE SMOOTH",
"596 75 OFFCURVE",
"629 102 OFFCURVE",
"650 125 CURVE",
"657 123 OFFCURVE",
"662 113 OFFCURVE",
"662 107 CURVE SMOOTH",
"662 100 OFFCURVE",
"661 91 OFFCURVE",
"659 88 CURVE SMOOTH",
"641 60 OFFCURVE",
"573 -9 OFFCURVE",
"478 -9 CURVE SMOOTH",
"411 -9 OFFCURVE",
"353 16 OFFCURVE",
"318 64 CURVE",
"267 23 OFFCURVE",
"196 -8 OFFCURVE",
"162 -8 CURVE SMOOTH",
"86 -8 OFFCURVE",
"31 55 OFFCURVE",
"31 114 CURVE SMOOTH",
"31 153 OFFCURVE",
"57 186 OFFCURVE",
"83 194 CURVE SMOOTH",
"121 206 OFFCURVE",
"234 245 OFFCURVE",
"285 263 CURVE",
"289 266 OFFCURVE",
"293 278 OFFCURVE",
"293 285 CURVE SMOOTH",
"293 298 OFFCURVE",
"293 307 OFFCURVE",
"291 318 CURVE SMOOTH",
"281 375 OFFCURVE",
"244 411 OFFCURVE",
"209 411 CURVE SMOOTH",
"171 411 OFFCURVE",
"161 372 OFFCURVE",
"151 327 CURVE SMOOTH",
"146 304 OFFCURVE",
"130 283 OFFCURVE",
"95 283 CURVE SMOOTH",
"68 283 OFFCURVE",
"43 303 OFFCURVE",
"43 331 CURVE SMOOTH",
"43 344 OFFCURVE",
"49 358 OFFCURVE",
"57 372 CURVE",
"70 385 OFFCURVE",
"160 449 OFFCURVE",
"248 449 CURVE SMOOTH",
"295 449 OFFCURVE",
"337 429 OFFCURVE",
"365 394 CURVE",
"400 426 OFFCURVE",
"444 447 OFFCURVE"
);
}
);
width = 696;
}
);
unicode = 00E6;
userData = {
com.fontlab.hintData = {
hhints = (
{
position = -9;
width = 84;
},
{
position = -8;
width = 70;
},
{
position = 242;
width = 40;
},
{
position = 406;
width = 41;
}
);
vhints = (
{
position = 31;
width = 135;
},
{
position = 43;
width = 108;
},
{
position = 541;
width = 124;
}
);
};
};
},
{
glyphname = b;
lastChange = "2017-07-12 19:24:33 +0000";
layers = (
{
layerId = "C3DEC2A7-F599-40A3-AE95-7DABCECAEB0F";
paths = (
{
closed = 1;
nodes = (
"243 -8 CURVE SMOOTH",
"191 -8 OFFCURVE",
"143 15 OFFCURVE",
"117 15 CURVE SMOOTH",
"99 15 OFFCURVE",
"87 11 OFFCURVE",
"80 8 CURVE",
"77 8 OFFCURVE",
"56 26 OFFCURVE",
"56 33 CURVE",
"63 51 OFFCURVE",
"68 86 OFFCURVE",
"68 152 CURVE SMOOTH",
"68 558 LINE SMOOTH",
"68 575 OFFCURVE",
"68 589 OFFCURVE",
"61 606 CURVE SMOOTH",
"56 618 OFFCURVE",
"13 624 OFFCURVE",
"1 624 CURVE",
"-3 624 OFFCURVE",
"-4 652 OFFCURVE",
"1 656 CURVE",
"113 666 OFFCURVE",
"191 695 OFFCURVE",
"194 695 CURVE",
"200 694 OFFCURVE",
"208 683 OFFCURVE",
"209 678 CURVE",
"209 678 OFFCURVE",
"198 633 OFFCURVE",
"198 577 CURVE SMOOTH",
"198 415 LINE SMOOTH",
"198 410 OFFCURVE",
"198 397 OFFCURVE",
"204 402 CURVE SMOOTH",
"219 414 OFFCURVE",
"269 449 OFFCURVE",
"303 449 CURVE SMOOTH",
"419 449 OFFCURVE",
"511 359 OFFCURVE",
"511 236 CURVE SMOOTH",
"511 76 OFFCURVE",
"373 -8 OFFCURVE"
);
},
{
closed = 1;
nodes = (
"253 375 CURVE SMOOTH",
"225 375 OFFCURVE",
"210 363 OFFCURVE",
"201 353 CURVE SMOOTH",
"198 350 OFFCURVE",
"198 347 OFFCURVE",
"198 344 CURVE SMOOTH",
"198 98 LINE SMOOTH",
"198 64 OFFCURVE",
"222 36 OFFCURVE",
"264 36 CURVE SMOOTH",
"328 36 OFFCURVE",
"367 122 OFFCURVE",
"367 196 CURVE SMOOTH",
"367 333 OFFCURVE",
"315 375 OFFCURVE"
);
}
);
width = 542;
}
);
unicode = 0062;
userData = {
com.fontlab.hintData = {
hhints = (
{
position = -8;
width = 44;
},
{
position = 375;
width = 74;
},
{
position = 624;
width = 32;
},
{
position = 675;
width = 20;
}
);
vhints = (
{
position = 68;
width = 130;
},
{
position = 367;
width = 144;
}
);
};
};
},
{
glyphname = c;
lastChange = "2017-07-12 19:24:33 +0000";
layers = (
{
layerId = "C3DEC2A7-F599-40A3-AE95-7DABCECAEB0F";
paths = (
{
closed = 1;
nodes = (
"413 382 CURVE SMOOTH",
"413 353 OFFCURVE",
"391 320 OFFCURVE",
"355 320 CURVE SMOOTH",
"328 320 OFFCURVE",
"311 347 OFFCURVE",
"295 365 CURVE SMOOTH",
"278 384 OFFCURVE",
"252 396 OFFCURVE",
"227 396 CURVE SMOOTH",
"183 396 OFFCURVE",
"157 319 OFFCURVE",
"157 258 CURVE SMOOTH",
"157 118 OFFCURVE",
"237 75 OFFCURVE",
"301 75 CURVE SMOOTH",
"359 75 OFFCURVE",
"392 102 OFFCURVE",
"413 125 CURVE",
"420 123 OFFCURVE",
"425 113 OFFCURVE",
"425 107 CURVE SMOOTH",
"425 100 OFFCURVE",
"424 91 OFFCURVE",
"422 88 CURVE SMOOTH",
"404 60 OFFCURVE",
"336 -9 OFFCURVE",
"241 -9 CURVE SMOOTH",
"129 -9 OFFCURVE",
"31 69 OFFCURVE",
"31 200 CURVE SMOOTH",
"31 322 OFFCURVE",
"154 448 OFFCURVE",
"292 448 CURVE SMOOTH",
"347 448 OFFCURVE",
"382 437 OFFCURVE",
"393 430 CURVE",
"402 420 OFFCURVE",
"413 408 OFFCURVE"
);
}
);
width = 447;
}
);
unicode = 0063;
userData = {
com.fontlab.hintData = {
hhints = (
{
position = -9;
width = 84;
},
{
position = 396;
width = 52;
}
);
vhints = (
{
position = 31;
width = 126;
}
);
};
};
},
{
glyphname = d;
lastChange = "2017-07-12 19:24:33 +0000";
layers = (
{
layerId = "C3DEC2A7-F599-40A3-AE95-7DABCECAEB0F";
paths = (
{
closed = 1;
nodes = (
"294 446 CURVE SMOOTH",
"315 446 OFFCURVE",
"326 445 OFFCURVE",
"334 444 CURVE",
"338 444 OFFCURVE",
"339 459 OFFCURVE",
"339 467 CURVE SMOOTH",
"339 492 OFFCURVE",
"339 525 OFFCURVE",
"339 558 CURVE SMOOTH",
"339 577 OFFCURVE",
"339 589 OFFCURVE",
"332 606 CURVE SMOOTH",
"327 618 OFFCURVE",
"284 624 OFFCURVE",
"272 624 CURVE",
"268 624 OFFCURVE",
"267 652 OFFCURVE",
"272 656 CURVE",
"384 666 OFFCURVE",
"462 695 OFFCURVE",
"465 695 CURVE",
"471 694 OFFCURVE",
"479 683 OFFCURVE",
"480 678 CURVE",
"480 678 OFFCURVE",
"469 633 OFFCURVE",
"469 577 CURVE SMOOTH",
"469 108 LINE SMOOTH",
"469 93 OFFCURVE",
"469 80 OFFCURVE",
"478 70 CURVE SMOOTH",
"487 60 OFFCURVE",
"514 60 OFFCURVE",
"523 60 CURVE",
"525 58 OFFCURVE",
"526 54 OFFCURVE",
"526 47 CURVE SMOOTH",
"526 41 OFFCURVE",
"524 34 OFFCURVE",
"520 28 CURVE",
"461 22 OFFCURVE",
"361 -7 OFFCURVE",
"348 -7 CURVE SMOOTH",
"344 -7 OFFCURVE",
"339 2 OFFCURVE",
"339 17 CURVE SMOOTH",
"339 33 LINE SMOOTH",
"339 35 OFFCURVE",
"339 40 OFFCURVE",
"336 38 CURVE SMOOTH",
"320 27 OFFCURVE",
"266 -8 OFFCURVE",
"213 -8 CURVE SMOOTH",
"117 -8 OFFCURVE",
"32 82 OFFCURVE",
"32 200 CURVE SMOOTH",
"32 370 OFFCURVE",
"203 446 OFFCURVE"
);
},
{
closed = 1;
nodes = (
"261 395 CURVE SMOOTH",
"197 395 OFFCURVE",
"174 323 OFFCURVE",
"174 243 CURVE SMOOTH",
"174 133 OFFCURVE",
"213 56 OFFCURVE",
"275 56 CURVE SMOOTH",
"303 56 OFFCURVE",
"339 80 OFFCURVE",
"339 93 CURVE SMOOTH",
"339 350 LINE SMOOTH",
"339 368 OFFCURVE",
"303 395 OFFCURVE"
);
}
);
width = 547;
}
);
unicode = 0064;
userData = {
com.fontlab.hintData = {
hhints = (
{
position = -8;
width = 64;
},
{
position = 28;
width = 32;
},
{
position = 395;
width = 51;
},
{
position = 624;
width = 32;
},
{
position = 675;
width = 20;
}
);
vhints = (
{
position = 32;
width = 142;
},
{
position = 339;
width = 130;
}
);
};
};
},
{
glyphname = eth;
lastChange = "2017-07-12 19:24:33 +0000";
layers = (
{
layerId = "C3DEC2A7-F599-40A3-AE95-7DABCECAEB0F";
paths = (
{
closed = 1;
nodes = (
"367 708 LINE",
"372 702 OFFCURVE",
"393 679 OFFCURVE",
"388 674 CURVE",
"135 502 LINE",
"129 509 OFFCURVE",
"110 532 OFFCURVE",
"115 537 CURVE"
);
},
{
closed = 1;
nodes = (
"264 406 CURVE SMOOTH",
"193 406 OFFCURVE",
"171 303 OFFCURVE",
"171 212 CURVE SMOOTH",
"171 96 OFFCURVE",
"226 36 OFFCURVE",
"265 36 CURVE SMOOTH",
"332 36 OFFCURVE",
"350 135 OFFCURVE",
"350 225 CURVE SMOOTH",
"350 276 OFFCURVE",
"342 333 OFFCURVE",
"321 375 CURVE",
"309 392 OFFCURVE",
"292 406 OFFCURVE"
);
},
{
closed = 1;
nodes = (
"246 448 CURVE SMOOTH",
"271 448 OFFCURVE",
"290 445 OFFCURVE",
"311 440 CURVE",
"285 516 OFFCURVE",
"223 607 OFFCURVE",
"97 663 CURVE",
"95 674 OFFCURVE",
"96 685 OFFCURVE",
"104 691 CURVE",
"172 681 OFFCURVE",
"299 627 OFFCURVE",
"385 530 CURVE SMOOTH",
"444 464 OFFCURVE",
"489 378 OFFCURVE",
"489 259 CURVE SMOOTH",
"489 107 OFFCURVE",
"395 -6 OFFCURVE",
"263 -6 CURVE SMOOTH",
"157 -6 OFFCURVE",
"33 59 OFFCURVE",
"33 218 CURVE SMOOTH",
"33 373 OFFCURVE",
"149 448 OFFCURVE"
);
}
);
width = 540;
}
);
unicode = 00F0;
userData = {
com.fontlab.hintData = {
hhints = (
{
position = -6;
width = 42;
},
{
position = 406;
width = 42;
},
{
position = 663;
width = 28;
}
);
vhints = (
{
position = 33;
width = 138;
},
{
position = 350;
width = 139;
}
);
};
};
},
{
glyphname = dcroat;
lastChange = "2017-07-12 19:24:33 +0000";
layers = (
{
components = (
{
name = d;
}
);
layerId = "C3DEC2A7-F599-40A3-AE95-7DABCECAEB0F";
paths = (
{
closed = 1;
nodes = (
"524 527 CURVE",
"495 527 OFFCURVE",
"209 527 OFFCURVE",
"195 527 CURVE",
"191 527 OFFCURVE",
"190 555 OFFCURVE",
"196 564 CURVE",
"225 564 OFFCURVE",
"510 564 OFFCURVE",
"524 564 CURVE",
"528 564 OFFCURVE",
"528 536 OFFCURVE"
);
}
);
width = 544;
}
);
unicode = 0111;
userData = {
com.fontlab.hintData = {
hhints = (
{
position = -8;
width = 64;
},
{
position = 28;
width = 32;
},
{
position = 395;
width = 51;
},
{
position = 527;
width = 37;
},
{
position = 624;
width = 32;
},
{
position = 675;
width = 20;
}
);
vhints = (
{
position = 32;
width = 142;
},
{
position = 339;
width = 130;
}
);
};
};
},
{
glyphname = e;
lastChange = "2017-07-12 19:24:33 +0000";
layers = (
{
layerId = "C3DEC2A7-F599-40A3-AE95-7DABCECAEB0F";
paths = (
{
closed = 1;
nodes = (
"163 282 CURVE",
"172 281 OFFCURVE",
"268 287 OFFCURVE",
"292 290 CURVE SMOOTH",
"304 291 OFFCURVE",
"305 300 OFFCURVE",
"305 306 CURVE SMOOTH",
"305 352 OFFCURVE",
"289 406 OFFCURVE",
"244 406 CURVE SMOOTH",
"185 406 OFFCURVE",
"163 316 OFFCURVE"
);
},
{
closed = 1;
nodes = (
"162 242 CURVE",
"162 102 OFFCURVE",
"257 75 OFFCURVE",
"302 75 CURVE SMOOTH",
"360 75 OFFCURVE",
"393 102 OFFCURVE",
"414 125 CURVE",
"421 123 OFFCURVE",
"426 113 OFFCURVE",
"426 107 CURVE SMOOTH",
"426 100 OFFCURVE",
"425 91 OFFCURVE",
"423 88 CURVE SMOOTH",
"405 60 OFFCURVE",
"337 -9 OFFCURVE",
"242 -9 CURVE SMOOTH",
"130 -9 OFFCURVE",
"32 69 OFFCURVE",
"32 200 CURVE SMOOTH",
"32 326 OFFCURVE",
"139 447 OFFCURVE",
"254 447 CURVE SMOOTH",
"385 447 OFFCURVE",
"429 354 OFFCURVE",
"429 296 CURVE SMOOTH",
"429 274 OFFCURVE",
"417 255 OFFCURVE",
"402 254 CURVE SMOOTH",
"334 248 OFFCURVE",
"236 244 OFFCURVE"
);
}
);
width = 460;
}
);
unicode = 0065;
userData = {
com.fontlab.hintData = {
hhints = (
{
position = -9;
width = 84;
},
{
position = 242;
width = 40;
},
{
position = 406;
width = 41;
}
);
vhints = (
{
position = 32;
width = 130;
},
{
position = 305;
width = 124;
}
);
};
};
},
{
glyphname = eogonek;
lastChange = "2017-07-12 19:24:33 +0000";
layers = (
{
layerId = "C3DEC2A7-F599-40A3-AE95-7DABCECAEB0F";
paths = (
{
closed = 1;
nodes = (
"373 37 CURVE SMOOTH",
"301 -19 OFFCURVE",
"284 -57 OFFCURVE",
"284 -101 CURVE SMOOTH",
"284 -122 OFFCURVE",
"296 -148 OFFCURVE",
"333 -148 CURVE SMOOTH",
"361 -148 OFFCURVE",
"398 -117 OFFCURVE",
"408 -109 CURVE",
"411 -109 OFFCURVE",
"414 -112 OFFCURVE",
"414 -120 CURVE SMOOTH",
"414 -125 OFFCURVE",
"410 -141 OFFCURVE",
"407 -145 CURVE SMOOTH",
"392 -164 OFFCURVE",
"340 -218 OFFCURVE",
"284 -218 CURVE SMOOTH",
"251 -218 OFFCURVE",
"210 -192 OFFCURVE",
"210 -140 CURVE SMOOTH",
"210 -84 OFFCURVE",
"247 -32 OFFCURVE",
"277 -6 CURVE",
"266 -8 OFFCURVE",
"254 -9 OFFCURVE",
"242 -9 CURVE SMOOTH",
"130 -9 OFFCURVE",
"32 69 OFFCURVE",
"32 200 CURVE SMOOTH",
"32 326 OFFCURVE",
"139 447 OFFCURVE",
"254 447 CURVE SMOOTH",
"385 447 OFFCURVE",
"429 354 OFFCURVE",
"429 296 CURVE SMOOTH",
"429 274 OFFCURVE",
"417 255 OFFCURVE",
"402 254 CURVE SMOOTH",
"334 248 OFFCURVE",
"236 244 OFFCURVE",
"162 242 CURVE",
"162 102 OFFCURVE",
"257 75 OFFCURVE",
"302 75 CURVE SMOOTH",
"360 75 OFFCURVE",
"393 102 OFFCURVE",
"414 125 CURVE",
"421 123 OFFCURVE",
"426 113 OFFCURVE",
"426 107 CURVE SMOOTH",
"426 100 OFFCURVE",
"425 91 OFFCURVE",
"423 88 CURVE SMOOTH",
"415 76 OFFCURVE",
"398 56 OFFCURVE"
);
},
{
closed = 1;
nodes = (
"163 282 CURVE",
"172 281 OFFCURVE",
"268 287 OFFCURVE",
"292 290 CURVE SMOOTH",
"304 291 OFFCURVE",
"305 300 OFFCURVE",
"305 306 CURVE SMOOTH",
"305 352 OFFCURVE",
"289 406 OFFCURVE",
"244 406 CURVE SMOOTH",
"185 406 OFFCURVE",
"163 316 OFFCURVE"
);
}
);
width = 460;
}
);
unicode = 0119;
userData = {
com.fontlab.hintData = {
hhints = (
{
position = -218;
width = 70;
},
{
position = -9;
width = 84;
},
{
position = 242;
width = 40;
},
{
position = 406;
width = 41;
}
);
vhints = (
{
position = 32;
width = 130;
},
{
position = 210;
width = 74;
},
{
position = 305;
width = 124;
}
);
};
};
},
{
glyphname = f;
lastChange = "2017-07-12 19:24:33 +0000";
layers = (
{
layerId = "C3DEC2A7-F599-40A3-AE95-7DABCECAEB0F";
paths = (
{
closed = 1;
nodes = (
"306 698 CURVE SMOOTH",
"338 698 OFFCURVE",
"356 692 OFFCURVE",
"370 688 CURVE",
"387 679 OFFCURVE",
"409 666 OFFCURVE",
"409 642 CURVE SMOOTH",
"409 609 OFFCURVE",
"391 573 OFFCURVE",
"358 573 CURVE SMOOTH",
"328 573 OFFCURVE",
"311 596 OFFCURVE",
"292 611 CURVE SMOOTH",
"281 620 OFFCURVE",
"268 626 OFFCURVE",
"252 626 CURVE SMOOTH",
"236 626 OFFCURVE",
"222 591 OFFCURVE",
"222 544 CURVE SMOOTH",
"222 498 OFFCURVE",
"224 459 OFFCURVE",
"226 428 CURVE",
"233 428 OFFCURVE",
"310 428 OFFCURVE",
"343 428 CURVE SMOOTH",
"347 428 OFFCURVE",
"349 420 OFFCURVE",
"349 415 CURVE SMOOTH",
"349 406 OFFCURVE",
"336 388 OFFCURVE",
"326 381 CURVE",
"296 381 OFFCURVE",
"262 381 OFFCURVE",
"229 381 CURVE",
"229 145 LINE SMOOTH",
"229 102 OFFCURVE",
"229 71 OFFCURVE",
"237 51 CURVE SMOOTH",
"242 38 OFFCURVE",
"288 34 OFFCURVE",
"301 33 CURVE",
"306 26 OFFCURVE",
"305 2 OFFCURVE",
"301 -4 CURVE",
"262 0 OFFCURVE",
"206 3 OFFCURVE",
"164 3 CURVE SMOOTH",
"122 3 OFFCURVE",
"66 0 OFFCURVE",
"27 -4 CURVE",
"23 2 OFFCURVE",
"22 26 OFFCURVE",
"27 33 CURVE",
"40 34 OFFCURVE",
"86 38 OFFCURVE",
"91 51 CURVE SMOOTH",
"99 71 OFFCURVE",
"99 102 OFFCURVE",
"99 145 CURVE SMOOTH",
"99 145 OFFCURVE",
"99 292 OFFCURVE",
"99 381 CURVE",
"72 381 OFFCURVE",
"54 381 OFFCURVE",
"28 381 CURVE",
"23 383 OFFCURVE",
"23 390 OFFCURVE",
"23 394 CURVE",
"33 408 OFFCURVE",
"43 418 OFFCURVE",
"55 428 CURVE",
"68 428 OFFCURVE",
"89 428 OFFCURVE",
"99 428 CURVE",
"99 443 LINE SMOOTH",
"99 580 OFFCURVE",
"231 698 OFFCURVE"
);
}
);
width = 355;
}
);
unicode = 0066;
userData = {
com.fontlab.hintData = {
hhints = (
{
position = -4;
width = 37;
},
{
position = 381;
width = 47;
},
{
position = 626;
width = 72;
}
);
vhints = (
{
position = 99;
width = 130;
}
);
};
};
},
{
glyphname = g;
lastChange = "2017-07-12 19:24:33 +0000";
layers = (
{
layerId = "C3DEC2A7-F599-40A3-AE95-7DABCECAEB0F";
paths = (
{
closed = 1;
nodes = (
"215 406 CURVE SMOOTH",
"163 406 OFFCURVE",
"160 352 OFFCURVE",
"160 307 CURVE SMOOTH",
"160 251 OFFCURVE",
"179 185 OFFCURVE",
"231 185 CURVE SMOOTH",
"283 185 OFFCURVE",
"282 241 OFFCURVE",
"282 285 CURVE SMOOTH",
"282 340 OFFCURVE",
"267 406 OFFCURVE"
);
},
{
closed = 1;
nodes = (
"260 -14 CURVE SMOOTH",
"223 -14 OFFCURVE",
"169 -14 OFFCURVE",
"150 -14 CURVE",
"143 -22 OFFCURVE",
"134 -35 OFFCURVE",
"134 -58 CURVE SMOOTH",
"134 -124 OFFCURVE",
"184 -162 OFFCURVE",
"254 -162 CURVE SMOOTH",
"350 -162 OFFCURVE",
"372 -112 OFFCURVE",
"372 -79 CURVE SMOOTH",
"372 -37 OFFCURVE",
"324 -14 OFFCURVE"
);
},
{
closed = 1;
nodes = (
"326 96 CURVE SMOOTH",
"418 91 OFFCURVE",
"459 20 OFFCURVE",
"459 -14 CURVE SMOOTH",
"459 -135 OFFCURVE",
"327 -218 OFFCURVE",
"191 -218 CURVE SMOOTH",
"93 -218 OFFCURVE",
"24 -171 OFFCURVE",
"24 -103 CURVE SMOOTH",
"24 -63 OFFCURVE",
"72 -24 OFFCURVE",
"109 -6 CURVE",
"75 3 OFFCURVE",
"49 50 OFFCURVE",
"49 92 CURVE SMOOTH",
"49 110 OFFCURVE",
"94 144 OFFCURVE",
"132 165 CURVE",
"75 188 OFFCURVE",
"39 237 OFFCURVE",
"39 294 CURVE SMOOTH",
"39 377 OFFCURVE",
"118 443 OFFCURVE",
"220 443 CURVE SMOOTH",
"265 443 OFFCURVE",
"299 437 OFFCURVE",
"327 418 CURVE SMOOTH",
"330 415 OFFCURVE",
"331 415 OFFCURVE",
"333 415 CURVE SMOOTH",
"458 427 LINE",
"461 426 OFFCURVE",
"469 422 OFFCURVE",
"469 416 CURVE SMOOTH",
"469 409 OFFCURVE",
"454 373 OFFCURVE",
"444 366 CURVE",
"422 368 OFFCURVE",
"414 369 OFFCURVE",
"388 372 CURVE SMOOTH",
"386 372 OFFCURVE",
"382 371 OFFCURVE",
"382 369 CURVE",
"398 347 OFFCURVE",
"403 327 OFFCURVE",
"403 299 CURVE SMOOTH",
"403 216 OFFCURVE",
"325 148 OFFCURVE",
"222 148 CURVE SMOOTH",
"204 148 OFFCURVE",
"186 150 OFFCURVE",
"170 153 CURVE",
"159 144 OFFCURVE",
"146 132 OFFCURVE",
"146 122 CURVE SMOOTH",
"146 107 OFFCURVE",
"170 97 OFFCURVE",
"194 97 CURVE SMOOTH",
"232 97 OFFCURVE",
"291 98 OFFCURVE"
);
}
);
width = 478;
}
);
unicode = 0067;
userData = {
com.fontlab.hintData = {
hhints = (
{
position = -218;
width = 56;
},
{
position = -14;
width = 111;
},
{
position = 148;
width = 37;
},
{
position = 366;
width = 61;
},
{
position = 406;
width = 37;
}
);
vhints = (
{
position = 24;
width = 110;
},
{
position = 39;
width = 121;
},
{
position = 49;
width = 97;
},
{
position = 282;
width = 121;
},
{
position = 372;
width = 87;
}
);
};
};
},
{
glyphname = h;
lastChange = "2017-07-12 19:24:33 +0000";
layers = (
{
layerId = "C3DEC2A7-F599-40A3-AE95-7DABCECAEB0F";
paths = (
{
closed = 1;
nodes = (
"367 446 CURVE SMOOTH",
"481 446 OFFCURVE",
"503 368 OFFCURVE",
"503 210 CURVE SMOOTH",
"503 145 LINE SMOOTH",
"503 102 OFFCURVE",
"503 71 OFFCURVE",
"511 51 CURVE SMOOTH",
"516 38 OFFCURVE",
"562 34 OFFCURVE",
"575 33 CURVE",
"580 26 OFFCURVE",
"579 2 OFFCURVE",
"575 -4 CURVE",
"536 0 OFFCURVE",
"480 3 OFFCURVE",
"438 3 CURVE SMOOTH",
"396 3 OFFCURVE",
"352 0 OFFCURVE",
"313 -4 CURVE",
"309 2 OFFCURVE",
"308 26 OFFCURVE",
"313 33 CURVE",
"326 34 OFFCURVE",
"360 38 OFFCURVE",
"365 51 CURVE SMOOTH",
"373 71 OFFCURVE",
"373 102 OFFCURVE",
"373 145 CURVE SMOOTH",
"373 224 LINE SMOOTH",
"373 296 OFFCURVE",
"359 365 OFFCURVE",
"306 365 CURVE SMOOTH",
"266 365 OFFCURVE",
"218 329 OFFCURVE",
"218 309 CURVE SMOOTH",
"218 145 LINE SMOOTH",
"218 108 OFFCURVE",
"218 71 OFFCURVE",
"226 51 CURVE SMOOTH",
"231 38 OFFCURVE",
"270 34 OFFCURVE",
"283 33 CURVE",
"288 26 OFFCURVE",
"287 2 OFFCURVE",
"283 -4 CURVE",
"244 0 OFFCURVE",
"195 3 OFFCURVE",
"153 3 CURVE SMOOTH",
"111 3 OFFCURVE",
"55 0 OFFCURVE",
"16 -4 CURVE",
"12 2 OFFCURVE",
"11 26 OFFCURVE",
"16 33 CURVE",
"29 34 OFFCURVE",
"75 38 OFFCURVE",
"80 51 CURVE SMOOTH",
"88 71 OFFCURVE",
"88 102 OFFCURVE",
"88 145 CURVE SMOOTH",
"88 558 LINE SMOOTH",
"88 575 OFFCURVE",
"88 589 OFFCURVE",
"81 606 CURVE SMOOTH",
"76 618 OFFCURVE",
"33 624 OFFCURVE",
"21 624 CURVE",
"17 624 OFFCURVE",
"16 652 OFFCURVE",
"21 656 CURVE",
"133 666 OFFCURVE",
"211 695 OFFCURVE",
"214 695 CURVE",
"220 694 OFFCURVE",
"228 683 OFFCURVE",
"229 678 CURVE",
"229 678 OFFCURVE",
"218 616 OFFCURVE",
"218 576 CURVE SMOOTH",
"218 372 LINE SMOOTH",
"218 369 OFFCURVE",
"218 367 OFFCURVE",
"219 366 CURVE",
"221 366 OFFCURVE",
"224 369 OFFCURVE",
"226 371 CURVE SMOOTH",
"254 403 OFFCURVE",
"321 446 OFFCURVE"
);
}
);
width = 583;
}
);
unicode = 0068;
userData = {
com.fontlab.hintData = {
hhints = (
{
position = -4;
width = 37;
},
{
position = 365;
width = 1;
},
{
position = 624;
width = 32;
},
{
position = 675;
width = 20;
}
);
vhints = (
{
position = 88;
width = 130;
},
{
position = 373;
width = 130;
}
);
};
};
},
{
glyphname = hbar;
lastChange = "2017-07-12 19:24:33 +0000";
layers = (
{
components = (
{
name = h;
}
);
layerId = "C3DEC2A7-F599-40A3-AE95-7DABCECAEB0F";
paths = (
{
closed = 1;
nodes = (
"36 564 CURVE",
"65 564 OFFCURVE",
"350 564 OFFCURVE",
"364 564 CURVE",
"365 564 OFFCURVE",
"368 561 OFFCURVE",
"368 556 CURVE SMOOTH",
"368 547 OFFCURVE",
"366 533 OFFCURVE",
"364 527 CURVE",
"335 527 OFFCURVE",
"49 527 OFFCURVE",
"35 527 CURVE",
"34 527 OFFCURVE",
"31 531 OFFCURVE",
"31 536 CURVE SMOOTH",
"31 545 OFFCURVE",
"32 558 OFFCURVE"
);
}
);
width = 583;
}
);
unicode = 0127;
userData = {
com.fontlab.hintData = {
hhints = (
{
position = -4;
width = 37;
},
{
position = 365;
width = 1;
},
{
position = 527;
width = 37;
},
{
position = 624;
width = 32;
},
{
position = 675;
width = 20;
}
);
vhints = (
{
position = 88;
width = 130;
},
{
position = 373;
width = 130;
}
);
};
};
},
{
glyphname = i;
lastChange = "2017-07-12 19:24:33 +0000";
layers = (
{
layerId = "C3DEC2A7-F599-40A3-AE95-7DABCECAEB0F";
paths = (
{
closed = 1;
nodes = (
"231 309 CURVE SMOOTH",
"231 145 LINE SMOOTH",
"231 108 OFFCURVE",
"231 71 OFFCURVE",
"239 51 CURVE SMOOTH",
"244 38 OFFCURVE",
"283 34 OFFCURVE",
"296 33 CURVE",
"301 26 OFFCURVE",
"300 2 OFFCURVE",
"296 -4 CURVE",
"257 0 OFFCURVE",
"208 3 OFFCURVE",
"166 3 CURVE SMOOTH",
"124 3 OFFCURVE",
"68 0 OFFCURVE",
"29 -4 CURVE",
"25 2 OFFCURVE",
"24 26 OFFCURVE",
"29 33 CURVE",
"42 34 OFFCURVE",
"88 38 OFFCURVE",
"93 51 CURVE SMOOTH",
"101 71 OFFCURVE",
"101 102 OFFCURVE",
"101 145 CURVE SMOOTH",
"101 260 LINE SMOOTH",
"101 270 OFFCURVE",
"100 327 OFFCURVE",
"92 342 CURVE SMOOTH",
"84 357 OFFCURVE",
"36 362 OFFCURVE",
"29 362 CURVE",
"26 364 OFFCURVE",
"25 393 OFFCURVE",
"30 393 CURVE",
"106 399 OFFCURVE",
"187 427 OFFCURVE",
"225 446 CURVE",
"232 444 OFFCURVE",
"242 432 OFFCURVE",
"242 429 CURVE",
"239 421 OFFCURVE",
"233 386 OFFCURVE",
"232 372 CURVE SMOOTH",
"231 350 OFFCURVE",
"231 315 OFFCURVE"
);
},
{
closed = 1;
nodes = (
"84 616 CURVE SMOOTH",
"84 656 OFFCURVE",
"116 688 OFFCURVE",
"156 688 CURVE SMOOTH",
"196 688 OFFCURVE",
"229 656 OFFCURVE",
"229 616 CURVE SMOOTH",
"229 576 OFFCURVE",
"196 544 OFFCURVE",
"156 544 CURVE SMOOTH",
"116 544 OFFCURVE",
"84 576 OFFCURVE"
);
}
);
width = 315;
}
);
unicode = 0069;
userData = {
com.fontlab.hintData = {
hhints = (
{
position = -4;
width = 37;
},
{
position = 362;
width = 31;
},
{
position = 426;
width = 20;
},
{
position = 544;
width = 144;
}
);
vhints = (
{
position = 84;
width = 145;
},
{
position = 101;
width = 130;
}
);
};
};
},
{
glyphname = dotlessi;
lastChange = "2017-07-12 19:24:33 +0000";
layers = (
{
layerId = "C3DEC2A7-F599-40A3-AE95-7DABCECAEB0F";
paths = (
{
closed = 1;
nodes = (
"231 309 CURVE SMOOTH",
"231 145 LINE SMOOTH",
"231 108 OFFCURVE",
"231 71 OFFCURVE",
"239 51 CURVE SMOOTH",
"244 38 OFFCURVE",
"283 34 OFFCURVE",
"296 33 CURVE",
"301 26 OFFCURVE",
"300 2 OFFCURVE",
"296 -4 CURVE",
"257 0 OFFCURVE",
"208 3 OFFCURVE",
"166 3 CURVE SMOOTH",
"124 3 OFFCURVE",
"68 0 OFFCURVE",
"29 -4 CURVE",
"25 2 OFFCURVE",
"24 26 OFFCURVE",
"29 33 CURVE",
"42 34 OFFCURVE",
"88 38 OFFCURVE",
"93 51 CURVE SMOOTH",
"101 71 OFFCURVE",
"101 102 OFFCURVE",
"101 145 CURVE SMOOTH",
"101 260 LINE SMOOTH",
"101 270 OFFCURVE",
"100 327 OFFCURVE",
"92 342 CURVE SMOOTH",
"84 357 OFFCURVE",
"36 362 OFFCURVE",
"29 362 CURVE",
"26 364 OFFCURVE",
"25 393 OFFCURVE",
"30 393 CURVE",
"106 399 OFFCURVE",
"187 427 OFFCURVE",
"225 446 CURVE",
"232 444 OFFCURVE",
"242 432 OFFCURVE",
"242 429 CURVE",
"239 421 OFFCURVE",
"233 386 OFFCURVE",
"232 372 CURVE SMOOTH",
"231 350 OFFCURVE",
"231 315 OFFCURVE"
);
}
);
width = 315;
}
);
unicode = 0131;
userData = {
com.fontlab.hintData = {
hhints = (
{
position = -4;
width = 37;
},
{
position = 362;
width = 31;
},
{
position = 426;
width = 20;
}
);
vhints = (
{
position = 101;
width = 130;
}
);
};
};
},
{
glyphname = iogonek;
lastChange = "2017-07-12 19:24:33 +0000";
layers = (
{
layerId = "C3DEC2A7-F599-40A3-AE95-7DABCECAEB0F";
paths = (
{
closed = 1;
nodes = (
"84 616 CURVE SMOOTH",
"84 656 OFFCURVE",
"116 688 OFFCURVE",
"156 688 CURVE SMOOTH",
"196 688 OFFCURVE",
"229 656 OFFCURVE",
"229 616 CURVE SMOOTH",
"229 576 OFFCURVE",
"196 544 OFFCURVE",
"156 544 CURVE SMOOTH",
"116 544 OFFCURVE",
"84 576 OFFCURVE"
);
},
{
closed = 1;
nodes = (
"231 309 CURVE SMOOTH",
"231 145 LINE SMOOTH",
"231 108 OFFCURVE",
"231 71 OFFCURVE",
"239 51 CURVE SMOOTH",
"244 38 OFFCURVE",
"283 34 OFFCURVE",
"296 33 CURVE",
"301 26 OFFCURVE",
"300 2 OFFCURVE",
"296 -4 CURVE",
"277 -2 OFFCURVE",
"256 0 OFFCURVE",
"235 1 CURVE",
"192 -25 OFFCURVE",
"136 -58 OFFCURVE",
"136 -101 CURVE SMOOTH",
"136 -122 OFFCURVE",
"148 -148 OFFCURVE",
"185 -148 CURVE SMOOTH",
"213 -148 OFFCURVE",
"250 -117 OFFCURVE",
"260 -109 CURVE",
"263 -109 OFFCURVE",
"266 -112 OFFCURVE",
"266 -120 CURVE SMOOTH",
"266 -125 OFFCURVE",
"262 -141 OFFCURVE",
"259 -145 CURVE SMOOTH",
"244 -164 OFFCURVE",
"192 -218 OFFCURVE",
"136 -218 CURVE SMOOTH",
"103 -218 OFFCURVE",
"62 -192 OFFCURVE",
"62 -140 CURVE SMOOTH",
"62 -85 OFFCURVE",
"134 -17 OFFCURVE",
"191 3 CURVE",
"183 3 OFFCURVE",
"174 3 OFFCURVE",
"166 3 CURVE SMOOTH",
"124 3 OFFCURVE",
"68 0 OFFCURVE",
"29 -4 CURVE",
"25 2 OFFCURVE",
"24 26 OFFCURVE",
"29 33 CURVE",
"42 34 OFFCURVE",
"88 38 OFFCURVE",
"93 51 CURVE SMOOTH",
"101 71 OFFCURVE",
"101 102 OFFCURVE",
"101 145 CURVE SMOOTH",
"101 260 LINE SMOOTH",
"101 270 OFFCURVE",
"100 327 OFFCURVE",
"92 342 CURVE SMOOTH",
"84 357 OFFCURVE",
"36 362 OFFCURVE",
"29 362 CURVE",
"26 364 OFFCURVE",
"25 393 OFFCURVE",
"30 393 CURVE SMOOTH",
"106 399 OFFCURVE",
"187 427 OFFCURVE",
"225 446 CURVE",
"232 444 OFFCURVE",
"242 432 OFFCURVE",
"242 429 CURVE",
"239 421 OFFCURVE",
"233 386 OFFCURVE",
"232 372 CURVE SMOOTH",
"231 350 OFFCURVE",
"231 315 OFFCURVE"
);
}
);
width = 315;
}
);
unicode = 012F;
userData = {
com.fontlab.hintData = {
hhints = (
{
position = -218;
width = 70;
},
{
position = -4;
width = 37;
},
{
position = 362;
width = 31;
},
{
position = 426;
width = 20;
},
{
position = 544;
width = 144;
}
);
vhints = (
{
position = 62;
width = 74;
},
{
position = 84;
width = 145;
},
{
position = 101;
width = 130;
}
);
};
};
},
{
glyphname = j;
lastChange = "2017-07-12 19:24:33 +0000";
layers = (
{
layerId = "C3DEC2A7-F599-40A3-AE95-7DABCECAEB0F";
paths = (
{
closed = 1;
nodes = (
"89 64 CURVE SMOOTH",
"89 260 LINE SMOOTH",
"89 270 OFFCURVE",
"88 327 OFFCURVE",
"80 342 CURVE SMOOTH",
"72 357 OFFCURVE",
"24 362 OFFCURVE",
"17 362 CURVE",
"14 364 OFFCURVE",
"13 393 OFFCURVE",
"18 393 CURVE",
"94 399 OFFCURVE",
"175 427 OFFCURVE",
"213 446 CURVE",
"220 444 OFFCURVE",
"230 432 OFFCURVE",
"230 429 CURVE",
"227 421 OFFCURVE",
"221 386 OFFCURVE",
"220 372 CURVE SMOOTH",
"219 350 OFFCURVE",
"219 315 OFFCURVE",
"219 309 CURVE SMOOTH",
"219 120 LINE SMOOTH",
"219 36 OFFCURVE",
"208 -48 OFFCURVE",
"171 -102 CURVE SMOOTH",
"124 -170 OFFCURVE",
"36 -218 OFFCURVE",
"2 -218 CURVE",
"-5 -214 OFFCURVE",
"-12 -207 OFFCURVE",
"-12 -201 CURVE SMOOTH",
"-12 -199 OFFCURVE",
"-12 -195 OFFCURVE",
"-11 -194 CURVE SMOOTH",
"-7 -192 OFFCURVE",
"89 -142 OFFCURVE"
);
},
{
closed = 1;
nodes = (
"72 616 CURVE SMOOTH",
"72 657 OFFCURVE",
"105 690 OFFCURVE",
"146 690 CURVE SMOOTH",
"187 690 OFFCURVE",
"220 657 OFFCURVE",
"220 616 CURVE SMOOTH",
"220 575 OFFCURVE",
"187 542 OFFCURVE",
"146 542 CURVE SMOOTH",
"105 542 OFFCURVE",
"72 575 OFFCURVE"
);
}
);
width = 286;
}
);
unicode = 006A;
userData = {
com.fontlab.hintData = {
hhints = (
{
position = -218;
width = 24;
},
{
position = 362;
width = 31;
},
{
position = 426;
width = 20;
},
{
position = 542;
width = 148;
}
);
vhints = (
{
position = 72;
width = 148;
},
{
position = 89;
width = 130;
}
);
};
};
},
{
glyphname = uni0237;
lastChange = "2017-07-12 19:24:33 +0000";
layers = (
{
layerId = "C3DEC2A7-F599-40A3-AE95-7DABCECAEB0F";
paths = (
{
closed = 1;
nodes = (
"89 64 CURVE SMOOTH",
"89 260 LINE SMOOTH",
"89 270 OFFCURVE",
"88 327 OFFCURVE",
"80 342 CURVE SMOOTH",
"72 357 OFFCURVE",
"24 362 OFFCURVE",
"17 362 CURVE",
"14 364 OFFCURVE",
"13 393 OFFCURVE",
"18 393 CURVE",
"94 399 OFFCURVE",
"175 427 OFFCURVE",
"213 446 CURVE",
"220 444 OFFCURVE",
"230 432 OFFCURVE",
"230 429 CURVE",
"227 421 OFFCURVE",
"221 386 OFFCURVE",
"220 372 CURVE SMOOTH",
"219 350 OFFCURVE",
"219 315 OFFCURVE",
"219 309 CURVE SMOOTH",
"219 120 LINE SMOOTH",
"219 36 OFFCURVE",
"208 -48 OFFCURVE",
"171 -102 CURVE SMOOTH",
"124 -170 OFFCURVE",
"36 -218 OFFCURVE",
"2 -218 CURVE",
"-5 -214 OFFCURVE",
"-12 -207 OFFCURVE",
"-12 -201 CURVE SMOOTH",
"-12 -199 OFFCURVE",
"-12 -195 OFFCURVE",
"-11 -194 CURVE SMOOTH",
"-7 -192 OFFCURVE",
"89 -142 OFFCURVE"
);
}
);
width = 286;
}
);
unicode = 0237;
userData = {
com.fontlab.hintData = {
hhints = (
{
position = -218;
width = 24;
},
{
position = 362;
width = 31;
},
{
position = 426;
width = 20;
}
);
vhints = (
{
position = 89;
width = 130;
}
);
};
};
},
{
glyphname = k;
lastChange = "2017-07-12 19:24:33 +0000";
layers = (
{
layerId = "C3DEC2A7-F599-40A3-AE95-7DABCECAEB0F";
paths = (
{
closed = 1;
nodes = (
"218 145 LINE SMOOTH",
"218 102 OFFCURVE",
"218 71 OFFCURVE",
"226 51 CURVE SMOOTH",
"231 38 OFFCURVE",
"277 34 OFFCURVE",
"290 33 CURVE",
"295 26 OFFCURVE",
"294 2 OFFCURVE",
"290 -4 CURVE",
"251 0 OFFCURVE",
"195 3 OFFCURVE",
"153 3 CURVE SMOOTH",
"111 3 OFFCURVE",
"55 0 OFFCURVE",
"16 -4 CURVE",
"12 2 OFFCURVE",
"11 26 OFFCURVE",
"16 33 CURVE",
"29 34 OFFCURVE",
"75 38 OFFCURVE",
"80 51 CURVE SMOOTH",
"88 71 OFFCURVE",
"88 102 OFFCURVE",
"88 145 CURVE SMOOTH",
"88 558 LINE SMOOTH",
"88 575 OFFCURVE",
"88 589 OFFCURVE",
"81 606 CURVE SMOOTH",
"76 618 OFFCURVE",
"33 624 OFFCURVE",
"21 624 CURVE",
"17 624 OFFCURVE",
"16 652 OFFCURVE",
"21 656 CURVE",
"133 666 OFFCURVE",
"211 695 OFFCURVE",
"214 695 CURVE",
"220 694 OFFCURVE",
"228 683 OFFCURVE",
"229 678 CURVE",
"229 678 OFFCURVE",
"218 616 OFFCURVE",
"218 576 CURVE SMOOTH",
"217 236 LINE",
"234 242 OFFCURVE",
"257 257 OFFCURVE",
"292 287 CURVE SMOOTH",
"362 347 OFFCURVE",
"380 368 OFFCURVE",
"380 383 CURVE SMOOTH",
"380 395 OFFCURVE",
"334 404 OFFCURVE",
"316 405 CURVE",
"313 414 OFFCURVE",
"313 437 OFFCURVE",
"318 439 CURVE",
"318 439 OFFCURVE",
"407 435 OFFCURVE",
"449 435 CURVE SMOOTH",
"485 435 OFFCURVE",
"515 438 OFFCURVE",
"560 440 CURVE",
"566 430 OFFCURVE",
"563 408 OFFCURVE",
"557 405 CURVE",
"526 402 OFFCURVE",
"484 392 OFFCURVE",
"458 374 CURVE SMOOTH",
"437 359 OFFCURVE",
"387 310 OFFCURVE",
"326 256 CURVE",
"397 173 OFFCURVE",
"412 161 OFFCURVE",
"468 98 CURVE SMOOTH",
"523 37 OFFCURVE",
"555 36 OFFCURVE",
"587 36 CURVE",
"593 25 OFFCURVE",
"588 8 OFFCURVE",
"587 6 CURVE",
"571 0 OFFCURVE",
"524 -6 OFFCURVE",
"486 -6 CURVE SMOOTH",
"428 -6 OFFCURVE",
"379 18 OFFCURVE",
"349 53 CURVE SMOOTH",
"349 53 OFFCURVE",
"280 127 OFFCURVE",
"231 188 CURVE SMOOTH",
"227 194 OFFCURVE",
"218 201 OFFCURVE",
"218 201 CURVE"
);
}
);
width = 590;
}
);
unicode = 006B;
userData = {
com.fontlab.hintData = {
hhints = (
{
position = -4;
width = 37;
},
{
position = 405;
width = 35;
},
{
position = 624;
width = 32;
},
{
position = 675;
width = 20;
}
);
vhints = (
{
position = 88;
width = 130;
}
);
};
};
},
{
glyphname = kgreenlandic;
lastChange = "2017-07-12 19:24:33 +0000";
layers = (
{
layerId = "C3DEC2A7-F599-40A3-AE95-7DABCECAEB0F";
paths = (
{
closed = 1;
nodes = (
"231 236 CURVE",
"248 242 OFFCURVE",
"270 257 OFFCURVE",
"305 287 CURVE SMOOTH",
"375 347 OFFCURVE",
"393 368 OFFCURVE",
"393 383 CURVE SMOOTH",
"393 395 OFFCURVE",
"347 404 OFFCURVE",
"329 405 CURVE",
"326 414 OFFCURVE",
"326 437 OFFCURVE",
"331 439 CURVE",
"331 439 OFFCURVE",
"420 435 OFFCURVE",
"462 435 CURVE SMOOTH",
"498 435 OFFCURVE",
"528 438 OFFCURVE",
"573 440 CURVE",
"579 430 OFFCURVE",
"576 408 OFFCURVE",
"570 405 CURVE",
"539 402 OFFCURVE",
"497 392 OFFCURVE",
"471 374 CURVE SMOOTH",
"450 359 OFFCURVE",
"400 310 OFFCURVE",
"339 256 CURVE",
"410 173 OFFCURVE",
"425 161 OFFCURVE",
"481 98 CURVE SMOOTH",
"536 37 OFFCURVE",
"568 36 OFFCURVE",
"600 36 CURVE",
"606 25 OFFCURVE",
"601 8 OFFCURVE",
"600 6 CURVE",
"584 0 OFFCURVE",
"537 -6 OFFCURVE",
"499 -6 CURVE SMOOTH",
"441 -6 OFFCURVE",
"392 18 OFFCURVE",
"362 53 CURVE SMOOTH",
"362 53 OFFCURVE",
"293 127 OFFCURVE",
"244 188 CURVE SMOOTH",
"240 194 OFFCURVE",
"231 201 OFFCURVE",
"231 201 CURVE",
"231 145 LINE SMOOTH",
"231 102 OFFCURVE",
"231 71 OFFCURVE",
"239 51 CURVE SMOOTH",
"244 38 OFFCURVE",
"290 34 OFFCURVE",
"303 33 CURVE",
"308 26 OFFCURVE",
"307 2 OFFCURVE",
"303 -4 CURVE",
"264 0 OFFCURVE",
"208 3 OFFCURVE",
"166 3 CURVE SMOOTH",
"124 3 OFFCURVE",
"68 0 OFFCURVE",
"29 -4 CURVE",
"25 2 OFFCURVE",
"24 26 OFFCURVE",
"29 33 CURVE",
"42 34 OFFCURVE",
"88 38 OFFCURVE",
"93 51 CURVE SMOOTH",
"101 71 OFFCURVE",
"101 102 OFFCURVE",
"101 145 CURVE SMOOTH",
"101 260 LINE SMOOTH",
"101 270 OFFCURVE",
"100 327 OFFCURVE",
"92 342 CURVE SMOOTH",
"84 357 OFFCURVE",
"36 362 OFFCURVE",
"29 362 CURVE",
"26 364 OFFCURVE",
"25 393 OFFCURVE",
"30 393 CURVE",
"106 399 OFFCURVE",
"187 427 OFFCURVE",
"225 446 CURVE",
"232 444 OFFCURVE",
"242 432 OFFCURVE",
"242 429 CURVE",
"239 421 OFFCURVE",
"233 386 OFFCURVE",
"232 372 CURVE SMOOTH",
"231 350 OFFCURVE",
"231 242 OFFCURVE"
);
}
);
width = 603;
}
);
unicode = 0138;
userData = {
com.fontlab.hintData = {
hhints = (
{
position = -6;
width = 42;
},
{
position = 362;
width = 31;
},
{
position = 405;
width = 35;
},
{
position = 426;
width = 20;
}
);
vhints = (
{
position = 101;
width = 130;
}
);
};
};
},
{
glyphname = l;
lastChange = "2017-07-12 19:24:33 +0000";
layers = (
{
layerId = "C3DEC2A7-F599-40A3-AE95-7DABCECAEB0F";
paths = (
{
closed = 1;
nodes = (
"88 558 LINE SMOOTH",
"88 575 OFFCURVE",
"88 589 OFFCURVE",
"81 606 CURVE SMOOTH",
"76 618 OFFCURVE",
"33 624 OFFCURVE",
"21 624 CURVE",
"17 624 OFFCURVE",
"16 652 OFFCURVE",
"21 656 CURVE",
"133 666 OFFCURVE",
"211 695 OFFCURVE",
"214 695 CURVE",
"220 694 OFFCURVE",
"228 683 OFFCURVE",
"229 678 CURVE",
"229 678 OFFCURVE",
"218 616 OFFCURVE",
"218 576 CURVE SMOOTH",
"218 145 LINE SMOOTH",
"218 102 OFFCURVE",
"218 71 OFFCURVE",
"226 51 CURVE SMOOTH",
"231 38 OFFCURVE",
"277 34 OFFCURVE",
"290 33 CURVE",
"295 26 OFFCURVE",
"294 2 OFFCURVE",
"290 -4 CURVE",
"251 0 OFFCURVE",
"195 3 OFFCURVE",
"153 3 CURVE SMOOTH",
"111 3 OFFCURVE",
"55 0 OFFCURVE",
"16 -4 CURVE",
"12 2 OFFCURVE",
"11 26 OFFCURVE",
"16 33 CURVE",
"29 34 OFFCURVE",
"75 38 OFFCURVE",
"80 51 CURVE SMOOTH",
"88 71 OFFCURVE",
"88 102 OFFCURVE",
"88 145 CURVE SMOOTH"
);
}
);
width = 306;
}
);
unicode = 006C;
userData = {
com.fontlab.hintData = {
hhints = (
{
position = -4;
width = 37;
},
{
position = 624;
width = 32;
},
{
position = 675;
width = 20;
}
);
vhints = (
{
position = 88;
width = 130;
}
);
};
};
},
{
glyphname = lslash;
lastChange = "2017-07-12 19:24:33 +0000";
layers = (
{
components = (
{
name = l;
transform = "{1, 0, 0, 1, 1, 0}";
}
);
layerId = "C3DEC2A7-F599-40A3-AE95-7DABCECAEB0F";
paths = (
{
closed = 1;
nodes = (
"36 210 LINE",
"30 217 OFFCURVE",
"12 237 OFFCURVE",
"17 242 CURVE",
"303 443 LINE",
"309 437 OFFCURVE",
"328 416 OFFCURVE",
"323 411 CURVE"
);
}
);
width = 312;
}
);
unicode = 0142;
userData = {
com.fontlab.hintData = {
hhints = (
{
position = -4;
width = 37;
},
{
position = 423;
width = 20;
},
{
position = 624;
width = 32;
},
{
position = 675;
width = 20;
}
);
vhints = (
{
position = 17;
width = 306;
},
{
position = 89;
width = 130;
}
);
};
};
},
{
glyphname = m;
lastChange = "2017-07-12 19:24:33 +0000";
layers = (
{
layerId = "C3DEC2A7-F599-40A3-AE95-7DABCECAEB0F";
paths = (
{
closed = 1;
nodes = (
"380 446 CURVE SMOOTH",
"444 446 OFFCURVE",
"479 424 OFFCURVE",
"503 360 CURVE",
"547 403 OFFCURVE",
"621 446 OFFCURVE",
"667 446 CURVE SMOOTH",
"781 446 OFFCURVE",
"803 368 OFFCURVE",
"803 210 CURVE SMOOTH",
"803 145 LINE SMOOTH",
"803 102 OFFCURVE",
"803 71 OFFCURVE",
"811 51 CURVE SMOOTH",
"816 38 OFFCURVE",
"862 34 OFFCURVE",
"875 33 CURVE",
"880 26 OFFCURVE",
"879 2 OFFCURVE",
"875 -4 CURVE",
"836 0 OFFCURVE",
"780 3 OFFCURVE",
"738 3 CURVE SMOOTH",
"696 3 OFFCURVE",
"652 0 OFFCURVE",
"613 -4 CURVE",
"609 2 OFFCURVE",
"608 26 OFFCURVE",
"613 33 CURVE",
"626 34 OFFCURVE",
"660 38 OFFCURVE",
"665 51 CURVE SMOOTH",
"673 71 OFFCURVE",
"673 102 OFFCURVE",
"673 145 CURVE SMOOTH",
"673 224 LINE SMOOTH",
"673 296 OFFCURVE",
"659 365 OFFCURVE",
"606 365 CURVE SMOOTH",
"566 365 OFFCURVE",
"512 330 OFFCURVE",
"512 310 CURVE SMOOTH",
"512 308 OFFCURVE",
"512 306 OFFCURVE",
"512 304 CURVE SMOOTH",
"514 276 OFFCURVE",
"516 245 OFFCURVE",
"516 210 CURVE SMOOTH",
"516 145 LINE SMOOTH",
"516 102 OFFCURVE",
"516 71 OFFCURVE",
"524 51 CURVE SMOOTH",
"529 38 OFFCURVE",
"573 34 OFFCURVE",
"586 33 CURVE",
"591 26 OFFCURVE",
"590 2 OFFCURVE",
"586 -4 CURVE",
"547 0 OFFCURVE",
"493 3 OFFCURVE",
"451 3 CURVE SMOOTH",
"409 3 OFFCURVE",
"363 0 OFFCURVE",
"324 -4 CURVE",
"320 2 OFFCURVE",
"319 26 OFFCURVE",
"324 33 CURVE",
"337 34 OFFCURVE",
"373 38 OFFCURVE",
"378 51 CURVE SMOOTH",
"386 71 OFFCURVE",
"386 102 OFFCURVE",
"386 145 CURVE SMOOTH",
"386 224 LINE SMOOTH",
"386 296 OFFCURVE",
"372 365 OFFCURVE",
"319 365 CURVE SMOOTH",
"279 365 OFFCURVE",
"231 329 OFFCURVE",
"231 309 CURVE SMOOTH",
"231 145 LINE SMOOTH",
"231 108 OFFCURVE",
"231 71 OFFCURVE",
"239 51 CURVE SMOOTH",
"244 38 OFFCURVE",
"283 34 OFFCURVE",
"296 33 CURVE",
"301 26 OFFCURVE",
"300 2 OFFCURVE",
"296 -4 CURVE",
"257 0 OFFCURVE",
"208 3 OFFCURVE",
"166 3 CURVE SMOOTH",
"124 3 OFFCURVE",
"68 0 OFFCURVE",
"29 -4 CURVE",
"25 2 OFFCURVE",
"24 26 OFFCURVE",
"29 33 CURVE",
"42 34 OFFCURVE",
"88 38 OFFCURVE",
"93 51 CURVE SMOOTH",
"101 71 OFFCURVE",
"101 102 OFFCURVE",
"101 145 CURVE SMOOTH",
"101 260 LINE SMOOTH",
"101 270 OFFCURVE",
"100 327 OFFCURVE",
"92 342 CURVE SMOOTH",
"84 357 OFFCURVE",
"36 362 OFFCURVE",
"29 362 CURVE",
"26 364 OFFCURVE",
"25 393 OFFCURVE",
"30 393 CURVE",
"106 399 OFFCURVE",
"187 427 OFFCURVE",
"225 446 CURVE",
"232 444 OFFCURVE",
"242 432 OFFCURVE",
"242 429 CURVE",
"239 421 OFFCURVE",
"231 373 OFFCURVE",
"232 372 CURVE SMOOTH",
"232 369 OFFCURVE",
"232 367 OFFCURVE",
"233 366 CURVE",
"235 366 OFFCURVE",
"238 369 OFFCURVE",
"240 371 CURVE SMOOTH",
"268 403 OFFCURVE",
"334 446 OFFCURVE"
);
}
);
width = 883;
}
);
unicode = 006D;
userData = {
com.fontlab.hintData = {
hhints = (
{
position = -4;
width = 37;
},
{
position = 362;
width = 31;
},
{
position = 365;
width = 81;
}
);
vhints = (
{
position = 101;
width = 130;
},
{
position = 386;
width = 130;
},
{
position = 673;
width = 130;
}
);
};
};
},
{
glyphname = n;
lastChange = "2017-07-12 19:24:33 +0000";
layers = (
{
layerId = "C3DEC2A7-F599-40A3-AE95-7DABCECAEB0F";
paths = (
{
closed = 1;
nodes = (
"380 446 CURVE SMOOTH",
"494 446 OFFCURVE",
"516 368 OFFCURVE",
"516 210 CURVE SMOOTH",
"516 145 LINE SMOOTH",
"516 102 OFFCURVE",
"516 71 OFFCURVE",
"524 51 CURVE SMOOTH",
"529 38 OFFCURVE",
"575 34 OFFCURVE",
"588 33 CURVE",
"593 26 OFFCURVE",
"592 2 OFFCURVE",
"588 -4 CURVE",
"549 0 OFFCURVE",
"493 3 OFFCURVE",
"451 3 CURVE SMOOTH",
"409 3 OFFCURVE",
"365 0 OFFCURVE",
"326 -4 CURVE",
"322 2 OFFCURVE",
"321 26 OFFCURVE",
"326 33 CURVE",
"339 34 OFFCURVE",
"373 38 OFFCURVE",
"378 51 CURVE SMOOTH",
"386 71 OFFCURVE",
"386 102 OFFCURVE",
"386 145 CURVE SMOOTH",
"386 224 LINE SMOOTH",
"386 296 OFFCURVE",
"372 365 OFFCURVE",
"319 365 CURVE SMOOTH",
"279 365 OFFCURVE",
"231 329 OFFCURVE",
"231 309 CURVE SMOOTH",
"231 145 LINE SMOOTH",
"231 108 OFFCURVE",
"231 71 OFFCURVE",
"239 51 CURVE SMOOTH",
"244 38 OFFCURVE",
"283 34 OFFCURVE",
"296 33 CURVE",
"301 26 OFFCURVE",
"300 2 OFFCURVE",
"296 -4 CURVE",
"257 0 OFFCURVE",
"208 3 OFFCURVE",
"166 3 CURVE SMOOTH",
"124 3 OFFCURVE",
"68 0 OFFCURVE",
"29 -4 CURVE",
"25 2 OFFCURVE",
"24 26 OFFCURVE",
"29 33 CURVE",
"42 34 OFFCURVE",
"88 38 OFFCURVE",
"93 51 CURVE SMOOTH",
"101 71 OFFCURVE",
"101 102 OFFCURVE",
"101 145 CURVE SMOOTH",
"101 260 LINE SMOOTH",
"101 270 OFFCURVE",
"100 327 OFFCURVE",
"92 342 CURVE SMOOTH",
"84 357 OFFCURVE",
"36 362 OFFCURVE",
"29 362 CURVE",
"26 364 OFFCURVE",
"25 393 OFFCURVE",
"30 393 CURVE",
"106 399 OFFCURVE",
"187 427 OFFCURVE",
"225 446 CURVE",
"231 446 OFFCURVE",
"242 434 OFFCURVE",
"242 429 CURVE",
"240 421 OFFCURVE",
"232 373 OFFCURVE",
"232 372 CURVE SMOOTH",
"232 369 OFFCURVE",
"232 367 OFFCURVE",
"233 366 CURVE",
"235 366 OFFCURVE",
"238 369 OFFCURVE",
"240 371 CURVE SMOOTH",
"268 403 OFFCURVE",
"334 446 OFFCURVE"
);
}
);
width = 596;
}
);
unicode = 006E;
userData = {
com.fontlab.hintData = {
hhints = (
{
position = -4;
width = 37;
},
{
position = 362;
width = 31;
},
{
position = 365;
width = 1;
},
{
position = 426;
width = 20;
}
);
vhints = (
{
position = 101;
width = 130;
},
{
position = 386;
width = 130;
}
);
};
};
},
{
glyphname = eng;
lastChange = "2017-07-12 19:24:33 +0000";
layers = (
{
layerId = "C3DEC2A7-F599-40A3-AE95-7DABCECAEB0F";
paths = (
{
closed = 1;
nodes = (
"386 64 CURVE SMOOTH",
"386 224 LINE SMOOTH",
"386 296 OFFCURVE",
"372 365 OFFCURVE",
"319 365 CURVE SMOOTH",
"279 365 OFFCURVE",
"231 329 OFFCURVE",
"231 309 CURVE SMOOTH",
"231 145 LINE SMOOTH",
"231 108 OFFCURVE",
"231 71 OFFCURVE",
"239 51 CURVE SMOOTH",
"244 38 OFFCURVE",
"283 34 OFFCURVE",
"296 33 CURVE",
"301 26 OFFCURVE",
"300 2 OFFCURVE",
"296 -4 CURVE",
"257 0 OFFCURVE",
"208 3 OFFCURVE",
"166 3 CURVE SMOOTH",
"124 3 OFFCURVE",
"68 0 OFFCURVE",
"29 -4 CURVE",
"25 2 OFFCURVE",
"24 26 OFFCURVE",
"29 33 CURVE",
"42 34 OFFCURVE",
"88 38 OFFCURVE",
"93 51 CURVE SMOOTH",
"101 71 OFFCURVE",
"101 102 OFFCURVE",
"101 145 CURVE SMOOTH",
"101 260 LINE SMOOTH",
"101 270 OFFCURVE",
"100 327 OFFCURVE",
"92 342 CURVE SMOOTH",
"84 357 OFFCURVE",
"36 362 OFFCURVE",
"29 362 CURVE",
"26 364 OFFCURVE",
"25 393 OFFCURVE",
"30 393 CURVE",
"106 399 OFFCURVE",
"187 427 OFFCURVE",
"225 446 CURVE",
"231 446 OFFCURVE",
"242 434 OFFCURVE",
"242 429 CURVE",
"240 421 OFFCURVE",
"232 373 OFFCURVE",
"232 372 CURVE SMOOTH",
"232 369 OFFCURVE",
"232 367 OFFCURVE",
"233 366 CURVE",
"235 366 OFFCURVE",
"238 369 OFFCURVE",
"240 371 CURVE SMOOTH",
"268 403 OFFCURVE",
"334 446 OFFCURVE",
"380 446 CURVE SMOOTH",
"494 446 OFFCURVE",
"516 368 OFFCURVE",
"516 210 CURVE SMOOTH",
"516 120 LINE SMOOTH",
"516 36 OFFCURVE",
"505 -48 OFFCURVE",
"468 -102 CURVE SMOOTH",
"421 -170 OFFCURVE",
"333 -218 OFFCURVE",
"299 -218 CURVE",
"292 -214 OFFCURVE",
"285 -207 OFFCURVE",
"285 -201 CURVE SMOOTH",
"285 -199 OFFCURVE",
"285 -195 OFFCURVE",
"286 -194 CURVE SMOOTH",
"290 -192 OFFCURVE",
"386 -142 OFFCURVE"
);
}
);
width = 579;
}
);
unicode = 014B;
userData = {
com.fontlab.hintData = {
hhints = (
{
position = -218;
width = 24;
},
{
position = -4;
width = 37;
},
{
position = 362;
width = 31;
},
{
position = 365;
width = 1;
},
{
position = 426;
width = 20;
}
);
vhints = (
{
position = 101;
width = 130;
},
{
position = 386;
width = 130;
}
);
};
};
},
{
glyphname = o;
lastChange = "2017-07-12 19:24:33 +0000";
layers = (
{
layerId = "C3DEC2A7-F599-40A3-AE95-7DABCECAEB0F";
paths = (
{
closed = 1;
nodes = (
"254 406 CURVE SMOOTH",
"181 406 OFFCURVE",
"174 310 OFFCURVE",
"174 237 CURVE SMOOTH",
"174 149 OFFCURVE",
"204 35 OFFCURVE",
"277 35 CURVE SMOOTH",
"350 35 OFFCURVE",
"358 130 OFFCURVE",
"358 202 CURVE SMOOTH",
"358 291 OFFCURVE",
"327 406 OFFCURVE"
);
},
{
closed = 1;
nodes = (
"265 447 CURVE SMOOTH",
"403 447 OFFCURVE",
"500 352 OFFCURVE",
"500 225 CURVE SMOOTH",
"500 99 OFFCURVE",
"399 -7 OFFCURVE",
"267 -7 CURVE SMOOTH",
"128 -7 OFFCURVE",
"32 91 OFFCURVE",
"32 217 CURVE SMOOTH",
"32 343 OFFCURVE",
"134 447 OFFCURVE"
);
}
);
width = 532;
}
);
unicode = 006F;
userData = {
com.fontlab.hintData = {
hhints = (
{
position = -7;
width = 42;
},
{
position = 406;
width = 41;
}
);
vhints = (
{
position = 32;
width = 142;
},
{
position = 358;
width = 142;
}
);
};
};
},
{
glyphname = ohorn;
lastChange = "2017-07-12 19:24:33 +0000";
layers = (
{
layerId = "C3DEC2A7-F599-40A3-AE95-7DABCECAEB0F";
paths = (
{
closed = 1;
nodes = (
"266 447 CURVE SMOOTH",
"301 447 OFFCURVE",
"328 444 OFFCURVE",
"364 427 CURVE SMOOTH",
"400 410 OFFCURVE",
"438 399 OFFCURVE",
"464 399 CURVE SMOOTH",
"487 399 OFFCURVE",
"500 406 OFFCURVE",
"500 418 CURVE SMOOTH",
"500 432 OFFCURVE",
"478 446 OFFCURVE",
"478 470 CURVE SMOOTH",
"478 510 OFFCURVE",
"540 516 OFFCURVE",
"572 516 CURVE",
"581 507 OFFCURVE",
"591 475 OFFCURVE",
"591 448 CURVE SMOOTH",
"591 391 OFFCURVE",
"523 352 OFFCURVE",
"470 352 CURVE SMOOTH",
"465 352 OFFCURVE",
"461 352 OFFCURVE",
"457 353 CURVE",
"485 316 OFFCURVE",
"501 270 OFFCURVE",
"501 220 CURVE SMOOTH",
"501 94 OFFCURVE",
"398 -7 OFFCURVE",
"266 -7 CURVE SMOOTH",
"135 -7 OFFCURVE",
"31 94 OFFCURVE",
"31 220 CURVE SMOOTH",
"31 346 OFFCURVE",
"135 447 OFFCURVE"
);
},
{
closed = 1;
nodes = (
"252 392 CURVE SMOOTH",
"189 392 OFFCURVE",
"173 314 OFFCURVE",
"173 251 CURVE SMOOTH",
"173 162 OFFCURVE",
"187 48 OFFCURVE",
"276 48 CURVE SMOOTH",
"338 48 OFFCURVE",
"357 123 OFFCURVE",
"357 185 CURVE SMOOTH",
"357 276 OFFCURVE",
"343 392 OFFCURVE"
);
}
);
width = 562;
}
);
unicode = 01A1;
userData = {
com.fontlab.hintData = {
hhints = (
{
position = -7;
width = 55;
},
{
position = 352;
width = 47;
},
{
position = 392;
width = 55;
}
);
vhints = (
{
position = 31;
width = 142;
},
{
position = 357;
width = 144;
},
{
position = 500;
width = 91;
}
);
};
};
},
{
glyphname = oslash;
lastChange = "2017-07-12 19:24:33 +0000";
layers = (
{
components = (
{
name = o;
}
);
layerId = "C3DEC2A7-F599-40A3-AE95-7DABCECAEB0F";
paths = (
{
closed = 1;
nodes = (
"373 455 LINE",
"381 452 OFFCURVE",
"407 443 OFFCURVE",
"405 436 CURVE",
"152 -16 LINE",
"144 -13 OFFCURVE",
"118 -3 OFFCURVE",
"120 4 CURVE"
);
}
);
width = 532;
}
);
unicode = 00F8;
userData = {
com.fontlab.hintData = {
hhints = (
{
position = -7;
width = 42;
},
{
position = 406;
width = 41;
}
);
vhints = (
{
position = 32;
width = 142;
},
{
position = 358;
width = 142;
}
);
};
};
},
{
glyphname = oe;
lastChange = "2017-07-12 19:24:33 +0000";
layers = (
{
layerId = "C3DEC2A7-F599-40A3-AE95-7DABCECAEB0F";
paths = (
{
closed = 1;
nodes = (
"570 406 CURVE SMOOTH",
"511 406 OFFCURVE",
"489 316 OFFCURVE",
"489 282 CURVE",
"498 281 OFFCURVE",
"594 287 OFFCURVE",
"618 290 CURVE SMOOTH",
"630 291 OFFCURVE",
"631 300 OFFCURVE",
"631 306 CURVE SMOOTH",
"631 352 OFFCURVE",
"615 406 OFFCURVE"
);
},
{
closed = 1;
nodes = (
"254 406 CURVE SMOOTH",
"181 406 OFFCURVE",
"174 310 OFFCURVE",
"174 237 CURVE SMOOTH",
"174 149 OFFCURVE",
"204 35 OFFCURVE",
"277 35 CURVE SMOOTH",
"350 35 OFFCURVE",
"358 130 OFFCURVE",
"358 202 CURVE SMOOTH",
"358 291 OFFCURVE",
"327 406 OFFCURVE"
);
},
{
closed = 1;
nodes = (
"628 75 CURVE SMOOTH",
"686 75 OFFCURVE",
"719 102 OFFCURVE",
"740 125 CURVE",
"747 123 OFFCURVE",
"752 113 OFFCURVE",
"752 107 CURVE SMOOTH",
"752 100 OFFCURVE",
"751 91 OFFCURVE",
"749 88 CURVE SMOOTH",
"731 60 OFFCURVE",
"663 -9 OFFCURVE",
"568 -9 CURVE SMOOTH",
"511 -9 OFFCURVE",
"458 12 OFFCURVE",
"419 49 CURVE",
"379 15 OFFCURVE",
"325 -7 OFFCURVE",
"267 -7 CURVE SMOOTH",
"128 -7 OFFCURVE",
"32 91 OFFCURVE",
"32 217 CURVE SMOOTH",
"32 343 OFFCURVE",
"134 447 OFFCURVE",
"265 447 CURVE SMOOTH",
"335 447 OFFCURVE",
"394 423 OFFCURVE",
"436 382 CURVE",
"475 422 OFFCURVE",
"527 447 OFFCURVE",
"580 447 CURVE SMOOTH",
"711 447 OFFCURVE",
"755 354 OFFCURVE",
"755 296 CURVE SMOOTH",
"755 274 OFFCURVE",
"743 255 OFFCURVE",
"728 254 CURVE SMOOTH",
"660 248 OFFCURVE",
"562 244 OFFCURVE",
"488 242 CURVE",
"488 102 OFFCURVE",
"583 75 OFFCURVE"
);
}
);
width = 786;
}
);
unicode = 0153;
userData = {
com.fontlab.hintData = {
hhints = (
{
position = -9;
width = 84;
},
{
position = -7;
width = 42;
},
{
position = 242;
width = 40;
},
{
position = 406;
width = 41;
}
);
vhints = (
{
position = 32;
width = 142;
},
{
position = 358;
width = 130;
},
{
position = 631;
width = 124;
}
);
};
};
},
{
glyphname = p;
lastChange = "2017-07-12 19:24:33 +0000";
layers = (
{
layerId = "C3DEC2A7-F599-40A3-AE95-7DABCECAEB0F";
paths = (
{
closed = 1;
nodes = (
"325 448 CURVE SMOOTH",
"446 448 OFFCURVE",
"521 345 OFFCURVE",
"521 234 CURVE SMOOTH",
"521 81 OFFCURVE",
"386 -8 OFFCURVE",
"276 -8 CURVE SMOOTH",
"248 -8 OFFCURVE",
"222 1 OFFCURVE",
"218 1 CURVE",
"215 1 OFFCURVE",
"215 -3 OFFCURVE",
"215 -15 CURVE SMOOTH",
"215 -69 LINE SMOOTH",
"215 -112 OFFCURVE",
"215 -143 OFFCURVE",
"223 -163 CURVE SMOOTH",
"228 -176 OFFCURVE",
"274 -180 OFFCURVE",
"287 -181 CURVE",
"292 -188 OFFCURVE",
"291 -212 OFFCURVE",
"287 -218 CURVE",
"248 -214 OFFCURVE",
"192 -211 OFFCURVE",
"150 -211 CURVE SMOOTH",
"108 -211 OFFCURVE",
"52 -214 OFFCURVE",
"13 -218 CURVE",
"9 -212 OFFCURVE",
"8 -188 OFFCURVE",
"13 -181 CURVE",
"26 -180 OFFCURVE",
"72 -176 OFFCURVE",
"77 -163 CURVE SMOOTH",
"85 -143 OFFCURVE",
"85 -112 OFFCURVE",
"85 -69 CURVE SMOOTH",
"85 260 LINE SMOOTH",
"85 270 OFFCURVE",
"84 327 OFFCURVE",
"76 342 CURVE SMOOTH",
"68 357 OFFCURVE",
"20 362 OFFCURVE",
"13 362 CURVE",
"10 364 OFFCURVE",
"9 393 OFFCURVE",
"14 393 CURVE",
"90 399 OFFCURVE",
"171 427 OFFCURVE",
"209 446 CURVE",
"216 444 OFFCURVE",
"226 432 OFFCURVE",
"226 429 CURVE",
"224 423 OFFCURVE",
"217 411 OFFCURVE",
"217 395 CURVE SMOOTH",
"217 389 OFFCURVE",
"219 387 OFFCURVE",
"221 389 CURVE SMOOTH",
"251 421 OFFCURVE",
"294 448 OFFCURVE"
);
},
{
closed = 1;
nodes = (
"270 375 CURVE SMOOTH",
"233 375 OFFCURVE",
"215 352 OFFCURVE",
"215 347 CURVE SMOOTH",
"215 96 LINE SMOOTH",
"215 56 OFFCURVE",
"248 36 OFFCURVE",
"283 36 CURVE SMOOTH",
"316 36 OFFCURVE",
"377 83 OFFCURVE",
"377 199 CURVE SMOOTH",
"377 302 OFFCURVE",
"351 375 OFFCURVE"
);
}
);
width = 553;
}
);
unicode = 0070;
userData = {
com.fontlab.hintData = {
hhints = (
{
position = -218;
width = 37;
},
{
position = -8;
width = 44;
},
{
position = 362;
width = 31;
},
{
position = 375;
width = 73;
}
);
vhints = (
{
position = 85;
width = 130;
},
{
position = 377;
width = 144;
}
);
};
};
},
{
glyphname = thorn;
lastChange = "2017-07-12 19:24:33 +0000";
layers = (
{
layerId = "C3DEC2A7-F599-40A3-AE95-7DABCECAEB0F";
paths = (
{
closed = 1;
nodes = (
"307 448 CURVE SMOOTH",
"428 448 OFFCURVE",
"503 345 OFFCURVE",
"503 234 CURVE SMOOTH",
"503 81 OFFCURVE",
"368 -8 OFFCURVE",
"258 -8 CURVE SMOOTH",
"230 -8 OFFCURVE",
"204 1 OFFCURVE",
"200 1 CURVE",
"197 1 OFFCURVE",
"197 -3 OFFCURVE",
"197 -15 CURVE SMOOTH",
"197 -69 LINE SMOOTH",
"197 -112 OFFCURVE",
"197 -143 OFFCURVE",
"205 -163 CURVE SMOOTH",
"210 -176 OFFCURVE",
"256 -180 OFFCURVE",
"269 -181 CURVE",
"274 -188 OFFCURVE",
"273 -212 OFFCURVE",
"269 -218 CURVE",
"230 -214 OFFCURVE",
"174 -211 OFFCURVE",
"132 -211 CURVE SMOOTH",
"90 -211 OFFCURVE",
"34 -214 OFFCURVE",
"-5 -218 CURVE",
"-9 -212 OFFCURVE",
"-10 -188 OFFCURVE",
"-5 -181 CURVE",
"8 -180 OFFCURVE",
"54 -176 OFFCURVE",
"59 -163 CURVE SMOOTH",
"67 -143 OFFCURVE",
"67 -112 OFFCURVE",
"67 -69 CURVE SMOOTH",
"67 558 LINE SMOOTH",
"67 575 OFFCURVE",
"67 589 OFFCURVE",
"60 606 CURVE SMOOTH",
"55 618 OFFCURVE",
"12 624 OFFCURVE",
"0 624 CURVE",
"-4 624 OFFCURVE",
"-5 652 OFFCURVE",
"0 656 CURVE",
"112 666 OFFCURVE",
"190 695 OFFCURVE",
"193 695 CURVE",
"199 694 OFFCURVE",
"207 683 OFFCURVE",
"208 678 CURVE",
"208 678 OFFCURVE",
"197 616 OFFCURVE",
"197 576 CURVE SMOOTH",
"197 408 OFFCURVE",
"197 410 OFFCURVE",
"197 394 CURVE SMOOTH",
"197 392 OFFCURVE",
"198 391 OFFCURVE",
"198 390 CURVE SMOOTH",
"199 387 OFFCURVE",
"200 387 OFFCURVE",
"201 388 CURVE SMOOTH",
"231 420 OFFCURVE",
"276 448 OFFCURVE"
);
},
{
closed = 1;
nodes = (
"252 375 CURVE SMOOTH",
"215 375 OFFCURVE",
"197 352 OFFCURVE",
"197 347 CURVE SMOOTH",
"197 96 LINE SMOOTH",
"197 56 OFFCURVE",
"230 36 OFFCURVE",
"265 36 CURVE SMOOTH",
"298 36 OFFCURVE",
"359 83 OFFCURVE",
"359 199 CURVE SMOOTH",
"359 302 OFFCURVE",
"333 375 OFFCURVE"
);
}
);
width = 535;
}
);
unicode = 00FE;
userData = {
com.fontlab.hintData = {
hhints = (
{
position = -218;
width = 37;
},
{
position = -8;
width = 44;
},
{
position = 375;
width = 73;
},
{
position = 624;
width = 32;
},
{
position = 675;
width = 20;
}
);
vhints = (
{
position = 67;
width = 130;
},
{
position = 359;
width = 144;
}
);
};
};
},
{
glyphname = q;
lastChange = "2017-07-12 19:24:33 +0000";
layers = (
{
layerId = "C3DEC2A7-F599-40A3-AE95-7DABCECAEB0F";
paths = (
{
closed = 1;
nodes = (
"262 394 CURVE SMOOTH",
"192 394 OFFCURVE",
"174 314 OFFCURVE",
"174 243 CURVE SMOOTH",
"174 160 OFFCURVE",
"199 56 OFFCURVE",
"276 56 CURVE SMOOTH",
"312 56 OFFCURVE",
"336 76 OFFCURVE",
"336 80 CURVE SMOOTH",
"336 344 LINE SMOOTH",
"336 354 OFFCURVE",
"314 394 OFFCURVE"
);
},
{
closed = 1;
nodes = (
"300 446 CURVE SMOOTH",
"338 446 OFFCURVE",
"388 423 OFFCURVE",
"418 423 CURVE SMOOTH",
"439 423 OFFCURVE",
"448 428 OFFCURVE",
"454 430 CURVE",
"460 428 OFFCURVE",
"478 412 OFFCURVE",
"478 405 CURVE",
"473 393 OFFCURVE",
"466 360 OFFCURVE",
"466 291 CURVE SMOOTH",
"466 -69 LINE SMOOTH",
"466 -112 OFFCURVE",
"466 -143 OFFCURVE",
"474 -163 CURVE SMOOTH",
"479 -176 OFFCURVE",
"525 -180 OFFCURVE",
"538 -181 CURVE",
"543 -188 OFFCURVE",
"542 -212 OFFCURVE",
"538 -218 CURVE",
"499 -214 OFFCURVE",
"443 -211 OFFCURVE",
"401 -211 CURVE SMOOTH",
"359 -211 OFFCURVE",
"303 -214 OFFCURVE",
"264 -218 CURVE",
"260 -212 OFFCURVE",
"259 -188 OFFCURVE",
"264 -181 CURVE",
"277 -180 OFFCURVE",
"323 -176 OFFCURVE",
"328 -163 CURVE SMOOTH",
"336 -143 OFFCURVE",
"336 -112 OFFCURVE",
"336 -69 CURVE SMOOTH",
"336 17 LINE SMOOTH",
"336 23 OFFCURVE",
"336 35 OFFCURVE",
"330 30 CURVE SMOOTH",
"315 19 OFFCURVE",
"263 -8 OFFCURVE",
"216 -8 CURVE SMOOTH",
"115 -8 OFFCURVE",
"32 84 OFFCURVE",
"32 192 CURVE SMOOTH",
"32 349 OFFCURVE",
"173 446 OFFCURVE"
);
}
);
width = 534;
}
);
unicode = 0071;
userData = {
com.fontlab.hintData = {
hhints = (
{
position = -218;
width = 37;
},
{
position = -8;
width = 64;
},
{
position = 394;
width = 52;
}
);
vhints = (
{
position = 32;
width = 142;
},
{
position = 336;
width = 130;
}
);
};
};
},
{
glyphname = r;
lastChange = "2017-07-12 19:24:33 +0000";
layers = (
{
layerId = "C3DEC2A7-F599-40A3-AE95-7DABCECAEB0F";
paths = (
{
closed = 1;
nodes = (
"363 447 CURVE SMOOTH",
"389 447 OFFCURVE",
"413 442 OFFCURVE",
"426 430 CURVE",
"430 424 OFFCURVE",
"437 402 OFFCURVE",
"437 381 CURVE SMOOTH",
"437 347 OFFCURVE",
"411 302 OFFCURVE",
"377 302 CURVE SMOOTH",
"359 302 OFFCURVE",
"346 317 OFFCURVE",
"334 327 CURVE SMOOTH",
"323 337 OFFCURVE",
"315 348 OFFCURVE",
"298 348 CURVE SMOOTH",
"257 348 OFFCURVE",
"231 288 OFFCURVE",
"231 267 CURVE SMOOTH",
"231 145 LINE SMOOTH",
"231 108 OFFCURVE",
"231 71 OFFCURVE",
"239 51 CURVE SMOOTH",
"244 38 OFFCURVE",
"300 34 OFFCURVE",
"313 33 CURVE",
"318 26 OFFCURVE",
"317 2 OFFCURVE",
"313 -4 CURVE",
"274 0 OFFCURVE",
"208 3 OFFCURVE",
"166 3 CURVE SMOOTH",
"124 3 OFFCURVE",
"68 0 OFFCURVE",
"29 -4 CURVE",
"25 2 OFFCURVE",
"24 26 OFFCURVE",
"29 33 CURVE",
"42 34 OFFCURVE",
"88 38 OFFCURVE",
"93 51 CURVE SMOOTH",
"101 71 OFFCURVE",
"101 102 OFFCURVE",
"101 145 CURVE SMOOTH",
"101 260 LINE SMOOTH",
"101 270 OFFCURVE",
"100 327 OFFCURVE",
"92 342 CURVE SMOOTH",
"84 357 OFFCURVE",
"36 362 OFFCURVE",
"29 362 CURVE",
"26 364 OFFCURVE",
"25 393 OFFCURVE",
"30 393 CURVE",
"106 399 OFFCURVE",
"187 427 OFFCURVE",
"225 446 CURVE",
"232 444 OFFCURVE",
"242 432 OFFCURVE",
"242 429 CURVE",
"239 421 OFFCURVE",
"232 364 OFFCURVE",
"232 350 CURVE SMOOTH",
"232 345 OFFCURVE",
"237 345 OFFCURVE",
"238 347 CURVE SMOOTH",
"262 390 OFFCURVE",
"300 447 OFFCURVE"
);
}
);
width = 449;
}
);
unicode = 0072;
userData = {
com.fontlab.hintData = {
hhints = (
{
position = -4;
width = 37;
},
{
position = 348;
width = 99;
},
{
position = 362;
width = 31;
}
);
vhints = (
{
position = 101;
width = 130;
}
);
};
};
},
{
glyphname = s;
lastChange = "2017-07-12 19:24:33 +0000";
layers = (
{
layerId = "C3DEC2A7-F599-40A3-AE95-7DABCECAEB0F";
paths = (
{
closed = 1;
nodes = (
"224 448 CURVE SMOOTH",
"271 448 OFFCURVE",
"303 436 OFFCURVE",
"336 429 CURVE",
"344 395 OFFCURVE",
"357 323 OFFCURVE",
"357 306 CURVE SMOOTH",
"357 302 OFFCURVE",
"346 299 OFFCURVE",
"339 299 CURVE SMOOTH",
"331 299 OFFCURVE",
"326 303 OFFCURVE",
"320 307 CURVE",
"310 352 OFFCURVE",
"284 408 OFFCURVE",
"214 408 CURVE SMOOTH",
"181 408 OFFCURVE",
"157 390 OFFCURVE",
"157 354 CURVE SMOOTH",
"157 302 OFFCURVE",
"215 287 OFFCURVE",
"259 265 CURVE SMOOTH",
"311 239 OFFCURVE",
"367 215 OFFCURVE",
"367 130 CURVE SMOOTH",
"367 30 OFFCURVE",
"274 -8 OFFCURVE",
"170 -8 CURVE SMOOTH",
"126 -8 OFFCURVE",
"78 7 OFFCURVE",
"53 13 CURVE",
"49 36 OFFCURVE",
"45 132 OFFCURVE",
"45 143 CURVE SMOOTH",
"45 149 OFFCURVE",
"55 150 OFFCURVE",
"60 150 CURVE SMOOTH",
"67 150 OFFCURVE",
"79 146 OFFCURVE",
"82 140 CURVE",
"96 53 OFFCURVE",
"150 32 OFFCURVE",
"190 32 CURVE SMOOTH",
"225 32 OFFCURVE",
"247 58 OFFCURVE",
"247 86 CURVE SMOOTH",
"247 136 OFFCURVE",
"191 149 OFFCURVE",
"144 175 CURVE SMOOTH",
"86 207 OFFCURVE",
"38 242 OFFCURVE",
"38 310 CURVE SMOOTH",
"38 410 OFFCURVE",
"145 448 OFFCURVE"
);
}
);
width = 404;
}
);
unicode = 0073;
userData = {
com.fontlab.hintData = {
hhints = (
{
position = -8;
width = 40;
},
{
position = 408;
width = 40;
}
);
vhints = (
{
position = 38;
width = 119;
},
{
position = 45;
width = 37;
},
{
position = 247;
width = 120;
}
);
};
};
},
{
glyphname = germandbls;
lastChange = "2017-07-12 19:24:33 +0000";
layers = (
{
layerId = "C3DEC2A7-F599-40A3-AE95-7DABCECAEB0F";
paths = (
{
closed = 1;
nodes = (
"328 698 CURVE SMOOTH",
"414 698 OFFCURVE",
"503 643 OFFCURVE",
"503 563 CURVE SMOOTH",
"503 515 OFFCURVE",
"475 490 OFFCURVE",
"452 470 CURVE SMOOTH",
"429 450 OFFCURVE",
"393 425 OFFCURVE",
"393 402 CURVE SMOOTH",
"393 365 OFFCURVE",
"460 315 OFFCURVE",
"490 286 CURVE SMOOTH",
"526 251 OFFCURVE",
"562 214 OFFCURVE",
"562 153 CURVE SMOOTH",
"562 52 OFFCURVE",
"468 -10 OFFCURVE",
"392 -10 CURVE SMOOTH",
"358 -10 OFFCURVE",
"317 0 OFFCURVE",
"301 17 CURVE",
"296 27 OFFCURVE",
"292 40 OFFCURVE",
"292 54 CURVE SMOOTH",
"292 86 OFFCURVE",
"311 122 OFFCURVE",
"341 122 CURVE SMOOTH",
"376 122 OFFCURVE",
"389 88 OFFCURVE",
"398 70 CURVE SMOOTH",
"407 52 OFFCURVE",
"419 34 OFFCURVE",
"438 34 CURVE SMOOTH",
"461 34 OFFCURVE",
"470 53 OFFCURVE",
"470 82 CURVE SMOOTH",
"470 131 OFFCURVE",
"426 170 OFFCURVE",
"386 210 CURVE SMOOTH",
"345 251 OFFCURVE",
"290 290 OFFCURVE",
"290 348 CURVE SMOOTH",
"290 377 OFFCURVE",
"318 401 OFFCURVE",
"341 427 CURVE SMOOTH",
"367 456 OFFCURVE",
"384 479 OFFCURVE",
"384 525 CURVE SMOOTH",
"384 582 OFFCURVE",
"361 651 OFFCURVE",
"303 651 CURVE SMOOTH",
"263 651 OFFCURVE",
"224 586 OFFCURVE",
"224 486 CURVE SMOOTH",
"224 145 LINE SMOOTH",
"224 102 OFFCURVE",
"224 71 OFFCURVE",
"232 51 CURVE SMOOTH",
"237 38 OFFCURVE",
"262 34 OFFCURVE",
"275 33 CURVE",
"280 26 OFFCURVE",
"279 2 OFFCURVE",
"275 -4 CURVE",
"236 0 OFFCURVE",
"201 3 OFFCURVE",
"159 3 CURVE SMOOTH",
"117 3 OFFCURVE",
"61 0 OFFCURVE",
"22 -4 CURVE",
"18 2 OFFCURVE",
"17 26 OFFCURVE",
"22 33 CURVE",
"35 34 OFFCURVE",
"81 38 OFFCURVE",
"86 51 CURVE SMOOTH",
"94 71 OFFCURVE",
"94 102 OFFCURVE",
"94 145 CURVE SMOOTH",
"94 145 OFFCURVE",
"94 292 OFFCURVE",
"94 381 CURVE",
"67 381 OFFCURVE",
"61 381 OFFCURVE",
"35 381 CURVE",
"30 383 OFFCURVE",
"30 390 OFFCURVE",
"30 394 CURVE",
"40 408 OFFCURVE",
"50 418 OFFCURVE",
"62 428 CURVE",
"75 428 OFFCURVE",
"84 428 OFFCURVE",
"94 428 CURVE",
"94 443 LINE SMOOTH",
"94 580 OFFCURVE",
"223 698 OFFCURVE"
);
}
);
width = 590;
}
);
unicode = 00DF;
userData = {
com.fontlab.hintData = {
hhints = (
{
position = -10;
width = 44;
},
{
position = 381;
width = 47;
},
{
position = 651;
width = 47;
}
);
vhints = (
{
position = 94;
width = 130;
},
{
position = 384;
width = 9;
},
{
position = 470;
width = 92;
}
);
};
};
},
{
glyphname = t;
lastChange = "2017-07-12 19:24:33 +0000";
layers = (
{
layerId = "C3DEC2A7-F599-40A3-AE95-7DABCECAEB0F";
paths = (
{
closed = 1;
nodes = (
"212 428 CURVE",
"219 428 OFFCURVE",
"293 428 OFFCURVE",
"326 428 CURVE SMOOTH",
"330 428 OFFCURVE",
"332 420 OFFCURVE",
"332 415 CURVE SMOOTH",
"332 406 OFFCURVE",
"319 388 OFFCURVE",
"309 381 CURVE",
"279 381 OFFCURVE",
"245 381 OFFCURVE",
"212 381 CURVE",
"212 133 LINE SMOOTH",
"212 80 OFFCURVE",
"229 57 OFFCURVE",
"266 57 CURVE SMOOTH",
"290 57 OFFCURVE",
"316 78 OFFCURVE",
"319 81 CURVE",
"321 79 OFFCURVE",
"326 72 OFFCURVE",
"326 67 CURVE SMOOTH",
"326 62 OFFCURVE",
"320 50 OFFCURVE",
"318 48 CURVE SMOOTH",
"309 38 OFFCURVE",
"264 -7 OFFCURVE",
"212 -7 CURVE SMOOTH",
"150 -7 OFFCURVE",
"82 27 OFFCURVE",
"82 139 CURVE SMOOTH",
"82 381 LINE",
"55 381 OFFCURVE",
"37 381 OFFCURVE",
"11 381 CURVE",
"6 383 OFFCURVE",
"6 390 OFFCURVE",
"6 394 CURVE",
"16 408 OFFCURVE",
"26 418 OFFCURVE",
"38 428 CURVE",
"51 428 OFFCURVE",
"72 428 OFFCURVE",
"82 428 CURVE",
"82 428 OFFCURVE",
"82 461 OFFCURVE",
"82 481 CURVE",
"120 513 OFFCURVE",
"156 556 OFFCURVE",
"187 587 CURVE",
"198 594 OFFCURVE",
"211 593 OFFCURVE",
"212 587 CURVE",
"212 533 OFFCURVE",
"212 481 OFFCURVE"
);
}
);
width = 342;
}
);
unicode = 0074;
userData = {
com.fontlab.hintData = {
hhints = (
{
position = -7;
width = 64;
},
{
position = 381;
width = 47;
}
);
vhints = (
{
position = 82;
width = 130;
}
);
};
};
},
{
glyphname = tbar;
lastChange = "2017-07-12 19:24:33 +0000";
layers = (
{
components = (
{
name = t;
}
);
layerId = "C3DEC2A7-F599-40A3-AE95-7DABCECAEB0F";
paths = (
{
closed = 1;
nodes = (
"327 273 CURVE",
"298 273 OFFCURVE",
"27 273 OFFCURVE",
"13 273 CURVE",
"9 273 OFFCURVE",
"8 301 OFFCURVE",
"14 310 CURVE",
"43 310 OFFCURVE",
"313 310 OFFCURVE",
"327 310 CURVE",
"331 310 OFFCURVE",
"331 282 OFFCURVE"
);
}
);
width = 344;
}
);
unicode = 0167;
userData = {
com.fontlab.hintData = {
hhints = (
{
position = -7;
width = 64;
},
{
position = 273;
width = 37;
},
{
position = 381;
width = 47;
}
);
vhints = (
{
position = 82;
width = 130;
}
);
};
};
},
{
glyphname = u;
lastChange = "2017-07-12 19:24:33 +0000";
layers = (
{
layerId = "C3DEC2A7-F599-40A3-AE95-7DABCECAEB0F";
paths = (
{
closed = 1;
nodes = (
"356 260 LINE SMOOTH",
"356 270 OFFCURVE",
"354 327 OFFCURVE",
"346 342 CURVE SMOOTH",
"338 357 OFFCURVE",
"291 362 OFFCURVE",
"284 362 CURVE",
"281 364 OFFCURVE",
"279 393 OFFCURVE",
"284 393 CURVE",
"360 399 OFFCURVE",
"442 427 OFFCURVE",
"480 446 CURVE",
"487 444 OFFCURVE",
"496 432 OFFCURVE",
"496 429 CURVE",
"493 421 OFFCURVE",
"487 386 OFFCURVE",
"486 372 CURVE SMOOTH",
"485 350 OFFCURVE",
"486 315 OFFCURVE",
"486 309 CURVE SMOOTH",
"486 108 LINE SMOOTH",
"486 93 OFFCURVE",
"485 80 OFFCURVE",
"494 70 CURVE SMOOTH",
"503 60 OFFCURVE",
"531 60 OFFCURVE",
"540 60 CURVE",
"542 58 OFFCURVE",
"542 54 OFFCURVE",
"542 47 CURVE SMOOTH",
"542 41 OFFCURVE",
"540 34 OFFCURVE",
"536 28 CURVE",
"477 22 OFFCURVE",
"377 -7 OFFCURVE",
"364 -7 CURVE SMOOTH",
"360 -7 OFFCURVE",
"356 2 OFFCURVE",
"356 17 CURVE SMOOTH",
"356 33 LINE SMOOTH",
"356 35 OFFCURVE",
"355 40 OFFCURVE",
"352 38 CURVE SMOOTH",
"336 27 OFFCURVE",
"282 -5 OFFCURVE",
"212 -5 CURVE SMOOTH",
"115 -5 OFFCURVE",
"84 80 OFFCURVE",
"84 174 CURVE SMOOTH",
"84 260 LINE SMOOTH",
"84 270 OFFCURVE",
"82 327 OFFCURVE",
"74 342 CURVE SMOOTH",
"66 357 OFFCURVE",
"19 362 OFFCURVE",
"12 362 CURVE",
"9 364 OFFCURVE",
"7 393 OFFCURVE",
"12 393 CURVE",
"88 399 OFFCURVE",
"170 427 OFFCURVE",
"208 446 CURVE",
"215 444 OFFCURVE",
"224 432 OFFCURVE",
"224 429 CURVE",
"221 421 OFFCURVE",
"215 386 OFFCURVE",
"214 372 CURVE SMOOTH",
"213 350 OFFCURVE",
"214 315 OFFCURVE",
"214 309 CURVE SMOOTH",
"214 219 LINE SMOOTH",
"214 113 OFFCURVE",
"230 56 OFFCURVE",
"292 56 CURVE SMOOTH",
"320 56 OFFCURVE",
"356 78 OFFCURVE",
"356 93 CURVE SMOOTH"
);
}
);
width = 566;
}
);
unicode = 0075;
userData = {
com.fontlab.hintData = {
hhints = (
{
position = -5;
width = 61;
},
{
position = 28;
width = 32;
},
{
position = 362;
width = 31;
},
{
position = 426;
width = 20;
}
);
vhints = (
{
position = 84;
width = 130;
},
{
position = 356;
width = 130;
}
);
};
};
},
{
glyphname = uhorn;
lastChange = "2017-07-12 19:24:33 +0000";
layers = (
{
layerId = "C3DEC2A7-F599-40A3-AE95-7DABCECAEB0F";
paths = (
{
closed = 1;
nodes = (
"503 437 CURVE SMOOTH",
"537 444 OFFCURVE",
"564 452 OFFCURVE",
"564 464 CURVE SMOOTH",
"564 478 OFFCURVE",
"542 492 OFFCURVE",
"542 516 CURVE SMOOTH",
"542 556 OFFCURVE",
"604 562 OFFCURVE",
"636 562 CURVE",
"645 553 OFFCURVE",
"655 521 OFFCURVE",
"655 494 CURVE SMOOTH",
"655 414 OFFCURVE",
"539 391 OFFCURVE",
"520 382 CURVE SMOOTH",
"501 373 OFFCURVE",
"499 360 OFFCURVE",
"499 327 CURVE SMOOTH",
"499 131 LINE SMOOTH",
"499 106 OFFCURVE",
"500 78 OFFCURVE",
"509 68 CURVE SMOOTH",
"520 56 OFFCURVE",
"554 59 OFFCURVE",
"557 58 CURVE SMOOTH",
"559 57 OFFCURVE",
"561 53 OFFCURVE",
"561 50 CURVE SMOOTH",
"561 48 OFFCURVE",
"560 21 OFFCURVE",
"555 21 CURVE SMOOTH",
"502 18 OFFCURVE",
"374 -5 OFFCURVE",
"373 -5 CURVE SMOOTH",
"368 -5 OFFCURVE",
"367 6 OFFCURVE",
"367 13 CURVE SMOOTH",
"367 50 LINE SMOOTH",
"367 55 OFFCURVE",
"365 56 OFFCURVE",
"363 54 CURVE SMOOTH",
"340 30 OFFCURVE",
"283 -4 OFFCURVE",
"214 -4 CURVE SMOOTH",
"132 -4 OFFCURVE",
"84 80 OFFCURVE",
"84 174 CURVE SMOOTH",
"84 271 LINE SMOOTH",
"84 281 OFFCURVE",
"82 329 OFFCURVE",
"66 346 CURVE SMOOTH",
"50 364 OFFCURVE",
"11 365 OFFCURVE",
"11 369 CURVE SMOOTH",
"11 372 OFFCURVE",
"11 404 OFFCURVE",
"16 404 CURVE SMOOTH",
"42 404 OFFCURVE",
"162 428 OFFCURVE",
"199 440 CURVE SMOOTH",
"200 440 OFFCURVE",
"209 443 OFFCURVE",
"210 443 CURVE SMOOTH",
"218 443 OFFCURVE",
"225 431 OFFCURVE",
"225 426 CURVE SMOOTH",
"221 394 OFFCURVE",
"214 360 OFFCURVE",
"214 326 CURVE SMOOTH",
"214 219 LINE SMOOTH",
"214 113 OFFCURVE",
"240 78 OFFCURVE",
"301 78 CURVE SMOOTH",
"351 78 OFFCURVE",
"369 107 OFFCURVE",
"369 128 CURVE SMOOTH",
"369 271 LINE SMOOTH",
"369 281 OFFCURVE",
"367 329 OFFCURVE",
"351 346 CURVE SMOOTH",
"335 364 OFFCURVE",
"296 365 OFFCURVE",
"296 369 CURVE SMOOTH",
"296 372 OFFCURVE",
"296 404 OFFCURVE",
"301 404 CURVE SMOOTH",
"311 404 OFFCURVE",
"422 421 OFFCURVE"
);
}
);
width = 613;
}
);
unicode = 01B0;
userData = {
com.fontlab.hintData = {
hhints = (
{
position = -4;
width = 82;
},
{
position = 21;
width = 37;
},
{
position = 423;
width = 20;
}
);
vhints = (
{
position = 84;
width = 130;
},
{
position = 369;
width = 130;
},
{
position = 564;
width = 91;
}
);
};
};
},
{
glyphname = uni01EB;
lastChange = "2017-07-12 19:24:33 +0000";
layers = (
{
layerId = "C3DEC2A7-F599-40A3-AE95-7DABCECAEB0F";
paths = (
{
closed = 1;
nodes = (
"260 449 CURVE SMOOTH",
"391 449 OFFCURVE",
"495 347 OFFCURVE",
"495 221 CURVE SMOOTH",
"495 169 OFFCURVE",
"478 121 OFFCURVE",
"448 83 CURVE SMOOTH",
"389 8 OFFCURVE",
"331 -57 OFFCURVE",
"331 -110 CURVE SMOOTH",
"331 -131 OFFCURVE",
"351 -142 OFFCURVE",
"372 -142 CURVE SMOOTH",
"400 -142 OFFCURVE",
"439 -120 OFFCURVE",
"452 -109 CURVE SMOOTH",
"453 -109 OFFCURVE",
"457 -119 OFFCURVE",
"457 -127 CURVE SMOOTH",
"457 -132 OFFCURVE",
"454 -145 OFFCURVE",
"451 -149 CURVE SMOOTH",
"436 -168 OFFCURVE",
"384 -218 OFFCURVE",
"328 -218 CURVE SMOOTH",
"295 -218 OFFCURVE",
"247 -193 OFFCURVE",
"247 -140 CURVE SMOOTH",
"247 -98 OFFCURVE",
"287 -32 OFFCURVE",
"331 3 CURVE",
"309 -4 OFFCURVE",
"285 -7 OFFCURVE",
"260 -7 CURVE SMOOTH",
"129 -7 OFFCURVE",
"25 95 OFFCURVE",
"25 221 CURVE SMOOTH",
"25 347 OFFCURVE",
"129 449 OFFCURVE"
);
},
{
closed = 1;
nodes = (
"246 394 CURVE SMOOTH",
"183 394 OFFCURVE",
"167 315 OFFCURVE",
"167 252 CURVE SMOOTH",
"167 163 OFFCURVE",
"181 48 OFFCURVE",
"270 48 CURVE SMOOTH",
"332 48 OFFCURVE",
"351 124 OFFCURVE",
"351 186 CURVE SMOOTH",
"351 277 OFFCURVE",
"337 394 OFFCURVE"
);
}
);
width = 522;
}
);
unicode = 01EB;
userData = {
com.fontlab.hintData = {
hhints = (
{
position = -218;
width = 76;
},
{
position = -7;
width = 55;
},
{
position = 394;
width = 55;
}
);
vhints = (
{
position = 25;
width = 142;
},
{
position = 247;
width = 84;
},
{
position = 351;
width = 144;
}
);
};
};
},
{
glyphname = uogonek;
lastChange = "2017-07-12 19:24:33 +0000";
layers = (
{
layerId = "C3DEC2A7-F599-40A3-AE95-7DABCECAEB0F";
paths = (
{
closed = 1;
nodes = (
"212 -5 CURVE SMOOTH",
"115 -5 OFFCURVE",
"84 80 OFFCURVE",
"84 174 CURVE SMOOTH",
"84 260 LINE SMOOTH",
"84 270 OFFCURVE",
"82 327 OFFCURVE",
"74 342 CURVE SMOOTH",
"66 357 OFFCURVE",
"19 362 OFFCURVE",
"12 362 CURVE",
"9 364 OFFCURVE",
"7 393 OFFCURVE",
"12 393 CURVE SMOOTH",
"88 399 OFFCURVE",
"170 427 OFFCURVE",
"208 446 CURVE",
"215 444 OFFCURVE",
"224 432 OFFCURVE",
"224 429 CURVE",
"221 421 OFFCURVE",
"215 386 OFFCURVE",
"214 372 CURVE SMOOTH",
"213 350 OFFCURVE",
"214 315 OFFCURVE",
"214 309 CURVE SMOOTH",
"214 219 LINE SMOOTH",
"214 113 OFFCURVE",
"230 56 OFFCURVE",
"292 56 CURVE SMOOTH",
"320 56 OFFCURVE",
"356 78 OFFCURVE",
"356 93 CURVE SMOOTH",
"356 260 LINE SMOOTH",
"356 270 OFFCURVE",
"354 327 OFFCURVE",
"346 342 CURVE SMOOTH",
"338 357 OFFCURVE",
"291 362 OFFCURVE",
"284 362 CURVE",
"281 364 OFFCURVE",
"279 393 OFFCURVE",
"284 393 CURVE SMOOTH",
"360 399 OFFCURVE",
"442 427 OFFCURVE",
"480 446 CURVE",
"487 444 OFFCURVE",
"496 432 OFFCURVE",
"496 429 CURVE",
"493 421 OFFCURVE",
"487 386 OFFCURVE",
"486 372 CURVE SMOOTH",
"485 350 OFFCURVE",
"486 315 OFFCURVE",
"486 309 CURVE SMOOTH",
"486 108 LINE SMOOTH",
"486 93 OFFCURVE",
"485 80 OFFCURVE",
"494 70 CURVE SMOOTH",
"503 60 OFFCURVE",
"531 60 OFFCURVE",
"540 60 CURVE",
"542 58 OFFCURVE",
"542 54 OFFCURVE",
"542 47 CURVE SMOOTH",
"542 41 OFFCURVE",
"540 34 OFFCURVE",
"536 28 CURVE",
"529 27 OFFCURVE",
"520 27 OFFCURVE",
"512 25 CURVE SMOOTH",
"450 10 OFFCURVE",
"410 -59 OFFCURVE",
"410 -101 CURVE SMOOTH",
"410 -122 OFFCURVE",
"423 -148 OFFCURVE",
"460 -148 CURVE SMOOTH",
"488 -148 OFFCURVE",
"524 -117 OFFCURVE",
"534 -109 CURVE",
"537 -109 OFFCURVE",
"540 -112 OFFCURVE",
"540 -120 CURVE SMOOTH",
"540 -125 OFFCURVE",
"537 -141 OFFCURVE",
"534 -145 CURVE SMOOTH",
"519 -164 OFFCURVE",
"466 -218 OFFCURVE",
"410 -218 CURVE SMOOTH",
"377 -218 OFFCURVE",
"336 -192 OFFCURVE",
"336 -140 CURVE SMOOTH",
"336 -84 OFFCURVE",
"382 -24 OFFCURVE",
"442 10 CURVE",
"404 1 OFFCURVE",
"371 -7 OFFCURVE",
"364 -7 CURVE SMOOTH",
"360 -7 OFFCURVE",
"356 2 OFFCURVE",
"356 17 CURVE SMOOTH",
"356 33 LINE SMOOTH",
"356 35 OFFCURVE",
"355 40 OFFCURVE",
"352 38 CURVE SMOOTH",
"336 27 OFFCURVE",
"282 -5 OFFCURVE"
);
}
);
width = 566;
}
);
unicode = 0173;
userData = {
com.fontlab.hintData = {
hhints = (
{
position = -218;
width = 70;
},
{
position = -5;
width = 61;
},
{
position = 28;
width = 32;
},
{
position = 362;
width = 31;
},
{
position = 426;
width = 20;
}
);
vhints = (
{
position = 84;
width = 130;
},
{
position = 336;
width = 74;
},
{
position = 356;
width = 130;
}
);
};
};
},
{
glyphname = v;
lastChange = "2017-07-12 19:24:33 +0000";
layers = (
{
layerId = "C3DEC2A7-F599-40A3-AE95-7DABCECAEB0F";
paths = (
{
closed = 1;
nodes = (
"135 436 CURVE SMOOTH",
"177 436 OFFCURVE",
"236 440 OFFCURVE",
"261 443 CURVE",
"266 438 OFFCURVE",
"266 412 OFFCURVE",
"261 406 CURVE",
"249 406 OFFCURVE",
"202 396 OFFCURVE",
"202 379 CURVE SMOOTH",
"202 376 OFFCURVE",
"202 369 OFFCURVE",
"204 364 CURVE SMOOTH",
"240 294 OFFCURVE",
"307 167 OFFCURVE",
"307 167 CURVE",
"307 167 OFFCURVE",
"353 268 OFFCURVE",
"386 342 CURVE SMOOTH",
"391 352 OFFCURVE",
"397 368 OFFCURVE",
"397 379 CURVE SMOOTH",
"397 404 OFFCURVE",
"334 406 OFFCURVE",
"326 406 CURVE",
"321 411 OFFCURVE",
"321 436 OFFCURVE",
"325 443 CURVE",
"355 439 OFFCURVE",
"391 436 OFFCURVE",
"430 436 CURVE SMOOTH",
"472 436 OFFCURVE",
"519 441 OFFCURVE",
"534 443 CURVE",
"538 438 OFFCURVE",
"539 413 OFFCURVE",
"534 406 CURVE",
"522 406 OFFCURVE",
"467 402 OFFCURVE",
"453 373 CURVE SMOOTH",
"299 45 LINE SMOOTH",
"279 6 OFFCURVE",
"266 -11 OFFCURVE",
"254 -11 CURVE SMOOTH",
"251 -11 OFFCURVE",
"245 -6 OFFCURVE",
"242 -3 CURVE",
"184 117 OFFCURVE",
"130 230 OFFCURVE",
"63 368 CURVE",
"50 398 OFFCURVE",
"8 406 OFFCURVE",
"0 406 CURVE",
"-6 414 OFFCURVE",
"-4 437 OFFCURVE",
"0 443 CURVE",
"26 440 OFFCURVE",
"96 436 OFFCURVE"
);
}
);
width = 533;
}
);
unicode = 0076;
userData = {
com.fontlab.hintData = {
hhints = (
{
position = -11;
width = 21;
},
{
position = 406;
width = 37;
}
);
};
};
},
{
glyphname = w;
lastChange = "2017-07-12 19:24:33 +0000";
layers = (
{
layerId = "C3DEC2A7-F599-40A3-AE95-7DABCECAEB0F";
paths = (
{
closed = 1;
nodes = (
"128 436 CURVE SMOOTH",
"170 436 OFFCURVE",
"236 440 OFFCURVE",
"261 443 CURVE",
"266 438 OFFCURVE",
"266 412 OFFCURVE",
"261 406 CURVE",
"249 406 OFFCURVE",
"202 396 OFFCURVE",
"202 379 CURVE SMOOTH",
"202 376 OFFCURVE",
"202 369 OFFCURVE",
"204 364 CURVE SMOOTH",
"240 294 OFFCURVE",
"301 172 OFFCURVE",
"301 172 CURVE",
"301 172 OFFCURVE",
"367 320 OFFCURVE",
"367 335 CURVE SMOOTH",
"367 346 OFFCURVE",
"361 362 OFFCURVE",
"358 368 CURVE SMOOTH",
"343 397 OFFCURVE",
"303 406 OFFCURVE",
"295 406 CURVE",
"288 414 OFFCURVE",
"290 437 OFFCURVE",
"294 443 CURVE",
"334 438 OFFCURVE",
"390 437 OFFCURVE",
"429 436 CURVE",
"471 436 OFFCURVE",
"530 440 OFFCURVE",
"555 443 CURVE",
"560 438 OFFCURVE",
"560 412 OFFCURVE",
"555 406 CURVE",
"543 406 OFFCURVE",
"496 396 OFFCURVE",
"496 379 CURVE SMOOTH",
"496 376 OFFCURVE",
"496 369 OFFCURVE",
"498 364 CURVE SMOOTH",
"530 292 OFFCURVE",
"582 180 OFFCURVE",
"582 180 CURVE",
"582 180 OFFCURVE",
"618 269 OFFCURVE",
"650 342 CURVE SMOOTH",
"654 352 OFFCURVE",
"661 368 OFFCURVE",
"661 379 CURVE SMOOTH",
"661 404 OFFCURVE",
"598 406 OFFCURVE",
"590 406 CURVE",
"585 411 OFFCURVE",
"585 436 OFFCURVE",
"589 443 CURVE",
"619 439 OFFCURVE",
"655 436 OFFCURVE",
"694 436 CURVE SMOOTH",
"736 436 OFFCURVE",
"774 441 OFFCURVE",
"789 443 CURVE",
"793 438 OFFCURVE",
"794 413 OFFCURVE",
"789 406 CURVE",
"777 406 OFFCURVE",
"734 405 OFFCURVE",
"721 375 CURVE SMOOTH",
"665 245 OFFCURVE",
"633 172 OFFCURVE",
"574 44 CURVE SMOOTH",
"556 5 OFFCURVE",
"533 -11 OFFCURVE",
"524 -11 CURVE SMOOTH",
"521 -11 OFFCURVE",
"515 -6 OFFCURVE",
"512 -3 CURVE",
"512 -3 OFFCURVE",
"434 198 OFFCURVE",
"401 276 CURVE",
"370 198 OFFCURVE",
"302 44 OFFCURVE",
"302 44 CURVE SMOOTH",
"285 5 OFFCURVE",
"261 -11 OFFCURVE",
"252 -11 CURVE SMOOTH",
"249 -11 OFFCURVE",
"243 -6 OFFCURVE",
"240 -3 CURVE",
"170 146 OFFCURVE",
"131 231 OFFCURVE",
"63 368 CURVE",
"49 398 OFFCURVE",
"8 406 OFFCURVE",
"0 406 CURVE",
"-6 414 OFFCURVE",
"-4 437 OFFCURVE",
"0 443 CURVE",
"26 440 OFFCURVE",
"89 436 OFFCURVE"
);
}
);
width = 789;
}
);
unicode = 0077;
userData = {
com.fontlab.hintData = {
hhints = (
{
position = -11;
width = 21;
},
{
position = 406;
width = 37;
}
);
vhints = (
{
position = 367;
width = 129;
}
);
};
};
},
{
glyphname = x;
lastChange = "2017-07-12 19:24:33 +0000";
layers = (
{
layerId = "C3DEC2A7-F599-40A3-AE95-7DABCECAEB0F";
paths = (
{
closed = 1;
nodes = (
"155 436 CURVE",
"197 436 OFFCURVE",
"256 440 OFFCURVE",
"281 443 CURVE",
"286 438 OFFCURVE",
"286 412 OFFCURVE",
"281 406 CURVE",
"269 406 OFFCURVE",
"233 401 OFFCURVE",
"233 384 CURVE SMOOTH",
"233 381 OFFCURVE",
"239 375 OFFCURVE",
"243 370 CURVE SMOOTH",
"307 288 LINE",
"336 319 OFFCURVE",
"384 370 OFFCURVE",
"384 379 CURVE SMOOTH",
"384 404 OFFCURVE",
"321 406 OFFCURVE",
"313 406 CURVE",
"308 411 OFFCURVE",
"308 436 OFFCURVE",
"312 443 CURVE",
"342 439 OFFCURVE",
"378 436 OFFCURVE",
"417 436 CURVE SMOOTH",
"459 436 OFFCURVE",
"523 441 OFFCURVE",
"538 443 CURVE",
"542 438 OFFCURVE",
"543 413 OFFCURVE",
"538 406 CURVE",
"520 406 OFFCURVE",
"483 403 OFFCURVE",
"455 374 CURVE SMOOTH",
"419 336 OFFCURVE",
"389 302 OFFCURVE",
"340 246 CURVE",
"395 176 OFFCURVE",
"428 135 OFFCURVE",
"482 66 CURVE SMOOTH",
"502 40 OFFCURVE",
"541 33 OFFCURVE",
"549 33 CURVE",
"556 25 OFFCURVE",
"554 2 OFFCURVE",
"550 -4 CURVE",
"510 1 OFFCURVE",
"450 2 OFFCURVE",
"411 3 CURVE",
"369 3 OFFCURVE",
"309 -1 OFFCURVE",
"284 -4 CURVE",
"279 1 OFFCURVE",
"279 27 OFFCURVE",
"284 33 CURVE",
"296 33 OFFCURVE",
"332 38 OFFCURVE",
"332 55 CURVE SMOOTH",
"332 58 OFFCURVE",
"326 64 OFFCURVE",
"322 69 CURVE SMOOTH",
"251 156 LINE",
"229 132 OFFCURVE",
"192 97 OFFCURVE",
"176 75 CURVE SMOOTH",
"171 68 OFFCURVE",
"168 63 OFFCURVE",
"168 60 CURVE SMOOTH",
"168 35 OFFCURVE",
"231 33 OFFCURVE",
"239 33 CURVE",
"244 28 OFFCURVE",
"244 3 OFFCURVE",
"240 -4 CURVE",
"210 0 OFFCURVE",
"174 3 OFFCURVE",
"135 3 CURVE SMOOTH",
"93 3 OFFCURVE",
"23 -2 OFFCURVE",
"8 -4 CURVE",
"4 1 OFFCURVE",
"3 26 OFFCURVE",
"8 33 CURVE",
"26 33 OFFCURVE",
"68 44 OFFCURVE",
"92 67 CURVE SMOOTH",
"141 114 OFFCURVE",
"169 148 OFFCURVE",
"218 199 CURVE",
"167 267 OFFCURVE",
"141 305 OFFCURVE",
"87 374 CURVE SMOOTH",
"67 400 OFFCURVE",
"26 406 OFFCURVE",
"18 406 CURVE",
"11 414 OFFCURVE",
"13 437 OFFCURVE",
"17 443 CURVE",
"57 438 OFFCURVE",
"116 437 OFFCURVE"
);
}
);
width = 558;
}
);
unicode = 0078;
userData = {
com.fontlab.hintData = {
hhints = (
{
position = -4;
width = 37;
},
{
position = 406;
width = 37;
}
);
};
};
},
{
glyphname = y;
lastChange = "2017-07-12 19:24:33 +0000";
layers = (
{
layerId = "C3DEC2A7-F599-40A3-AE95-7DABCECAEB0F";
paths = (
{
closed = 1;
nodes = (
"135 436 CURVE SMOOTH",
"177 436 OFFCURVE",
"236 440 OFFCURVE",
"261 443 CURVE",
"266 438 OFFCURVE",
"266 412 OFFCURVE",
"261 406 CURVE",
"249 406 OFFCURVE",
"202 396 OFFCURVE",
"202 379 CURVE SMOOTH",
"202 376 OFFCURVE",
"202 369 OFFCURVE",
"204 364 CURVE SMOOTH",
"240 294 OFFCURVE",
"307 167 OFFCURVE",
"307 167 CURVE",
"307 167 OFFCURVE",
"353 268 OFFCURVE",
"386 342 CURVE SMOOTH",
"391 352 OFFCURVE",
"397 368 OFFCURVE",
"397 379 CURVE SMOOTH",
"397 404 OFFCURVE",
"334 406 OFFCURVE",
"326 406 CURVE",
"321 411 OFFCURVE",
"321 436 OFFCURVE",
"325 443 CURVE",
"355 439 OFFCURVE",
"391 436 OFFCURVE",
"430 436 CURVE SMOOTH",
"472 436 OFFCURVE",
"519 441 OFFCURVE",
"534 443 CURVE",
"538 438 OFFCURVE",
"539 413 OFFCURVE",
"534 406 CURVE",
"522 406 OFFCURVE",
"467 402 OFFCURVE",
"453 373 CURVE SMOOTH",
"453 373 OFFCURVE",
"351 157 OFFCURVE",
"288 25 CURVE SMOOTH",
"257 -40 OFFCURVE",
"242 -82 OFFCURVE",
"200 -135 CURVE SMOOTH",
"148 -200 OFFCURVE",
"103 -218 OFFCURVE",
"73 -218 CURVE SMOOTH",
"31 -218 OFFCURVE",
"6 -192 OFFCURVE",
"6 -165 CURVE SMOOTH",
"6 -142 OFFCURVE",
"16 -127 OFFCURVE",
"29 -118 CURVE",
"108 -118 OFFCURVE",
"153 -108 OFFCURVE",
"194 -40 CURVE SMOOTH",
"212 -10 OFFCURVE",
"216 1 OFFCURVE",
"229 31 CURVE",
"188 114 OFFCURVE",
"63 368 OFFCURVE",
"63 368 CURVE",
"50 398 OFFCURVE",
"8 406 OFFCURVE",
"0 406 CURVE",
"-6 414 OFFCURVE",
"-4 437 OFFCURVE",
"0 443 CURVE",
"26 440 OFFCURVE",
"96 436 OFFCURVE"
);
}
);
width = 534;
}
);
unicode = 0079;
userData = {
com.fontlab.hintData = {
hhints = (
{
position = -218;
width = 100;
},
{
position = 368;
width = 68;
},
{
position = 406;
width = 37;
}
);
};
};
},
{
glyphname = z;
lastChange = "2017-07-12 19:24:33 +0000";
layers = (
{
layerId = "C3DEC2A7-F599-40A3-AE95-7DABCECAEB0F";
paths = (
{
closed = 1;
nodes = (
"150 428 CURVE SMOOTH",
"288 428 LINE SMOOTH",
"342 428 OFFCURVE",
"376 431 OFFCURVE",
"417 436 CURVE",
"422 428 OFFCURVE",
"420 417 OFFCURVE",
"420 412 CURVE",
"177 46 LINE",
"291 46 LINE SMOOTH",
"352 46 OFFCURVE",
"388 109 OFFCURVE",
"396 147 CURVE SMOOTH",
"397 152 OFFCURVE",
"405 154 OFFCURVE",
"409 154 CURVE SMOOTH",
"420 154 OFFCURVE",
"433 145 OFFCURVE",
"434 144 CURVE",
"421 105 OFFCURVE",
"394 0 OFFCURVE",
"394 0 CURVE",
"39 0 LINE",
"39 0 OFFCURVE",
"29 8 OFFCURVE",
"29 17 CURVE SMOOTH",
"29 22 OFFCURVE",
"31 30 OFFCURVE",
"33 34 CURVE SMOOTH",
"257 381 LINE",
"257 381 OFFCURVE",
"185 382 OFFCURVE",
"153 382 CURVE SMOOTH",
"102 382 OFFCURVE",
"83 323 OFFCURVE",
"72 288 CURVE SMOOTH",
"71 284 OFFCURVE",
"59 281 OFFCURVE",
"49 281 CURVE SMOOTH",
"43 281 OFFCURVE",
"37 283 OFFCURVE",
"37 285 CURVE",
"40 301 OFFCURVE",
"52 381 OFFCURVE",
"55 434 CURVE",
"55 434 OFFCURVE",
"114 428 OFFCURVE"
);
}
);
width = 460;
}
);
unicode = 007A;
userData = {
com.fontlab.hintData = {
hhints = (
{
position = 0;
width = 46;
},
{
position = 382;
width = 46;
}
);
vhints = (
{
position = 37;
width = 35;
},
{
position = 396;
width = 38;
}
);
};
};
},
{
glyphname = Idotaccent.sc;
lastChange = "2017-07-12 19:24:33 +0000";
layers = (
{
components = (
{
name = uni0307;
transform = "{1, 0, 0, 1, 20, -14}";
}
);
layerId = "C3DEC2A7-F599-40A3-AE95-7DABCECAEB0F";
paths = (
{
closed = 1;
nodes = (
"172 454 CURVE SMOOTH",
"211 454 OFFCURVE",
"262 460 OFFCURVE",
"303 462 CURVE",
"304 459 OFFCURVE",
"304 451 OFFCURVE",
"304 444 CURVE SMOOTH",
"304 436 OFFCURVE",
"304 425 OFFCURVE",
"301 425 CURVE SMOOTH",
"293 425 OFFCURVE",
"248 412 OFFCURVE",
"245 401 CURVE SMOOTH",
"238 373 OFFCURVE",
"237 349 OFFCURVE",
"237 316 CURVE SMOOTH",
"237 144 LINE SMOOTH",
"237 110 OFFCURVE",
"238 85 OFFCURVE",
"245 57 CURVE SMOOTH",
"248 46 OFFCURVE",
"293 33 OFFCURVE",
"301 33 CURVE SMOOTH",
"304 33 OFFCURVE",
"304 22 OFFCURVE",
"304 14 CURVE SMOOTH",
"304 7 OFFCURVE",
"304 -1 OFFCURVE",
"303 -4 CURVE",
"262 -2 OFFCURVE",
"211 4 OFFCURVE",
"172 4 CURVE SMOOTH",
"130 4 OFFCURVE",
"83 -2 OFFCURVE",
"41 -4 CURVE",
"39 -2 OFFCURVE",
"37 7 OFFCURVE",
"37 15 CURVE SMOOTH",
"37 23 OFFCURVE",
"39 33 OFFCURVE",
"41 33 CURVE SMOOTH",
"53 33 OFFCURVE",
"97 46 OFFCURVE",
"100 57 CURVE SMOOTH",
"106 83 OFFCURVE",
"107 126 OFFCURVE",
"107 133 CURVE SMOOTH",
"107 327 LINE SMOOTH",
"107 333 OFFCURVE",
"106 375 OFFCURVE",
"100 401 CURVE SMOOTH",
"97 412 OFFCURVE",
"53 425 OFFCURVE",
"41 425 CURVE SMOOTH",
"39 425 OFFCURVE",
"37 435 OFFCURVE",
"37 443 CURVE SMOOTH",
"37 451 OFFCURVE",
"39 460 OFFCURVE",
"41 462 CURVE",
"83 460 OFFCURVE",
"130 454 OFFCURVE"
);
}
);
width = 342;
}
);
userData = {
com.fontlab.hintData = {
hhints = (
{
position = -4;
width = 37;
},
{
position = 425;
width = 37;
},
{
position = 507;
width = 136;
}
);
vhints = (
{
position = 107;
width = 130;
},
{
position = 107;
width = 134;
}
);
};
};
},
{
glyphname = a.sc;
lastChange = "2017-07-12 19:24:33 +0000";
layers = (
{
layerId = "C3DEC2A7-F599-40A3-AE95-7DABCECAEB0F";
paths = (
{
closed = 1;
nodes = (
"55 51 CURVE SMOOTH",
"64 64 OFFCURVE",
"69 81 OFFCURVE",
"79 103 CURVE SMOOTH",
"135 239 OFFCURVE",
"171 311 OFFCURVE",
"224 436 CURVE SMOOTH",
"229 448 OFFCURVE",
"246 461 OFFCURVE",
"254 461 CURVE SMOOTH",
"260 461 OFFCURVE",
"264 457 OFFCURVE",
"267 450 CURVE SMOOTH",
"416 114 LINE SMOOTH",
"425 95 OFFCURVE",
"437 72 OFFCURVE",
"443 59 CURVE SMOOTH",
"456 33 OFFCURVE",
"492 30 OFFCURVE",
"497 30 CURVE",
"502 22 OFFCURVE",
"503 0 OFFCURVE",
"499 -4 CURVE",
"472 -2 OFFCURVE",
"412 2 OFFCURVE",
"382 2 CURVE SMOOTH",
"350 2 OFFCURVE",
"284 -2 OFFCURVE",
"259 -4 CURVE",
"254 1 OFFCURVE",
"254 30 OFFCURVE",
"259 30 CURVE SMOOTH",
"271 30 OFFCURVE",
"290 34 OFFCURVE",
"300 42 CURVE SMOOTH",
"304 45 OFFCURVE",
"306 48 OFFCURVE",
"306 52 CURVE SMOOTH",
"306 63 OFFCURVE",
"298 85 OFFCURVE",
"288 105 CURVE SMOOTH",
"277 128 LINE",
"276 128 OFFCURVE",
"274 130 OFFCURVE",
"272 130 CURVE SMOOTH",
"246 132 OFFCURVE",
"230 131 OFFCURVE",
"213 131 CURVE SMOOTH",
"185 131 OFFCURVE",
"172 131 OFFCURVE",
"148 130 CURVE SMOOTH",
"146 130 OFFCURVE",
"142 127 OFFCURVE",
"141 127 CURVE",
"136 116 OFFCURVE",
"135 114 OFFCURVE",
"132 106 CURVE SMOOTH",
"126 89 OFFCURVE",
"114 63 OFFCURVE",
"114 53 CURVE SMOOTH",
"114 35 OFFCURVE",
"162 30 OFFCURVE",
"167 30 CURVE",
"173 24 OFFCURVE",
"171 0 OFFCURVE",
"168 -4 CURVE",
"144 -1 OFFCURVE",
"118 3 OFFCURVE",
"88 3 CURVE SMOOTH",
"56 3 OFFCURVE",
"33 -1 OFFCURVE",
"9 -4 CURVE",
"5 0 OFFCURVE",
"4 19 OFFCURVE",
"8 29 CURVE",
"16 29 OFFCURVE",
"48 40 OFFCURVE"
);
},
{
closed = 1;
nodes = (
"259 174 CURVE",
"207 283 LINE",
"158 174 LINE",
"158 173 OFFCURVE",
"159 172 OFFCURVE",
"160 172 CURVE SMOOTH",
"174 170 OFFCURVE",
"194 169 OFFCURVE",
"210 169 CURVE SMOOTH",
"231 169 OFFCURVE",
"236 169 OFFCURVE",
"257 171 CURVE SMOOTH",
"258 171 OFFCURVE",
"259 173 OFFCURVE"
);
}
);
width = 500;
}
);
userData = {
com.fontlab.hintData = {
hhints = (
{
position = -4;
width = 34;
},
{
position = 131;
width = 38;
}
);
};
};
},
{
glyphname = aogonek.sc;
lastChange = "2017-07-12 19:24:33 +0000";
layers = (
{
layerId = "C3DEC2A7-F599-40A3-AE95-7DABCECAEB0F";
paths = (
{
closed = 1;
nodes = (
"334 -101 CURVE SMOOTH",
"334 -122 OFFCURVE",
"346 -148 OFFCURVE",
"383 -148 CURVE SMOOTH",
"411 -148 OFFCURVE",
"448 -117 OFFCURVE",
"458 -109 CURVE",
"461 -109 OFFCURVE",
"464 -112 OFFCURVE",
"464 -120 CURVE SMOOTH",
"464 -125 OFFCURVE",
"460 -141 OFFCURVE",
"457 -145 CURVE SMOOTH",
"442 -164 OFFCURVE",
"390 -218 OFFCURVE",
"334 -218 CURVE SMOOTH",
"301 -218 OFFCURVE",
"260 -192 OFFCURVE",
"260 -140 CURVE SMOOTH",
"260 -85 OFFCURVE",
"344 -13 OFFCURVE",
"397 2 CURVE",
"394 2 OFFCURVE",
"384 2 OFFCURVE",
"382 2 CURVE SMOOTH",
"350 2 OFFCURVE",
"284 -2 OFFCURVE",
"259 -4 CURVE",
"254 1 OFFCURVE",
"254 30 OFFCURVE",
"259 30 CURVE SMOOTH",
"271 30 OFFCURVE",
"290 34 OFFCURVE",
"300 42 CURVE SMOOTH",
"304 45 OFFCURVE",
"306 48 OFFCURVE",
"306 52 CURVE SMOOTH",
"306 63 OFFCURVE",
"298 85 OFFCURVE",
"288 105 CURVE SMOOTH",
"277 128 LINE SMOOTH",
"276 128 OFFCURVE",
"274 130 OFFCURVE",
"272 130 CURVE SMOOTH",
"246 132 OFFCURVE",
"230 131 OFFCURVE",
"213 131 CURVE SMOOTH",
"185 131 OFFCURVE",
"172 131 OFFCURVE",
"148 130 CURVE SMOOTH",
"146 130 OFFCURVE",
"142 127 OFFCURVE",
"141 127 CURVE SMOOTH",
"136 116 OFFCURVE",
"135 114 OFFCURVE",
"132 106 CURVE SMOOTH",
"126 89 OFFCURVE",
"114 63 OFFCURVE",
"114 53 CURVE SMOOTH",
"114 35 OFFCURVE",
"162 30 OFFCURVE",
"167 30 CURVE",
"173 24 OFFCURVE",
"171 0 OFFCURVE",
"168 -4 CURVE",
"144 -1 OFFCURVE",
"118 3 OFFCURVE",
"88 3 CURVE SMOOTH",
"56 3 OFFCURVE",
"33 -1 OFFCURVE",
"9 -4 CURVE",
"5 0 OFFCURVE",
"4 19 OFFCURVE",
"8 29 CURVE",
"16 29 OFFCURVE",
"48 40 OFFCURVE",
"55 51 CURVE SMOOTH",
"64 64 OFFCURVE",
"69 81 OFFCURVE",
"79 103 CURVE SMOOTH",
"135 239 OFFCURVE",
"171 311 OFFCURVE",
"224 436 CURVE SMOOTH",
"229 448 OFFCURVE",
"246 461 OFFCURVE",
"254 461 CURVE SMOOTH",
"260 461 OFFCURVE",
"264 457 OFFCURVE",
"267 450 CURVE SMOOTH",
"416 114 LINE SMOOTH",
"425 95 OFFCURVE",
"437 72 OFFCURVE",
"443 59 CURVE SMOOTH",
"456 33 OFFCURVE",
"492 30 OFFCURVE",
"497 30 CURVE",
"502 22 OFFCURVE",
"503 0 OFFCURVE",
"499 -4 CURVE",
"496 -3 OFFCURVE",
"490 -2 OFFCURVE",
"490 -2 CURVE SMOOTH",
"418 -2 OFFCURVE",
"334 -59 OFFCURVE"
);
},
{
closed = 1;
nodes = (
"259 174 CURVE SMOOTH",
"207 283 LINE",
"158 174 LINE SMOOTH",
"158 173 OFFCURVE",
"159 172 OFFCURVE",
"160 172 CURVE SMOOTH",
"174 170 OFFCURVE",
"194 169 OFFCURVE",
"210 169 CURVE SMOOTH",
"231 169 OFFCURVE",
"236 169 OFFCURVE",
"257 171 CURVE SMOOTH",
"258 171 OFFCURVE",
"259 173 OFFCURVE"
);
}
);
width = 500;
}
);
userData = {
com.fontlab.hintData = {
hhints = (
{
position = -218;
width = 70;
},
{
position = -4;
width = 34;
},
{
position = 131;
width = 38;
}
);
vhints = (
{
position = 260;
width = 74;
}
);
};
};
},
{
glyphname = aring.sc;
lastChange = "2017-07-12 19:24:33 +0000";
layers = (
{
components = (
{
name = a.sc;
transform = "{1, 0, 0, 1, 1, 0}";
}
);
layerId = "C3DEC2A7-F599-40A3-AE95-7DABCECAEB0F";
paths = (
{
closed = 1;
nodes = (
"187 571 CURVE SMOOTH",
"187 535 OFFCURVE",
"215 505 OFFCURVE",
"251 505 CURVE SMOOTH",
"287 505 OFFCURVE",
"316 535 OFFCURVE",
"316 571 CURVE SMOOTH",
"316 607 OFFCURVE",
"287 636 OFFCURVE",
"251 636 CURVE SMOOTH",
"215 636 OFFCURVE",
"187 607 OFFCURVE"
);
},
{
closed = 1;
nodes = (
"140 571 CURVE SMOOTH",
"140 632 OFFCURVE",
"190 681 OFFCURVE",
"251 681 CURVE SMOOTH",
"312 681 OFFCURVE",
"362 632 OFFCURVE",
"362 571 CURVE SMOOTH",
"362 510 OFFCURVE",
"312 459 OFFCURVE",
"251 459 CURVE SMOOTH",
"190 459 OFFCURVE",
"140 510 OFFCURVE"
);
}
);
width = 500;
}
);
userData = {
com.fontlab.hintData = {
hhints = (
{
position = -4;
width = 34;
},
{
position = 131;
width = 38;
},
{
position = 459;
width = 46;
},
{
position = 636;
width = 45;
}
);
vhints = (
{
position = 140;
width = 47;
},
{
position = 316;
width = 46;
}
);
};
};
},
{
glyphname = b.sc;
lastChange = "2017-07-12 19:24:33 +0000";
layers = (
{
layerId = "C3DEC2A7-F599-40A3-AE95-7DABCECAEB0F";
paths = (
{
closed = 1;
nodes = (
"228 370 CURVE SMOOTH",
"228 260 LINE",
"260 260 LINE SMOOTH",
"291 260 OFFCURVE",
"314 285 OFFCURVE",
"314 332 CURVE SMOOTH",
"314 391 OFFCURVE",
"294 415 OFFCURVE",
"262 415 CURVE SMOOTH",
"248 415 OFFCURVE",
"234 415 OFFCURVE",
"231 408 CURVE SMOOTH",
"228 401 OFFCURVE",
"228 388 OFFCURVE"
);
},
{
closed = 1;
nodes = (
"287 452 CURVE SMOOTH",
"362 452 OFFCURVE",
"451 424 OFFCURVE",
"451 344 CURVE SMOOTH",
"451 289 OFFCURVE",
"375 257 OFFCURVE",
"350 250 CURVE SMOOTH",
"343 248 OFFCURVE",
"344 246 OFFCURVE",
"345 246 CURVE SMOOTH",
"391 242 OFFCURVE",
"490 200 OFFCURVE",
"490 129 CURVE SMOOTH",
"490 79 OFFCURVE",
"466 42 OFFCURVE",
"416 14 CURVE SMOOTH",
"382 -5 OFFCURVE",
"300 -4 OFFCURVE",
"239 -3 CURVE SMOOTH",
"205 -3 OFFCURVE",
"77 -2 OFFCURVE",
"45 -3 CURVE",
"41 3 OFFCURVE",
"40 27 OFFCURVE",
"45 33 CURVE",
"54 34 OFFCURVE",
"89 35 OFFCURVE",
"92 44 CURVE SMOOTH",
"98 57 OFFCURVE",
"98 78 OFFCURVE",
"98 106 CURVE SMOOTH",
"98 343 LINE SMOOTH",
"98 371 OFFCURVE",
"98 391 OFFCURVE",
"92 404 CURVE SMOOTH",
"89 413 OFFCURVE",
"54 414 OFFCURVE",
"45 415 CURVE",
"40 421 OFFCURVE",
"41 446 OFFCURVE",
"45 452 CURVE",
"81 449 OFFCURVE",
"129 449 OFFCURVE",
"163 449 CURVE SMOOTH",
"197 449 OFFCURVE",
"240 452 OFFCURVE"
);
},
{
closed = 1;
nodes = (
"228 224 LINE",
"228 79 LINE SMOOTH",
"228 75 OFFCURVE",
"228 49 OFFCURVE",
"233 41 CURVE SMOOTH",
"238 34 OFFCURVE",
"259 34 OFFCURVE",
"277 34 CURVE SMOOTH",
"309 34 OFFCURVE",
"350 58 OFFCURVE",
"350 124 CURVE SMOOTH",
"350 172 OFFCURVE",
"328 224 OFFCURVE",
"263 224 CURVE SMOOTH"
);
}
);
width = 528;
}
);
userData = {
com.fontlab.hintData = {
hhints = (
{
position = -3;
width = 37;
},
{
position = 224;
width = 36;
},
{
position = 415;
width = 37;
}
);
vhints = (
{
position = 98;
width = 130;
},
{
position = 314;
width = 137;
},
{
position = 350;
width = 140;
}
);
};
};
},
{
glyphname = c.sc;
lastChange = "2017-07-12 19:24:33 +0000";
layers = (
{
layerId = "C3DEC2A7-F599-40A3-AE95-7DABCECAEB0F";
paths = (
{
closed = 1;
nodes = (
"502 139 CURVE",
"502 131 OFFCURVE",
"482 31 OFFCURVE",
"471 27 CURVE SMOOTH",
"423 11 OFFCURVE",
"373 -6 OFFCURVE",
"303 -6 CURVE SMOOTH",
"159 -6 OFFCURVE",
"40 91 OFFCURVE",
"40 221 CURVE SMOOTH",
"40 354 OFFCURVE",
"158 459 OFFCURVE",
"302 459 CURVE SMOOTH",
"352 459 OFFCURVE",
"414 452 OFFCURVE",
"459 441 CURVE",
"461 434 OFFCURVE",
"487 351 OFFCURVE",
"487 343 CURVE SMOOTH",
"487 339 OFFCURVE",
"476 333 OFFCURVE",
"466 333 CURVE SMOOTH",
"462 333 OFFCURVE",
"456 333 OFFCURVE",
"453 335 CURVE",
"446 359 OFFCURVE",
"420 419 OFFCURVE",
"323 419 CURVE SMOOTH",
"226 419 OFFCURVE",
"184 333 OFFCURVE",
"184 241 CURVE SMOOTH",
"184 125 OFFCURVE",
"233 34 OFFCURVE",
"336 34 CURVE SMOOTH",
"377 34 OFFCURVE",
"403 46 OFFCURVE",
"421 62 CURVE SMOOTH",
"450 86 OFFCURVE",
"466 142 OFFCURVE",
"467 147 CURVE",
"481 147 OFFCURVE",
"494 143 OFFCURVE"
);
}
);
width = 537;
}
);
userData = {
com.fontlab.hintData = {
hhints = (
{
position = -6;
width = 40;
},
{
position = 419;
width = 40;
}
);
vhints = (
{
position = 40;
width = 144;
},
{
position = 467;
width = 35;
}
);
};
};
},
{
glyphname = d.sc;
lastChange = "2017-07-12 19:24:33 +0000";
layers = (
{
layerId = "C3DEC2A7-F599-40A3-AE95-7DABCECAEB0F";
paths = (
{
closed = 1;
nodes = (
"228 367 CURVE SMOOTH",
"228 100 LINE SMOOTH",
"228 96 OFFCURVE",
"228 62 OFFCURVE",
"233 49 CURVE SMOOTH",
"237 40 OFFCURVE",
"258 34 OFFCURVE",
"276 34 CURVE SMOOTH",
"388 34 OFFCURVE",
"440 95 OFFCURVE",
"440 222 CURVE SMOOTH",
"440 350 OFFCURVE",
"367 415 OFFCURVE",
"265 415 CURVE SMOOTH",
"249 415 OFFCURVE",
"234 414 OFFCURVE",
"231 407 CURVE SMOOTH",
"228 399 OFFCURVE",
"228 386 OFFCURVE"
);
},
{
closed = 1;
nodes = (
"161 449 CURVE SMOOTH",
"194 449 OFFCURVE",
"236 451 OFFCURVE",
"283 452 CURVE SMOOTH",
"466 452 OFFCURVE",
"588 371 OFFCURVE",
"588 230 CURVE SMOOTH",
"588 69 OFFCURVE",
"449 -3 OFFCURVE",
"278 -3 CURVE SMOOTH",
"245 -3 OFFCURVE",
"76 -3 OFFCURVE",
"45 -4 CURVE",
"41 2 OFFCURVE",
"40 27 OFFCURVE",
"45 33 CURVE",
"54 34 OFFCURVE",
"89 35 OFFCURVE",
"92 44 CURVE SMOOTH",
"98 57 OFFCURVE",
"98 78 OFFCURVE",
"98 106 CURVE SMOOTH",
"98 343 LINE SMOOTH",
"98 371 OFFCURVE",
"98 391 OFFCURVE",
"92 404 CURVE SMOOTH",
"89 413 OFFCURVE",
"54 414 OFFCURVE",
"45 415 CURVE",
"40 421 OFFCURVE",
"41 446 OFFCURVE",
"45 452 CURVE",
"81 449 OFFCURVE",
"128 449 OFFCURVE"
);
}
);
width = 630;
}
);
userData = {
com.fontlab.hintData = {
hhints = (
{
position = -3;
width = 37;
},
{
position = 415;
width = 37;
}
);
vhints = (
{
position = 98;
width = 130;
},
{
position = 440;
width = 148;
}
);
};
};
},
{
glyphname = eth.sc;
lastChange = "2017-07-12 19:24:33 +0000";
layers = (
{
components = (
{
name = d.sc;
transform = "{1, 0, 0, 1, 3, 0}";
}
);
layerId = "C3DEC2A7-F599-40A3-AE95-7DABCECAEB0F";
paths = (
{
closed = 1;
nodes = (
"321 203 CURVE",
"292 203 OFFCURVE",
"43 203 OFFCURVE",
"29 203 CURVE",
"25 203 OFFCURVE",
"24 231 OFFCURVE",
"30 240 CURVE",
"59 240 OFFCURVE",
"307 240 OFFCURVE",
"321 240 CURVE",
"325 240 OFFCURVE",
"325 212 OFFCURVE"
);
}
);
width = 633;
}
);
userData = {
com.fontlab.hintData = {
hhints = (
{
position = -3;
width = 37;
},
{
position = 203;
width = 37;
},
{
position = 415;
width = 37;
}
);
vhints = (
{
position = 101;
width = 130;
},
{
position = 443;
width = 148;
}
);
};
};
},
{
glyphname = e.sc;
lastChange = "2017-07-12 19:24:33 +0000";
layers = (
{
layerId = "C3DEC2A7-F599-40A3-AE95-7DABCECAEB0F";
paths = (
{
closed = 1;
nodes = (
"228 370 CURVE SMOOTH",
"228 257 LINE SMOOTH",
"228 253 OFFCURVE",
"241 250 OFFCURVE",
"254 250 CURVE SMOOTH",
"286 250 LINE SMOOTH",
"322 250 OFFCURVE",
"332 257 OFFCURVE",
"342 289 CURVE SMOOTH",
"343 292 OFFCURVE",
"345 294 OFFCURVE",
"352 294 CURVE SMOOTH",
"359 294 OFFCURVE",
"366 293 OFFCURVE",
"369 290 CURVE",
"369 165 LINE",
"368 163 OFFCURVE",
"362 161 OFFCURVE",
"357 161 CURVE SMOOTH",
"352 161 OFFCURVE",
"346 163 OFFCURVE",
"345 166 CURVE SMOOTH",
"337 194 OFFCURVE",
"327 200 OFFCURVE",
"321 202 CURVE SMOOTH",
"313 205 OFFCURVE",
"300 206 OFFCURVE",
"275 206 CURVE SMOOTH",
"257 206 OFFCURVE",
"228 204 OFFCURVE",
"228 197 CURVE SMOOTH",
"228 100 LINE SMOOTH",
"228 96 OFFCURVE",
"228 62 OFFCURVE",
"233 50 CURVE SMOOTH",
"237 41 OFFCURVE",
"259 38 OFFCURVE",
"276 38 CURVE SMOOTH",
"320 38 LINE SMOOTH",
"345 38 OFFCURVE",
"365 45 OFFCURVE",
"380 59 CURVE SMOOTH",
"394 72 OFFCURVE",
"405 89 OFFCURVE",
"416 116 CURVE SMOOTH",
"417 118 OFFCURVE",
"423 119 OFFCURVE",
"428 119 CURVE SMOOTH",
"435 119 OFFCURVE",
"446 118 OFFCURVE",
"448 116 CURVE",
"435 79 OFFCURVE",
"416 28 OFFCURVE",
"411 -2 CURVE",
"380 -2 OFFCURVE",
"74 -2 OFFCURVE",
"45 -3 CURVE",
"41 3 OFFCURVE",
"40 27 OFFCURVE",
"45 33 CURVE",
"54 34 OFFCURVE",
"89 35 OFFCURVE",
"92 44 CURVE SMOOTH",
"98 57 OFFCURVE",
"98 78 OFFCURVE",
"98 106 CURVE SMOOTH",
"98 345 LINE SMOOTH",
"98 373 OFFCURVE",
"98 394 OFFCURVE",
"92 407 CURVE SMOOTH",
"89 416 OFFCURVE",
"54 417 OFFCURVE",
"45 418 CURVE",
"40 424 OFFCURVE",
"41 447 OFFCURVE",
"45 453 CURVE",
"79 450 OFFCURVE",
"124 450 OFFCURVE",
"155 450 CURVE SMOOTH",
"186 450 OFFCURVE",
"353 455 OFFCURVE",
"397 456 CURVE",
"402 421 OFFCURVE",
"411 385 OFFCURVE",
"417 353 CURVE",
"415 351 OFFCURVE",
"407 350 OFFCURVE",
"402 350 CURVE SMOOTH",
"397 350 OFFCURVE",
"390 351 OFFCURVE",
"389 354 CURVE SMOOTH",
"375 387 OFFCURVE",
"357 416 OFFCURVE",
"317 416 CURVE SMOOTH",
"264 416 LINE SMOOTH",
"249 416 OFFCURVE",
"234 415 OFFCURVE",
"231 408 CURVE SMOOTH",
"228 400 OFFCURVE",
"228 388 OFFCURVE"
);
}
);
width = 476;
}
);
userData = {
com.fontlab.hintData = {
hhints = (
{
position = -2;
width = 40;
},
{
position = 206;
width = 44;
},
{
position = 416;
width = 34;
}
);
vhints = (
{
position = 98;
width = 130;
},
{
position = 342;
width = 27;
}
);
};
};
},
{
glyphname = eogonek.sc;
lastChange = "2017-07-12 19:24:33 +0000";
layers = (
{
layerId = "C3DEC2A7-F599-40A3-AE95-7DABCECAEB0F";
paths = (
{
closed = 1;
nodes = (
"216 -140 CURVE SMOOTH",
"216 -85 OFFCURVE",
"305 -17 OFFCURVE",
"347 -2 CURVE",
"247 -2 OFFCURVE",
"68 -2 OFFCURVE",
"47 -3 CURVE",
"43 3 OFFCURVE",
"42 27 OFFCURVE",
"47 33 CURVE",
"56 34 OFFCURVE",
"88 35 OFFCURVE",
"91 44 CURVE",
"97 57 OFFCURVE",
"97 78 OFFCURVE",
"97 106 CURVE SMOOTH",
"97 345 LINE SMOOTH",
"97 373 OFFCURVE",
"97 394 OFFCURVE",
"91 407 CURVE",
"88 416 OFFCURVE",
"56 417 OFFCURVE",
"47 418 CURVE",
"42 424 OFFCURVE",
"43 447 OFFCURVE",
"47 453 CURVE",
"81 450 OFFCURVE",
"123 450 OFFCURVE",
"154 450 CURVE SMOOTH",
"185 450 OFFCURVE",
"352 455 OFFCURVE",
"396 456 CURVE",
"401 421 OFFCURVE",
"410 385 OFFCURVE",
"416 353 CURVE",
"414 351 OFFCURVE",
"406 350 OFFCURVE",
"401 350 CURVE SMOOTH",
"396 350 OFFCURVE",
"389 351 OFFCURVE",
"388 354 CURVE SMOOTH",
"374 387 OFFCURVE",
"356 416 OFFCURVE",
"316 416 CURVE SMOOTH",
"263 416 LINE SMOOTH",
"248 416 OFFCURVE",
"233 415 OFFCURVE",
"230 408 CURVE SMOOTH",
"227 400 OFFCURVE",
"227 388 OFFCURVE",
"227 370 CURVE SMOOTH",
"227 257 LINE SMOOTH",
"227 253 OFFCURVE",
"240 250 OFFCURVE",
"253 250 CURVE SMOOTH",
"285 250 LINE SMOOTH",
"321 250 OFFCURVE",
"331 257 OFFCURVE",
"341 289 CURVE SMOOTH",
"342 292 OFFCURVE",
"344 294 OFFCURVE",
"351 294 CURVE SMOOTH",
"358 294 OFFCURVE",
"365 293 OFFCURVE",
"368 290 CURVE",
"368 165 LINE",
"367 163 OFFCURVE",
"361 161 OFFCURVE",
"356 161 CURVE SMOOTH",
"351 161 OFFCURVE",
"345 163 OFFCURVE",
"344 166 CURVE SMOOTH",
"336 194 OFFCURVE",
"326 200 OFFCURVE",
"320 202 CURVE SMOOTH",
"312 205 OFFCURVE",
"299 206 OFFCURVE",
"274 206 CURVE SMOOTH",
"256 206 OFFCURVE",
"227 204 OFFCURVE",
"227 197 CURVE SMOOTH",
"227 100 LINE SMOOTH",
"227 96 OFFCURVE",
"227 62 OFFCURVE",
"232 50 CURVE SMOOTH",
"236 41 OFFCURVE",
"258 38 OFFCURVE",
"275 38 CURVE SMOOTH",
"319 38 LINE SMOOTH",
"344 38 OFFCURVE",
"364 45 OFFCURVE",
"379 59 CURVE SMOOTH",
"393 72 OFFCURVE",
"404 89 OFFCURVE",
"415 116 CURVE SMOOTH",
"416 118 OFFCURVE",
"422 119 OFFCURVE",
"427 119 CURVE SMOOTH",
"434 119 OFFCURVE",
"445 118 OFFCURVE",
"447 116 CURVE",
"434 79 OFFCURVE",
"415 28 OFFCURVE",
"410 -2 CURVE",
"369 -4 OFFCURVE",
"290 -64 OFFCURVE",
"290 -101 CURVE SMOOTH",
"290 -122 OFFCURVE",
"302 -148 OFFCURVE",
"339 -148 CURVE SMOOTH",
"367 -148 OFFCURVE",
"404 -117 OFFCURVE",
"414 -109 CURVE",
"417 -109 OFFCURVE",
"420 -112 OFFCURVE",
"420 -120 CURVE SMOOTH",
"420 -125 OFFCURVE",
"416 -141 OFFCURVE",
"413 -145 CURVE SMOOTH",
"398 -164 OFFCURVE",
"346 -218 OFFCURVE",
"290 -218 CURVE SMOOTH",
"257 -218 OFFCURVE",
"216 -192 OFFCURVE"
);
}
);
width = 475;
}
);
userData = {
com.fontlab.hintData = {
hhints = (
{
position = -218;
width = 70;
},
{
position = -2;
width = 40;
},
{
position = 206;
width = 44;
},
{
position = 416;
width = 34;
}
);
vhints = (
{
position = 97;
width = 130;
},
{
position = 216;
width = 74;
},
{
position = 341;
width = 27;
}
);
};
};
},
{
glyphname = f.sc;
lastChange = "2017-07-12 19:24:33 +0000";
layers = (
{
layerId = "C3DEC2A7-F599-40A3-AE95-7DABCECAEB0F";
paths = (
{
closed = 1;
nodes = (
"228 370 CURVE SMOOTH",
"228 253 LINE SMOOTH",
"228 249 OFFCURVE",
"241 246 OFFCURVE",
"254 246 CURVE SMOOTH",
"286 246 LINE SMOOTH",
"322 246 OFFCURVE",
"330 253 OFFCURVE",
"340 285 CURVE SMOOTH",
"341 288 OFFCURVE",
"344 289 OFFCURVE",
"351 289 CURVE SMOOTH",
"358 289 OFFCURVE",
"366 287 OFFCURVE",
"369 284 CURVE",
"369 161 LINE",
"368 159 OFFCURVE",
"362 157 OFFCURVE",
"357 157 CURVE SMOOTH",
"352 157 OFFCURVE",
"349 159 OFFCURVE",
"348 162 CURVE SMOOTH",
"340 190 OFFCURVE",
"331 196 OFFCURVE",
"325 198 CURVE SMOOTH",
"317 201 OFFCURVE",
"300 202 OFFCURVE",
"275 202 CURVE SMOOTH",
"257 202 OFFCURVE",
"228 201 OFFCURVE",
"228 193 CURVE SMOOTH",
"228 104 LINE SMOOTH",
"228 77 OFFCURVE",
"227 57 OFFCURVE",
"232 44 CURVE SMOOTH",
"235 36 OFFCURVE",
"283 34 OFFCURVE",
"290 33 CURVE",
"295 27 OFFCURVE",
"294 2 OFFCURVE",
"290 -4 CURVE",
"260 -1 OFFCURVE",
"191 2 OFFCURVE",
"158 2 CURVE SMOOTH",
"125 2 OFFCURVE",
"75 -1 OFFCURVE",
"45 -4 CURVE",
"41 2 OFFCURVE",
"40 27 OFFCURVE",
"45 33 CURVE",
"54 34 OFFCURVE",
"89 36 OFFCURVE",
"92 45 CURVE SMOOTH",
"98 58 OFFCURVE",
"98 79 OFFCURVE",
"98 107 CURVE SMOOTH",
"98 343 LINE SMOOTH",
"98 371 OFFCURVE",
"98 392 OFFCURVE",
"92 405 CURVE SMOOTH",
"89 414 OFFCURVE",
"54 415 OFFCURVE",
"45 416 CURVE",
"40 422 OFFCURVE",
"41 447 OFFCURVE",
"45 453 CURVE",
"79 450 OFFCURVE",
"124 450 OFFCURVE",
"155 450 CURVE SMOOTH",
"186 450 OFFCURVE",
"353 455 OFFCURVE",
"397 456 CURVE",
"402 421 OFFCURVE",
"411 384 OFFCURVE",
"417 352 CURVE",
"415 350 OFFCURVE",
"406 349 OFFCURVE",
"401 349 CURVE SMOOTH",
"396 349 OFFCURVE",
"392 351 OFFCURVE",
"391 354 CURVE SMOOTH",
"377 388 OFFCURVE",
"359 416 OFFCURVE",
"319 416 CURVE SMOOTH",
"264 416 LINE SMOOTH",
"249 416 OFFCURVE",
"234 415 OFFCURVE",
"231 408 CURVE SMOOTH",
"228 400 OFFCURVE",
"228 388 OFFCURVE"
);
}
);
width = 439;
}
);
userData = {
com.fontlab.hintData = {
hhints = (
{
position = -4;
width = 37;
},
{
position = 202;
width = 44;
},
{
position = 416;
width = 34;
}
);
vhints = (
{
position = 98;
width = 130;
},
{
position = 340;
width = 29;
}
);
};
};
},
{
glyphname = g.sc;
lastChange = "2017-07-12 19:24:33 +0000";
layers = (
{
layerId = "C3DEC2A7-F599-40A3-AE95-7DABCECAEB0F";
paths = (
{
closed = 1;
nodes = (
"389 167 CURVE SMOOTH",
"382 183 OFFCURVE",
"338 184 OFFCURVE",
"327 184 CURVE SMOOTH",
"322 184 OFFCURVE",
"321 216 OFFCURVE",
"326 221 CURVE",
"370 219 OFFCURVE",
"415 215 OFFCURVE",
"459 215 CURVE SMOOTH",
"496 215 OFFCURVE",
"537 219 OFFCURVE",
"572 221 CURVE",
"576 208 OFFCURVE",
"574 184 OFFCURVE",
"571 184 CURVE",
"565 184 OFFCURVE",
"538 180 OFFCURVE",
"530 175 CURVE SMOOTH",
"526 172 OFFCURVE",
"521 159 OFFCURVE",
"521 146 CURVE SMOOTH",
"521 121 OFFCURVE",
"521 88 OFFCURVE",
"521 65 CURVE SMOOTH",
"521 59 OFFCURVE",
"527 49 OFFCURVE",
"527 46 CURVE SMOOTH",
"527 39 OFFCURVE",
"510 31 OFFCURVE",
"499 28 CURVE SMOOTH",
"448 12 OFFCURVE",
"391 -6 OFFCURVE",
"317 -6 CURVE SMOOTH",
"164 -6 OFFCURVE",
"39 91 OFFCURVE",
"39 221 CURVE SMOOTH",
"39 350 OFFCURVE",
"163 459 OFFCURVE",
"315 459 CURVE SMOOTH",
"368 459 OFFCURVE",
"434 452 OFFCURVE",
"481 441 CURVE",
"483 434 OFFCURVE",
"513 351 OFFCURVE",
"513 343 CURVE SMOOTH",
"513 339 OFFCURVE",
"500 333 OFFCURVE",
"489 333 CURVE SMOOTH",
"484 333 OFFCURVE",
"478 333 OFFCURVE",
"474 335 CURVE",
"467 359 OFFCURVE",
"438 419 OFFCURVE",
"334 419 CURVE SMOOTH",
"224 419 OFFCURVE",
"183 336 OFFCURVE",
"183 238 CURVE SMOOTH",
"183 119 OFFCURVE",
"237 34 OFFCURVE",
"334 34 CURVE SMOOTH",
"360 34 OFFCURVE",
"375 39 OFFCURVE",
"387 44 CURVE SMOOTH",
"390 45 OFFCURVE",
"393 48 OFFCURVE",
"393 54 CURVE SMOOTH",
"393 63 OFFCURVE",
"393 105 OFFCURVE",
"393 135 CURVE SMOOTH",
"393 148 OFFCURVE",
"395 153 OFFCURVE"
);
}
);
width = 599;
}
);
userData = {
com.fontlab.hintData = {
hhints = (
{
position = -6;
width = 40;
},
{
position = 184;
width = 37;
},
{
position = 419;
width = 40;
}
);
vhints = (
{
position = 39;
width = 144;
},
{
position = 393;
width = 128;
},
{
position = 474;
width = 39;
}
);
};
};
},
{
glyphname = h.sc;
lastChange = "2017-07-12 19:24:33 +0000";
layers = (
{
layerId = "C3DEC2A7-F599-40A3-AE95-7DABCECAEB0F";
paths = (
{
closed = 1;
nodes = (
"228 205 CURVE",
"228 104 LINE SMOOTH",
"228 77 OFFCURVE",
"228 57 OFFCURVE",
"232 44 CURVE SMOOTH",
"235 36 OFFCURVE",
"271 34 OFFCURVE",
"278 33 CURVE",
"283 27 OFFCURVE",
"282 2 OFFCURVE",
"278 -4 CURVE",
"248 0 OFFCURVE",
"189 2 OFFCURVE",
"157 2 CURVE SMOOTH",
"125 2 OFFCURVE",
"75 0 OFFCURVE",
"45 -4 CURVE",
"41 2 OFFCURVE",
"40 27 OFFCURVE",
"45 33 CURVE",
"54 34 OFFCURVE",
"89 36 OFFCURVE",
"92 45 CURVE SMOOTH",
"98 58 OFFCURVE",
"98 79 OFFCURVE",
"98 107 CURVE SMOOTH",
"98 343 LINE SMOOTH",
"98 371 OFFCURVE",
"98 392 OFFCURVE",
"92 405 CURVE SMOOTH",
"89 414 OFFCURVE",
"54 416 OFFCURVE",
"45 417 CURVE",
"40 423 OFFCURVE",
"41 448 OFFCURVE",
"45 454 CURVE",
"75 450 OFFCURVE",
"126 448 OFFCURVE",
"158 448 CURVE SMOOTH",
"190 448 OFFCURVE",
"249 450 OFFCURVE",
"279 454 CURVE",
"283 448 OFFCURVE",
"284 423 OFFCURVE",
"279 417 CURVE",
"272 416 OFFCURVE",
"235 414 OFFCURVE",
"232 406 CURVE SMOOTH",
"228 393 OFFCURVE",
"228 373 OFFCURVE",
"228 346 CURVE SMOOTH",
"228 259 LINE",
"228 258 OFFCURVE",
"229 258 OFFCURVE",
"229 258 CURVE",
"256 257 OFFCURVE",
"281 255 OFFCURVE",
"312 255 CURVE SMOOTH",
"337 255 OFFCURVE",
"367 257 OFFCURVE",
"392 258 CURVE",
"392 258 OFFCURVE",
"394 260 OFFCURVE",
"394 261 CURVE SMOOTH",
"393 346 LINE SMOOTH",
"393 373 OFFCURVE",
"392 393 OFFCURVE",
"385 406 CURVE SMOOTH",
"380 414 OFFCURVE",
"344 416 OFFCURVE",
"332 417 CURVE",
"327 423 OFFCURVE",
"328 448 OFFCURVE",
"332 454 CURVE",
"366 450 OFFCURVE",
"413 448 OFFCURVE",
"450 448 CURVE SMOOTH",
"487 448 OFFCURVE",
"541 450 OFFCURVE",
"575 454 CURVE",
"579 448 OFFCURVE",
"580 423 OFFCURVE",
"575 417 CURVE",
"566 416 OFFCURVE",
"531 414 OFFCURVE",
"528 405 CURVE SMOOTH",
"522 392 OFFCURVE",
"523 371 OFFCURVE",
"523 343 CURVE SMOOTH",
"523 107 LINE SMOOTH",
"523 79 OFFCURVE",
"522 58 OFFCURVE",
"528 45 CURVE SMOOTH",
"531 36 OFFCURVE",
"566 34 OFFCURVE",
"575 33 CURVE",
"580 27 OFFCURVE",
"579 2 OFFCURVE",
"575 -4 CURVE",
"541 0 OFFCURVE",
"485 2 OFFCURVE",
"448 2 CURVE SMOOTH",
"411 2 OFFCURVE",
"365 0 OFFCURVE",
"331 -4 CURVE",
"327 2 OFFCURVE",
"326 27 OFFCURVE",
"331 33 CURVE",
"343 34 OFFCURVE",
"380 36 OFFCURVE",
"385 44 CURVE SMOOTH",
"392 57 OFFCURVE",
"393 76 OFFCURVE",
"393 103 CURVE SMOOTH",
"393 204 LINE SMOOTH",
"393 205 OFFCURVE",
"391 207 OFFCURVE",
"391 207 CURVE",
"366 208 OFFCURVE",
"340 209 OFFCURVE",
"312 209 CURVE SMOOTH",
"236 209 OFFCURVE",
"230 209 OFFCURVE",
"228 208 CURVE",
"227 207 OFFCURVE",
"228 205 OFFCURVE"
);
}
);
width = 621;
}
);
userData = {
com.fontlab.hintData = {
hhints = (
{
position = -4;
width = 37;
},
{
position = 209;
width = 49;
},
{
position = 417;
width = 37;
}
);
vhints = (
{
position = 98;
width = 130;
},
{
position = 393;
width = 130;
}
);
};
};
},
{
glyphname = hbar.sc;
lastChange = "2017-07-12 19:24:33 +0000";
layers = (
{
components = (
{
name = h.sc;
transform = "{1, 0, 0, 1, 2, 0}";
}
);
layerId = "C3DEC2A7-F599-40A3-AE95-7DABCECAEB0F";
paths = (
{
closed = 1;
nodes = (
"541 326 CURVE",
"512 326 OFFCURVE",
"52 326 OFFCURVE",
"38 326 CURVE",
"34 326 OFFCURVE",
"33 354 OFFCURVE",
"39 363 CURVE",
"68 363 OFFCURVE",
"527 363 OFFCURVE",
"541 363 CURVE",
"545 363 OFFCURVE",
"545 335 OFFCURVE"
);
}
);
width = 624;
}
);
userData = {
com.fontlab.hintData = {
hhints = (
{
position = -4;
width = 37;
},
{
position = 209;
width = 49;
},
{
position = 326;
width = 37;
},
{
position = 417;
width = 37;
}
);
vhints = (
{
position = 100;
width = 130;
},
{
position = 395;
width = 130;
}
);
};
};
},
{
glyphname = i.sc;
lastChange = "2017-07-12 19:24:33 +0000";
layers = (
{
layerId = "C3DEC2A7-F599-40A3-AE95-7DABCECAEB0F";
paths = (
{
closed = 1;
nodes = (
"163 448 CURVE SMOOTH",
"197 448 OFFCURVE",
"248 450 OFFCURVE",
"280 454 CURVE",
"284 448 OFFCURVE",
"285 423 OFFCURVE",
"280 417 CURVE",
"271 416 OFFCURVE",
"236 414 OFFCURVE",
"233 405 CURVE SMOOTH",
"227 392 OFFCURVE",
"228 371 OFFCURVE",
"228 343 CURVE SMOOTH",
"228 107 LINE SMOOTH",
"228 79 OFFCURVE",
"227 58 OFFCURVE",
"233 45 CURVE SMOOTH",
"236 36 OFFCURVE",
"271 34 OFFCURVE",
"280 33 CURVE",
"285 27 OFFCURVE",
"284 2 OFFCURVE",
"280 -4 CURVE",
"248 0 OFFCURVE",
"196 2 OFFCURVE",
"162 2 CURVE SMOOTH",
"128 2 OFFCURVE",
"77 0 OFFCURVE",
"45 -4 CURVE",
"41 2 OFFCURVE",
"40 27 OFFCURVE",
"45 33 CURVE",
"54 34 OFFCURVE",
"89 36 OFFCURVE",
"92 45 CURVE SMOOTH",
"98 58 OFFCURVE",
"98 79 OFFCURVE",
"98 107 CURVE SMOOTH",
"98 343 LINE SMOOTH",
"98 371 OFFCURVE",
"98 392 OFFCURVE",
"92 405 CURVE SMOOTH",
"89 414 OFFCURVE",
"54 416 OFFCURVE",
"45 417 CURVE",
"40 423 OFFCURVE",
"41 448 OFFCURVE",
"45 454 CURVE",
"77 450 OFFCURVE",
"129 448 OFFCURVE"
);
}
);
width = 326;
}
);
userData = {
com.fontlab.hintData = {
hhints = (
{
position = -4;
width = 37;
},
{
position = 417;
width = 37;
}
);
vhints = (
{
position = 98;
width = 130;
}
);
};
};
},
{
glyphname = iogonek.sc;
lastChange = "2017-07-12 19:24:33 +0000";
layers = (
{
layerId = "C3DEC2A7-F599-40A3-AE95-7DABCECAEB0F";
paths = (
{
closed = 1;
nodes = (
"163 448 CURVE SMOOTH",
"197 448 OFFCURVE",
"245 450 OFFCURVE",
"277 454 CURVE",
"281 448 OFFCURVE",
"282 423 OFFCURVE",
"277 417 CURVE",
"268 416 OFFCURVE",
"236 414 OFFCURVE",
"233 405 CURVE",
"227 392 OFFCURVE",
"228 371 OFFCURVE",
"228 343 CURVE SMOOTH",
"228 107 LINE SMOOTH",
"228 79 OFFCURVE",
"227 58 OFFCURVE",
"233 45 CURVE",
"236 36 OFFCURVE",
"268 34 OFFCURVE",
"277 33 CURVE",
"282 27 OFFCURVE",
"281 2 OFFCURVE",
"277 -4 CURVE",
"269 -3 OFFCURVE",
"261 -2 OFFCURVE",
"252 -1 CURVE",
"210 -11 OFFCURVE",
"142 -65 OFFCURVE",
"142 -99 CURVE SMOOTH",
"142 -120 OFFCURVE",
"154 -146 OFFCURVE",
"191 -146 CURVE SMOOTH",
"219 -146 OFFCURVE",
"256 -115 OFFCURVE",
"266 -107 CURVE",
"269 -107 OFFCURVE",
"272 -110 OFFCURVE",
"272 -118 CURVE SMOOTH",
"272 -123 OFFCURVE",
"268 -139 OFFCURVE",
"265 -143 CURVE SMOOTH",
"250 -162 OFFCURVE",
"198 -216 OFFCURVE",
"142 -216 CURVE SMOOTH",
"109 -216 OFFCURVE",
"68 -190 OFFCURVE",
"68 -138 CURVE SMOOTH",
"68 -85 OFFCURVE",
"155 -17 OFFCURVE",
"198 1 CURVE",
"185 1 OFFCURVE",
"173 2 OFFCURVE",
"162 2 CURVE SMOOTH",
"128 2 OFFCURVE",
"80 0 OFFCURVE",
"48 -4 CURVE",
"44 2 OFFCURVE",
"43 27 OFFCURVE",
"48 33 CURVE",
"57 34 OFFCURVE",
"89 36 OFFCURVE",
"92 45 CURVE",
"98 58 OFFCURVE",
"98 79 OFFCURVE",
"98 107 CURVE SMOOTH",
"98 343 LINE SMOOTH",
"98 371 OFFCURVE",
"98 392 OFFCURVE",
"92 405 CURVE",
"89 414 OFFCURVE",
"57 416 OFFCURVE",
"48 417 CURVE",
"43 423 OFFCURVE",
"44 448 OFFCURVE",
"48 454 CURVE",
"80 450 OFFCURVE",
"129 448 OFFCURVE"
);
}
);
width = 325;
}
);
userData = {
com.fontlab.hintData = {
hhints = (
{
position = -216;
width = 70;
},
{
position = -4;
width = 37;
},
{
position = 417;
width = 37;
}
);
vhints = (
{
position = 68;
width = 74;
},
{
position = 98;
width = 130;
}
);
};
};
},
{
glyphname = j.sc;
lastChange = "2017-07-12 19:24:33 +0000";
layers = (
{
layerId = "C3DEC2A7-F599-40A3-AE95-7DABCECAEB0F";
paths = (
{
closed = 1;
nodes = (
"94 344 LINE SMOOTH",
"94 372 OFFCURVE",
"93 392 OFFCURVE",
"88 405 CURVE SMOOTH",
"85 414 OFFCURVE",
"44 416 OFFCURVE",
"35 417 CURVE",
"30 423 OFFCURVE",
"31 448 OFFCURVE",
"35 454 CURVE",
"69 450 OFFCURVE",
"132 448 OFFCURVE",
"169 448 CURVE SMOOTH",
"206 448 OFFCURVE",
"256 450 OFFCURVE",
"290 454 CURVE",
"294 448 OFFCURVE",
"295 423 OFFCURVE",
"290 417 CURVE",
"278 416 OFFCURVE",
"236 414 OFFCURVE",
"231 405 CURVE SMOOTH",
"223 392 OFFCURVE",
"224 370 OFFCURVE",
"224 341 CURVE SMOOTH",
"224 95 LINE SMOOTH",
"224 -59 OFFCURVE",
"134 -149 OFFCURVE",
"-8 -149 CURVE SMOOTH",
"-23 -149 OFFCURVE",
"-55 -144 OFFCURVE",
"-62 -137 CURVE",
"-68 -130 OFFCURVE",
"-81 -110 OFFCURVE",
"-81 -87 CURVE SMOOTH",
"-81 -51 OFFCURVE",
"-53 -34 OFFCURVE",
"-31 -34 CURVE SMOOTH",
"0 -34 OFFCURVE",
"29 -97 OFFCURVE",
"50 -97 CURVE SMOOTH",
"93 -97 OFFCURVE",
"94 -10 OFFCURVE",
"94 99 CURVE SMOOTH"
);
}
);
width = 318;
}
);
userData = {
com.fontlab.hintData = {
hhints = (
{
position = -149;
width = 52;
},
{
position = 417;
width = 37;
}
);
vhints = (
{
position = 94;
width = 130;
}
);
};
};
},
{
glyphname = k.sc;
lastChange = "2017-07-12 19:24:33 +0000";
layers = (
{
layerId = "C3DEC2A7-F599-40A3-AE95-7DABCECAEB0F";
paths = (
{
closed = 1;
nodes = (
"163 448 CURVE SMOOTH",
"197 448 OFFCURVE",
"249 450 OFFCURVE",
"280 454 CURVE",
"284 448 OFFCURVE",
"285 423 OFFCURVE",
"280 417 CURVE",
"271 416 OFFCURVE",
"236 414 OFFCURVE",
"233 405 CURVE SMOOTH",
"228 392 OFFCURVE",
"228 374 OFFCURVE",
"228 346 CURVE SMOOTH",
"228 251 LINE",
"258 274 OFFCURVE",
"283 293 OFFCURVE",
"301 307 CURVE SMOOTH",
"346 342 OFFCURVE",
"356 351 OFFCURVE",
"388 381 CURVE SMOOTH",
"396 389 OFFCURVE",
"400 397 OFFCURVE",
"400 402 CURVE SMOOTH",
"400 416 OFFCURVE",
"364 418 OFFCURVE",
"354 418 CURVE",
"349 425 OFFCURVE",
"349 446 OFFCURVE",
"352 454 CURVE",
"377 452 OFFCURVE",
"420 448 OFFCURVE",
"445 448 CURVE SMOOTH",
"475 448 OFFCURVE",
"519 450 OFFCURVE",
"544 454 CURVE",
"547 448 OFFCURVE",
"547 425 OFFCURVE",
"542 419 CURVE",
"536 418 OFFCURVE",
"488 413 OFFCURVE",
"461 390 CURVE SMOOTH",
"461 390 OFFCURVE",
"375 317 OFFCURVE",
"324 275 CURVE SMOOTH",
"318 270 OFFCURVE",
"319 268 OFFCURVE",
"322 265 CURVE SMOOTH",
"373 201 OFFCURVE",
"395 177 OFFCURVE",
"443 122 CURVE SMOOTH",
"494 63 OFFCURVE",
"527 27 OFFCURVE",
"578 27 CURVE",
"583 21 OFFCURVE",
"579 -5 OFFCURVE",
"578 -7 CURVE",
"558 -9 OFFCURVE",
"525 -11 OFFCURVE",
"497 -11 CURVE SMOOTH",
"423 -11 OFFCURVE",
"366 37 OFFCURVE",
"348 60 CURVE SMOOTH",
"327 86 OFFCURVE",
"265 154 OFFCURVE",
"235 195 CURVE SMOOTH",
"233 197 OFFCURVE",
"233 197 OFFCURVE",
"232 197 CURVE SMOOTH",
"229 197 OFFCURVE",
"229 197 OFFCURVE",
"228 195 CURVE",
"228 105 LINE SMOOTH",
"228 76 OFFCURVE",
"228 55 OFFCURVE",
"233 42 CURVE SMOOTH",
"236 33 OFFCURVE",
"271 31 OFFCURVE",
"280 30 CURVE",
"285 24 OFFCURVE",
"284 2 OFFCURVE",
"280 -4 CURVE",
"249 0 OFFCURVE",
"196 2 OFFCURVE",
"162 2 CURVE SMOOTH",
"128 2 OFFCURVE",
"76 0 OFFCURVE",
"45 -4 CURVE",
"41 2 OFFCURVE",
"40 24 OFFCURVE",
"45 30 CURVE",
"54 31 OFFCURVE",
"89 33 OFFCURVE",
"92 42 CURVE SMOOTH",
"98 55 OFFCURVE",
"98 76 OFFCURVE",
"98 104 CURVE SMOOTH",
"98 346 LINE SMOOTH",
"98 374 OFFCURVE",
"98 392 OFFCURVE",
"92 405 CURVE SMOOTH",
"89 414 OFFCURVE",
"54 416 OFFCURVE",
"45 417 CURVE",
"40 423 OFFCURVE",
"41 448 OFFCURVE",
"45 454 CURVE",
"76 450 OFFCURVE",
"129 448 OFFCURVE"
);
}
);
width = 582;
}
);
userData = {
com.fontlab.hintData = {
hhints = (
{
position = -4;
width = 34;
},
{
position = 390;
width = 58;
},
{
position = 417;
width = 37;
}
);
vhints = (
{
position = 98;
width = 130;
}
);
};
};
},
{
glyphname = l.sc;
lastChange = "2017-07-12 19:24:33 +0000";
layers = (
{
layerId = "C3DEC2A7-F599-40A3-AE95-7DABCECAEB0F";
paths = (
{
closed = 1;
nodes = (
"228 104 LINE SMOOTH",
"228 100 OFFCURVE",
"228 65 OFFCURVE",
"233 52 CURVE SMOOTH",
"237 43 OFFCURVE",
"260 39 OFFCURVE",
"278 39 CURVE SMOOTH",
"319 39 LINE SMOOTH",
"345 39 OFFCURVE",
"367 45 OFFCURVE",
"383 60 CURVE SMOOTH",
"397 74 OFFCURVE",
"408 93 OFFCURVE",
"420 122 CURVE SMOOTH",
"421 125 OFFCURVE",
"428 126 OFFCURVE",
"433 126 CURVE SMOOTH",
"440 126 OFFCURVE",
"452 125 OFFCURVE",
"454 123 CURVE",
"441 84 OFFCURVE",
"422 30 OFFCURVE",
"417 -2 CURVE",
"385 -2 OFFCURVE",
"74 -2 OFFCURVE",
"45 -3 CURVE",
"41 3 OFFCURVE",
"40 28 OFFCURVE",
"45 34 CURVE",
"54 35 OFFCURVE",
"89 36 OFFCURVE",
"92 45 CURVE SMOOTH",
"98 58 OFFCURVE",
"98 79 OFFCURVE",
"98 107 CURVE SMOOTH",
"98 343 LINE SMOOTH",
"98 371 OFFCURVE",
"98 392 OFFCURVE",
"92 405 CURVE SMOOTH",
"89 414 OFFCURVE",
"54 416 OFFCURVE",
"45 417 CURVE",
"40 423 OFFCURVE",
"41 448 OFFCURVE",
"45 454 CURVE",
"76 450 OFFCURVE",
"129 448 OFFCURVE",
"163 448 CURVE SMOOTH",
"197 448 OFFCURVE",
"249 450 OFFCURVE",
"280 454 CURVE",
"284 448 OFFCURVE",
"285 423 OFFCURVE",
"280 417 CURVE",
"271 416 OFFCURVE",
"236 413 OFFCURVE",
"233 405 CURVE SMOOTH",
"228 392 OFFCURVE",
"228 372 OFFCURVE",
"228 344 CURVE SMOOTH"
);
}
);
width = 466;
}
);
userData = {
com.fontlab.hintData = {
hhints = (
{
position = -2;
width = 41;
},
{
position = 417;
width = 37;
}
);
vhints = (
{
position = 98;
width = 130;
}
);
};
};
},
{
glyphname = lslash.sc;
lastChange = "2017-07-12 19:24:33 +0000";
layers = (
{
components = (
{
name = l.sc;
transform = "{1, 0, 0, 1, 5, 0}";
}
);
layerId = "C3DEC2A7-F599-40A3-AE95-7DABCECAEB0F";
paths = (
{
closed = 1;
nodes = (
"35 127 LINE SMOOTH",
"30 123 OFFCURVE",
"30 167 OFFCURVE",
"35 172 CURVE SMOOTH",
"158 239.544 LINE",
"201 241.848 LINE",
"370 336 LINE SMOOTH",
"376 340 OFFCURVE",
"375 295 OFFCURVE",
"370 291 CURVE SMOOTH",
"212 201.089 LINE",
"174 203.076 LINE"
);
}
);
width = 471;
}
);
userData = {
com.fontlab.hintData = {
hhints = (
{
position = -2;
width = 41;
},
{
position = 417;
width = 37;
}
);
vhints = (
{
position = 103;
width = 130;
}
);
};
};
},
